<svg xmlns="http://www.w3.org/2000/svg" xmlns:xlink="http://www.w3.org/1999/xlink" version="1.1" id="Layer_1" x="0px" y="0px" viewBox="0 0 572.4 105.1" xml:space="preserve">
<style type="text/css">
	.tabbed { fill: #fff; }
	.out { fill: #fff; }
	.st1{font-family:'Raavi'; color:#ffffff;}
	.st2{font-size:8;}
	.st3{fill:none;stroke:#FFFFFF;stroke-width:0.5;stroke-miterlimit:10;}
</style>
<g id="OUT">
	<path class="out" d="M400 56.3c0-3.8 0.1-7.6 0-11.4c-0.3-10.6 7.8-17.6 15.7-19.2c1.4-0.3 2.8-0.5 4.3-0.5c4 0 7.9-0.1 11.9 0 c8.7 0.3 16.5 6.5 18.5 14.7c0.4 1.6 0.6 3.2 0.6 4.9c0 7.7 0 15.4 0 23.2c0 11.3-8.5 18-16.7 19.2c-3.3 0.5-6.6 0.3-9.9 0.4 c-3 0-6.1 0.2-9.1-0.6c-7.6-2.1-12.8-6.7-14.8-14.5c-0.3-1.4-0.4-2.8-0.4-4.2C400 64.3 400 60.3 400 56.3z M437.3 56.4 c0-4 0-8 0-12c-0.1-4.3-3.5-7.6-7.8-7.6c-2.8 0-5.7 0-8.5 0c-2 0-3.8 0.6-5.2 2.1c-1.5 1.6-2.3 3.5-2.3 5.7c0 4.2 0 8.3 0 12.5 c0 3.8-0.1 7.6 0 11.4c0 3.9 3.5 7.3 7.4 7.3c3 0 6.1 0 9.1 0c0.5 0 1 0 1.4-0.1c3.4-0.8 5.8-3.9 5.9-7.5 C437.3 64.2 437.3 60.3 437.3 56.4z"/>
	<path class="out" d="M504.2 48.2c0-6.5 0-13 0-19.6c0-2.6 0.8-3.5 3.4-3.5c2.3 0 4.6 0 6.8 0c2.4 0 3.3 0.9 3.3 3.4c0 13.1 0.1 26.2 0 39.3 c-0.1 9.9-7 17.7-16.8 19.3c-1.9 0.3-3.8 0.4-5.7 0.4c-3.3 0-6.6 0.1-9.9-0.1c-8.4-0.5-16-6.7-17.9-14.8c-0.4-1.5-0.5-3.1-0.5-4.6 c0-13.1 0-26.1 0-39.2c0-2.7 0.8-3.5 3.5-3.6c2.2 0 4.4 0 6.6 0c2.7 0 3.5 0.9 3.5 3.6c0 13.1 0 26.2 0 39.3c0 3.7 2.6 7 6 7.7 c0.5 0.1 1 0.1 1.4 0.1c2.8 0 5.7-0.1 8.5 0c4.3 0.3 7.9-3.9 7.8-7.8C504.2 61.4 504.2 54.8 504.2 48.2z"/>
	<path class="out" d="M549.2 25.2c0.5 0.3 0.9 0.2 1.3 0.2c3.6 0 7.1 0 10.7 0c2.6 0 3.5 1 3.5 3.6c0 1.5 0 3 0 4.6c0 2.7-1 3.6-3.7 3.6 c-3.5 0-7 0-10.4 0c-0.4 0-0.8 0-1.1 0c-0.4 0.4-0.2 0.7-0.2 1.1c0 9.9 0 19.8 0 29.6c0 4 3.4 8.2 7.9 7.8c1.6-0.1 3.3-0.1 4.9 0.1 c1.8 0.1 2.6 1 2.7 2.8c0.1 1.9 0.1 3.8 0 5.6c-0.1 1.7-1 2.7-2.7 2.9c-3.1 0.2-6.1 0.6-9.2 0.4c-8.5-0.7-15.1-7.8-16.7-14.8 c-0.3-1.5-0.5-3.1-0.5-4.6c0-18.3 0-36.6 0-54.8c0-1.7 0.7-2.7 2.2-3.4c1.3-0.6 2.7-0.7 4.1-0.9c1.1-0.2 2.3-0.3 3.4-0.4 c2.3-0.3 3.8 1 3.9 3.3c0 4.3 0 8.6 0 12.8C549.2 24.8 549.2 25 549.2 25.2z"/>
</g>
<g id="Tabbed">
	<path class="tabbed" d="M381.8 0.2c1.5 1 2 2.4 2 4.2c-0.1 26.5-0.1 53 0 79.4c0 2.7-1.2 3.6-3.6 3.6c-7.9 0-15.8 0-23.6 0 c-9.4-0.1-16.4-4.5-21.5-12.2c-4.3-6.6-5.7-14-5.2-21.7c0.5-7.3 2.9-13.9 7.7-19.6c4.8-5.5 10.8-8.6 18.2-8.9 c4.4-0.2 8.8 0 13.2-0.1c0.4 0 0.9 0 1.3 0c0.2-0.4 0.1-0.9 0.1-1.2c0-6.3 0-12.6 0-18.8c0-1.6 0.7-2.6 2.1-3.3 c1.8-0.9 3.7-0.8 5.6-1.2c0.2 0 0.6 0.1 0.7-0.3C379.8 0.2 380.8 0.2 381.8 0.2z M370.3 37c-4.6 0-9.2 0-13.7 0 c-1.1 0-2.2 0.2-3.3 0.6c-3.9 1.3-6.2 4.2-7.9 7.7c-2 4.2-2.4 8.7-2.1 13.3c0.3 4.2 1.4 8.2 4 11.6c2.6 3.5 5.9 5.5 10.5 5.4 c3.8-0.1 7.7 0 11.5 0c0.3 0 0.7 0.1 1-0.1C370.3 62.7 370.3 49.8 370.3 37z"/>
	<path class="tabbed" d="M210.2 0.2c1.5 1.1 1.9 2.5 1.9 4.4c-0.1 6.4 0 12.7 0 19.1c0 0.4 0 0.8 0 1.2c0.5 0.2 0.9 0.1 1.4 0.1 c4.8 0.1 9.6-0.2 14.4 0.2c6.9 0.5 12.4 3.5 16.9 8.7c4.9 5.6 7.4 12.2 7.8 19.6c0.6 9.6-1.6 18.4-8.2 25.7 c-4.6 5.1-10.3 8-17.2 8.2c-3.9 0.1-7.9 0.3-11.8-0.2c-8.1-1.2-16.2-8.1-16.6-17.9c0-0.8-0.1-1.5-0.1-2.3c0-20.4 0-40.7 0-61.1 c0-3.2 1.1-4.4 4.3-4.9c1.3-0.2 2.5-0.3 3.8-0.5c0.2 0 0.4 0 0.5-0.2C208.2 0.2 209.2 0.2 210.2 0.2z M212.1 37c0 0.6 0 1 0 1.5 c0 4.4 0.1 8.8 0 13.2c-0.1 5.6-0.1 11.1 0 16.7c0 4.2 4.3 7.7 7.9 7.4c1.9-0.2 3.8 0 5.6 0c1.5 0 3-0.3 4.4-1 c3.3-1.7 5.6-4.3 7.1-7.7c1.9-4.3 2.2-8.8 1.9-13.4c-0.3-4.1-1.4-8-3.8-11.4c-2.2-3.1-5-5.2-8.8-5.3C221.7 36.8 217 37 212.1 37z"/>
	<path class="tabbed" d="M141.6 0.2c1.6 0.9 2.1 2.3 2.1 4c0 6.5 0 13 0 19.4c0 0.4 0 0.8 0 1.2c0.5 0.2 0.9 0.1 1.4 0.1 c4.7 0.1 9.4-0.2 14.1 0.2c7.4 0.5 13.3 3.9 17.9 9.6c4.4 5.4 6.6 11.7 7 18.6c0.4 5.9-0.2 11.7-2.7 17.2 c-3.1 6.9-7.8 12.2-14.9 15.2c-2.9 1.2-5.9 1.7-9 1.7c-2.9 0-5.8 0.1-8.7-0.1c-8.6-0.5-16.9-6.7-18.4-16.2 c-0.2-1.1-0.3-2.3-0.3-3.5c0-20.8 0-41.7 0-62.5c0-2 0.7-3 2.6-3.8c1.7-0.7 3.5-0.7 5.3-1c0.2 0 0.6 0.1 0.7-0.2 C139.7 0.2 140.6 0.2 141.6 0.2z M143.8 36.9c0 0.5-0.1 0.9-0.1 1.4c0 9.9-0.1 19.8-0.1 29.7c0 4.6 4.4 8 7.9 7.7 c1.9-0.2 3.8 0 5.6 0c2.2 0 4.3-0.6 6.1-1.9c2.9-2 4.9-4.8 6.1-8.1c1.7-4.7 1.8-9.6 1.1-14.5c-0.6-3.9-2.1-7.5-4.8-10.5 c-2.2-2.4-4.9-3.7-8.1-3.8C152.9 36.9 148.4 36.9 143.8 36.9z"/>
	<path class="tabbed" d="M41.5 105.4c0-0.2-0.2-0.3-0.4-0.4c-1.4-0.7-2-2-2-3.4c-0.1-2.9-0.1-5.8 0-8.6c0.1-2.4 1.3-3.7 3.7-3.9 c2.9-0.2 5.8-0.2 8.6 0c2.6 0.2 3.8 1.5 3.9 4.1c0.1 2.8 0.1 5.6 0 8.4c0 1.9-1 3.3-2.8 4C48.9 105.4 45.2 105.4 41.5 105.4z"/>
	<path class="tabbed" d="M280.6 64.1c0.1 1.9-0.2 3.7 0.2 5.4c0.7 3.8 3.7 6.3 7.6 6.3c5.9 0 11.8-0.3 17.6-1.7c2-0.5 3.8 0.9 3.9 3 c0.1 1.6 0 3.3 0 4.9c0 1.1-0.6 1.8-1.5 2.4c-1.9 1.3-4.1 1.7-6.3 2.1c-5.5 0.8-11.1 1.1-16.6 0.8c-8.1-0.4-15.4-6.3-17.6-14 c-0.5-1.7-0.7-3.4-0.7-5.1c0-7.8 0.1-15.6 0-23.4c-0.2-10.6 7.8-17.5 15.7-19.2c1.5-0.3 3-0.5 4.5-0.5c4.5 0.1 9-0.3 13.5 0.3 c7.9 0.9 15.6 7.2 16.9 16c1.8 12.6-6.7 20.4-15.6 22.2c-1.7 0.3-3.4 0.5-5.1 0.5c-5 0-10.1 0-15.1 0 C281.5 64.1 281.1 64.1 280.6 64.1z M280.6 52.3c0.3 0 0.4 0.1 0.5 0.1c5.4 0 10.9 0 16.3 0c0.8 0 1.5-0.2 2.2-0.5 c3.3-1.4 5.3-5.2 4.6-8.9c-0.7-3.7-3.9-6.3-7.6-6.4c-2.8 0-5.6 0-8.4 0c-3.9 0-6.9 2.4-7.5 6.2C280.3 46.1 280.7 49.2 280.6 52.3z"/>
	<path class="tabbed" d="M99.9 48.4c0-1.8 0.1-3.6-0.1-5.3c-0.5-3.5-3.7-6.2-7.3-6.3c-2 0-3.9 0-5.9 0c-0.5 0-1 0-1.4-0.1 c-1.3-0.2-2.2-1.1-2.2-2.4c-0.1-2.2-0.1-4.3 0-6.5c0-1.5 0.9-2.5 2.4-2.5c4.4-0.1 8.8-0.4 13.1 0.6c6.8 1.5 15.1 8 15 18.9 c-0.1 13.1 0 26.2 0 39.2c0 2.5-1 3.5-3.5 3.5c-9 0-17.9 0-26.9 0c-7 0-12.8-2.7-17.1-8.4c-6.2-8.4-4.9-24.1 9.7-29.3 c2.3-0.8 4.8-1.2 7.3-1.2c5.2 0 10.4 0 15.6 0C99.1 48.5 99.5 48.6 99.9 48.4z M99.9 60.2c-0.5 0-0.9 0-1.3 0c-5 0-9.9 0.1-14.9 0 c-2.9 0-4.9 1.2-6.4 3.5c-1.7 2.6-1.8 5.4-0.4 8.1c1.4 2.6 3.7 4.1 6.8 4.1c5 0 10 0 15 0c0.4 0 0.8 0.1 1.2-0.1 C99.9 70.6 99.9 65.5 99.9 60.2z"/>
	<path class="tabbed" d="M0.2 26.6c1-1.9 2.7-2.3 4.7-2.3c19 0 37.9 0 56.9 0c0.4 0 0.7 0 1.1 0c2.3 0.1 3.5 1.3 3.6 3.5 c0.1 2.5 0.1 5 0 7.4c-0.1 2.1-1.2 3.2-3.3 3.4c-0.4 0-0.8 0-1.2 0c-7.9 0-15.8 0-23.6 0c-0.2 0.4-0.1 0.9-0.1 1.3 c0 13.8 0 27.6 0 41.4c0 0.4 0 0.8 0 1.2c-0.1 2.2-1.4 3.4-3.6 3.5c-3 0-6 0-9 0c-2.7 0-4-1.2-4-3.9c0-6 0-11.9 0-17.9 c0-8 0-16.1 0-24.1c0-0.4 0-0.9 0-1.3c-0.5-0.3-0.9-0.2-1.3-0.2c-5.2 0-10.3 0-15.5 0c-2 0-3.6-0.4-4.5-2.3 C0.2 33.2 0.2 29.9 0.2 26.6z"/>
</g>
<g id="Registered">
	<text transform="matrix(1 0 0 1 565.2503 9.1665)" class="st1 st2">R</text>
	<circle class="st3" cx="567.8" cy="6.5" r="4.2"/>
</g>
</svg>
