<?xml version="1.0" standalone="no"?>
<!DOCTYPE svg PUBLIC "-//W3C//DTD SVG 1.1//EN" "http://www.w3.org/Graphics/SVG/1.1/DTD/svg11.dtd" >
<svg xmlns="http://www.w3.org/2000/svg">
<metadata></metadata>
<defs>
<font id="interstateregular" horiz-adv-x="1474" >
<font-face units-per-em="2048" ascent="1638" descent="-410" />
<missing-glyph horiz-adv-x="514" />
<glyph horiz-adv-x="2048" />
<glyph horiz-adv-x="2048" />
<glyph unicode="&#xd;" horiz-adv-x="514" />
<glyph unicode=" "  horiz-adv-x="514" />
<glyph unicode="&#x09;" horiz-adv-x="514" />
<glyph unicode="&#xa0;" horiz-adv-x="514" />
<glyph unicode="!" horiz-adv-x="499" d="M174 63q0 31 22.5 54.5t53.5 23.5q29 0 52.5 -23.5t23.5 -54.5t-23.5 -53t-52.5 -22q-31 0 -53.5 22.5t-22.5 52.5zM203 760v674h92v-674l-21 -426h-51z" />
<glyph unicode="&#x22;" horiz-adv-x="903" d="M193 1434h112l-20 -557h-72zM598 1434h111l-19 -557h-74z" />
<glyph unicode="#" horiz-adv-x="1347" d="M113 397v86h260v467h-260v84h260v400h90v-400h422v400h92v-400h258v-84h-258v-467h258v-86h-258v-397h-92v397h-422v-397h-90v397h-260zM463 483h422v467h-422v-467z" />
<glyph unicode="$" horiz-adv-x="1163" d="M121 158l55 71q88 -72 184.5 -112.5t217.5 -40.5q74 0 137 17.5t110 53t74 89t27 124.5q0 59 -18.5 105.5t-61.5 86.5t-116 76t-179 77q-115 43 -192.5 81.5t-125 82.5t-67 99.5t-19.5 129.5q0 72 26 132t74 105t118.5 73t160.5 34v196h90v-194q127 -6 213 -43t164 -92 l-53 -76q-80 57 -165 91t-206 34q-84 0 -146.5 -20.5t-102 -56.5t-59 -82t-19.5 -97q0 -53 14 -94t54 -77t111 -71t181 -76q119 -45 200 -87t129 -91t68.5 -106t20.5 -133q0 -84 -31 -150.5t-84 -115t-126.5 -76t-162.5 -33.5v-197h-90v197q-125 8 -225 51t-180 115z" />
<glyph unicode="%" horiz-adv-x="1859" d="M125 1026q0 199 84 314.5t231 115.5q150 0 233 -114.5t83 -313.5q0 -197 -86 -311.5t-232 -114.5q-145 0 -229 113.5t-84 310.5zM209 1028q0 -164 61.5 -258t169.5 -94q111 0 171.5 97t60.5 253q0 166 -61.5 261t-170.5 95q-111 0 -171 -94t-60 -260zM438 0l891 1434h90 l-891 -1434h-90zM1104 403q0 199 84 313.5t231 114.5t230.5 -114t83.5 -311q0 -199 -85 -314t-231 -115q-145 0 -229 114t-84 312zM1188 406q0 -164 60.5 -259.5t170.5 -95.5q111 0 170.5 97t59.5 255q0 164 -60.5 259.5t-171.5 95.5q-109 0 -169 -94.5t-60 -257.5z" />
<glyph unicode="&#x26;" horiz-adv-x="1286" d="M121 354q0 158 89 265.5t247 185.5l-47 61q-59 78 -99.5 147.5t-40.5 157.5q0 63 24.5 115.5t70 90.5t105.5 58.5t134 20.5q117 0 206 -32.5t167 -92.5l-49 -74q-80 59 -155 88t-171 29q-104 0 -170.5 -53t-66.5 -145q0 -72 30.5 -128.5t83.5 -125.5l465 -598 q37 59 66.5 135t54.5 164l80 -23q-53 -201 -148 -346l197 -254h-111l-143 182q-86 -102 -190.5 -153.5t-223.5 -51.5q-102 0 -179 28t-127 78t-74.5 119.5t-24.5 151.5zM211 356q0 -135 84 -216t233 -81q104 0 196.5 45.5t164.5 141.5l-383 497q-295 -139 -295 -387z" />
<glyph unicode="'" horiz-adv-x="493" d="M190 1434h113l-18 -557h-76z" />
<glyph unicode="(" horiz-adv-x="714" d="M152 614q0 150 30.5 274t82.5 228.5t122 191.5t145 158l39 -36q-72 -76 -132 -161t-103 -183.5t-67.5 -214t-24.5 -250.5q0 -133 25.5 -249t70.5 -216.5t105.5 -185.5t127.5 -158l-43 -37q-72 70 -139 157.5t-120.5 192t-86 226.5t-32.5 263z" />
<glyph unicode=")" horiz-adv-x="714" d="M141 1430l43 36q70 -72 138.5 -158.5t122 -191t86 -226.5t32.5 -263q0 -150 -30.5 -275t-83 -229.5t-122 -190.5t-145.5 -157l-39 37q72 76 132.5 160.5t103.5 183t67.5 214t24.5 251.5q0 133 -25.5 248.5t-70.5 216t-105.5 185.5t-128.5 159z" />
<glyph unicode="*" horiz-adv-x="997" d="M147 889l314 160l-314 159l37 66l297 -197l-20 357h76l-21 -357l297 197l37 -66l-313 -159l313 -160l-37 -66l-297 197l21 -356h-76l20 356l-297 -197z" />
<glyph unicode="+" horiz-adv-x="1173" d="M113 664v81h430v465h88v-465h430v-81h-430v-465h-88v465h-430z" />
<glyph unicode="," horiz-adv-x="432" d="M131 -197l35 383h121l-90 -383h-66z" />
<glyph unicode="-" horiz-adv-x="649" d="M104 702v89h439v-89h-439z" />
<glyph unicode="." horiz-adv-x="432" d="M137 66q0 33 22.5 57t55.5 24q31 0 54.5 -24t23.5 -57t-23.5 -55.5t-54.5 -22.5q-33 0 -55.5 22.5t-22.5 55.5z" />
<glyph unicode="/" horiz-adv-x="847" d="M80 -184l600 1802h90l-602 -1802h-88z" />
<glyph unicode="0" horiz-adv-x="1323" d="M131 717q0 174 38 312t107.5 232.5t168 144.5t217.5 50t217 -50t168.5 -144.5t108.5 -232.5t38 -312q0 -176 -38 -313.5t-108.5 -231.5t-169 -144.5t-216.5 -50.5q-119 0 -217.5 50.5t-168 144.5t-107.5 231.5t-38 313.5zM223 717q0 -152 30 -273.5t86 -206.5t137 -130.5 t186 -45.5q104 0 185 45.5t137 130.5t86 206.5t30 273.5t-30 273.5t-86 206.5t-137 130t-185 45t-185.5 -45t-137.5 -130t-86 -207t-30 -273z" />
<glyph unicode="1" horiz-adv-x="598" d="M47 1192v78q98 4 177 45t100 123h71v-1438h-92v1282q-6 -12 -28.5 -27.5t-57.5 -30t-79 -23.5t-91 -9z" />
<glyph unicode="2" horiz-adv-x="1144" d="M96 0q6 109 35 197t84 165.5t136 149.5t192 150q104 74 170.5 129t104.5 103t52.5 95t14.5 105q0 135 -87 206.5t-241 71.5q-123 0 -209 -31.5t-155 -85.5l-50 66q80 59 178.5 97t237.5 38q92 0 169 -21.5t132 -66.5t87 -111.5t32 -156.5q0 -76 -18.5 -134.5 t-61.5 -113.5t-114.5 -113.5t-178.5 -134.5q-113 -80 -187.5 -145.5t-119.5 -127t-67.5 -119.5t-30.5 -122h792v-90h-897z" />
<glyph unicode="3" horiz-adv-x="1122" d="M86 133l55 68q66 -59 162 -99.5t197 -40.5q193 0 292 88.5t99 247.5q0 82 -27.5 142.5t-78 99.5t-120 57.5t-151.5 18.5h-92v80h94q156 0 235.5 77.5t79.5 206.5q0 131 -78.5 212t-250.5 81q-104 0 -185 -37t-127 -78l-57 60q25 25 61.5 49.5t85 44t105.5 32.5t121 13 q92 0 170 -23.5t133 -69.5t86 -114.5t31 -161.5q0 -82 -22.5 -139t-57.5 -96t-80 -61.5t-88 -30.5q55 -8 109.5 -31.5t97.5 -67t70.5 -109t27.5 -153.5q0 -201 -130 -311.5t-357 -110.5q-59 0 -119 12.5t-114 34t-100 50t-77 59.5z" />
<glyph unicode="4" horiz-adv-x="1218" d="M76 367v77l745 996h101v-994h213v-79h-213v-367h-86v367h-760zM180 446h656v877z" />
<glyph unicode="5" horiz-adv-x="1206" d="M137 88l43 78q66 -41 166 -73t217 -32q201 0 313.5 106.5t112.5 283.5q0 160 -93 255t-296 95q-117 0 -199 -31t-139 -82l-94 37l53 709h789v-91h-709l-41 -567q53 47 141 78t205 31q123 0 213 -31t148.5 -87t87 -135t28.5 -175q0 -119 -38.5 -208t-109.5 -149.5 t-167 -91.5t-213 -31q-131 0 -240.5 34t-177.5 77z" />
<glyph unicode="6" horiz-adv-x="1249" d="M139 530q0 96 17.5 197.5t55.5 200t99.5 187.5t148.5 158.5t201.5 117t262.5 61.5v-84q-166 -20 -289 -85.5t-207 -164t-131 -222.5t-64 -259q47 102 160 168.5t281 66.5q100 0 186 -26.5t150.5 -80.5t101.5 -136t37 -193q0 -106 -38 -191t-105.5 -144.5t-159.5 -91.5 t-201 -32q-111 0 -204 32t-160.5 99.5t-104.5 172t-37 249.5zM236 434q8 -174 117.5 -273.5t295.5 -99.5q94 0 170 29t128 78t80 116.5t28 147.5q0 176 -109.5 266t-294.5 90q-92 0 -168.5 -26.5t-132 -74.5t-85 -112.5t-29.5 -140.5z" />
<glyph unicode="7" horiz-adv-x="1101" d="M49 1343v91h916v-88q-98 -121 -187.5 -265.5t-160 -312.5t-115.5 -359.5t-51 -408.5h-97q8 207 50 394.5t110 355.5t156 316t188 277h-809z" />
<glyph unicode="8" horiz-adv-x="1271" d="M119 387q0 158 95 252t255 123q-59 14 -112.5 39.5t-92.5 65.5t-61.5 94.5t-22.5 123.5q0 84 33 153t92.5 117t144.5 74.5t187 26.5q104 0 188 -25.5t143.5 -73.5t91.5 -117t32 -153q0 -70 -22.5 -123t-61.5 -93t-91.5 -65.5t-113.5 -39.5q162 -31 256 -125t94 -252 q0 -102 -38 -179t-105.5 -128t-162.5 -78t-212 -27t-212 26t-162.5 78t-104.5 128t-37 178zM211 389q0 -154 112.5 -241t313.5 -87t312.5 86t111.5 240t-115 241t-311 87q-197 0 -310.5 -86t-113.5 -240zM274 1087q0 -133 99.5 -209.5t263.5 -76.5q80 0 146.5 20.5t114.5 57 t73.5 88.5t25.5 118q0 125 -94 206t-268 81t-267.5 -80t-93.5 -205z" />
<glyph unicode="9" horiz-adv-x="1249" d="M100 997q0 106 38 191.5t105.5 145t160 91t200.5 31.5q111 0 204 -31.5t160.5 -99.5t104.5 -172.5t37 -249.5t-40 -298.5t-132 -286t-242.5 -224.5t-369.5 -112v84q168 20 290.5 85.5t205.5 164t130 222.5t62 259q-47 -104 -158 -170t-281 -66q-100 0 -186 26.5 t-150.5 81t-101.5 136.5t-37 192zM195 1001q0 -176 109.5 -266t295.5 -90q92 0 168 26.5t131 75t85 112.5t30 140q-8 174 -118 273.5t-296 99.5q-94 0 -170 -28.5t-128 -77.5t-79.5 -117t-27.5 -148z" />
<glyph unicode=":" horiz-adv-x="432" d="M137 66q0 33 22.5 57t55.5 24q31 0 54.5 -24t23.5 -57t-23.5 -55.5t-54.5 -22.5q-33 0 -55.5 22.5t-22.5 55.5zM137 1006q0 33 22.5 57t55.5 24q31 0 54.5 -24t23.5 -57t-23.5 -55.5t-54.5 -22.5q-33 0 -55.5 22.5t-22.5 55.5z" />
<glyph unicode=";" horiz-adv-x="432" d="M117 -197l33 383h122l-92 -383h-63zM137 1006q0 33 22.5 57t55.5 24q31 0 54.5 -24t23.5 -57t-23.5 -55.5t-54.5 -22.5q-33 0 -55.5 22.5t-22.5 55.5z" />
<glyph unicode="&#x3c;" horiz-adv-x="788" d="M113 664v81l528 535v-115l-457 -458l457 -461v-117z" />
<glyph unicode="=" horiz-adv-x="1185" d="M172 449v83h842v-83h-842zM172 877v84h842v-84h-842z" />
<glyph unicode="&#x3e;" horiz-adv-x="788" d="M147 129v117l457 456l-457 461v117l529 -535v-81z" />
<glyph unicode="?" horiz-adv-x="1140" d="M117 1288q80 72 188.5 120t259.5 48q92 0 168 -22.5t131.5 -65.5t85 -106.5t29.5 -143.5q0 -70 -15.5 -120t-46 -92t-77.5 -81t-109 -86q-53 -41 -86 -73.5t-51.5 -75.5t-24.5 -103.5t-6 -152.5h-94q0 106 8 175t31.5 119t65.5 91t112 90q51 39 89 72.5t62.5 67.5t36 73 t11.5 90q0 117 -88 187.5t-236 70.5q-125 0 -218 -41t-173 -108zM440 63q0 31 22.5 54.5t53.5 23.5q29 0 52.5 -23.5t23.5 -54.5t-23.5 -53t-52.5 -22q-31 0 -53.5 22.5t-22.5 52.5z" />
<glyph unicode="@" horiz-adv-x="1712" d="M117 717q0 160 55 296t153.5 234.5t234.5 153.5t296 55q164 0 300 -57.5t233.5 -155.5t151.5 -229.5t54 -276.5q0 -115 -22.5 -195.5t-62.5 -132t-95 -75t-119 -23.5q-78 0 -132 40t-74 110q-47 -70 -120 -110t-163 -40q-59 0 -113.5 15.5t-95.5 47.5t-65.5 81t-24.5 118 q0 66 24.5 116t67.5 84t101.5 51.5t123.5 17.5q82 0 143.5 -18.5t108.5 -47.5v133q0 102 -55 144.5t-176 42.5q-66 0 -119 -15.5t-106 -40.5l-25 58q55 27 118.5 44t139.5 17q135 0 211 -53t76 -193v-378q0 -78 40 -123t124 -45q49 0 91 20.5t72.5 64.5t48 113.5t17.5 169.5 q0 141 -50 263t-140.5 211t-215 139.5t-272.5 50.5q-147 0 -271 -50.5t-215 -139.5t-141.5 -215t-50.5 -275q0 -152 50.5 -278t141.5 -216t215 -140t271 -50q86 0 153.5 15.5t141.5 49.5l20 -53q-88 -41 -157.5 -55.5t-157.5 -14.5q-160 0 -296 55.5t-234.5 154 t-153.5 234.5t-55 296zM575 578q0 -106 66 -154.5t172 -48.5q82 0 151.5 42t112.5 107v191q-47 27 -110.5 47t-147.5 20q-104 0 -174 -53t-70 -151z" />
<glyph unicode="A" horiz-adv-x="1359" d="M127 0l502 1438h102l502 -1438h-98l-138 395h-637l-137 -395h-96zM389 481h580l-289 842z" />
<glyph unicode="B" horiz-adv-x="1243" d="M197 0v1434h460q78 0 147.5 -19.5t122 -60.5t83 -105.5t30.5 -154.5q0 -72 -19.5 -125.5t-52 -92t-73.5 -61t-86 -33.5q53 -8 108.5 -32.5t100.5 -69.5t73.5 -110.5t28.5 -153.5q0 -207 -120.5 -311.5t-340.5 -104.5h-462zM289 86h377q180 0 270 86t90 240 q0 76 -27.5 136t-77 101t-117 62.5t-149.5 21.5h-366v-647zM289 817h360q141 0 219 73t78 200q0 131 -83 194.5t-210 63.5h-364v-531z" />
<glyph unicode="C" horiz-adv-x="1267" d="M141 715q0 166 43 302t120 233.5t183.5 151.5t235.5 54q135 0 233.5 -45t173.5 -137l-63 -66q-70 84 -149.5 123t-196.5 39q-106 0 -195.5 -47t-154 -132t-100 -205t-35.5 -267t36.5 -268t101 -207t153.5 -133.5t194 -47.5q111 0 198 43.5t164 131.5l62 -64 q-78 -92 -185.5 -144.5t-240.5 -52.5q-129 0 -235.5 54.5t-182.5 152t-118 232.5t-42 299z" />
<glyph unicode="D" horiz-adv-x="1353" d="M197 0v1434h372q145 0 264 -42t203 -129t130 -221.5t46 -318.5q0 -193 -48 -330t-135 -224t-208 -128t-268 -41h-356zM291 86h274q131 0 233.5 36t173 112.5t108.5 196.5t38 288q0 317 -141 473t-416 156h-270v-1262z" />
<glyph unicode="E" horiz-adv-x="1136" d="M197 0v1434h811v-86h-717v-541h434v-86h-434v-635h747v-86h-841z" />
<glyph unicode="F" horiz-adv-x="1071" d="M197 0v1434h788v-86h-694v-566h418v-86h-418v-696h-94z" />
<glyph unicode="G" horiz-adv-x="1355" d="M141 715q0 164 43 300t120 234.5t183.5 152.5t235.5 54q145 0 251.5 -51t174.5 -143l-72 -62q-68 86 -149.5 128t-206.5 42q-106 0 -195.5 -47t-154 -133t-100 -206t-35.5 -265q0 -147 36.5 -268t101 -207t153.5 -133.5t194 -47.5q199 0 306.5 126t107.5 368v27h-312v86 h404v-101q0 -145 -37 -255.5t-103.5 -185.5t-161 -113t-206.5 -38q-129 0 -235.5 54.5t-182.5 152t-118 232.5t-42 299z" />
<glyph unicode="H" horiz-adv-x="1380" d="M197 0v1434h94v-643h799v643h94v-1434h-94v705h-799v-705h-94z" />
<glyph unicode="I" horiz-adv-x="509" d="M207 0v1434h94v-1434h-94z" />
<glyph unicode="J" horiz-adv-x="1146" d="M82 276l86 37q49 -121 129 -185.5t217 -64.5q176 0 264 102.5t88 323.5v945h95v-947q0 -262 -115 -386t-336 -124q-166 0 -270.5 76t-157.5 223z" />
<glyph unicode="K" horiz-adv-x="1261" d="M197 0v1434h94v-906l704 906h107l-445 -570l512 -864h-106l-469 784l-303 -387v-397h-94z" />
<glyph unicode="L" horiz-adv-x="1103" d="M197 0v1434h94v-1348h708v-86h-802z" />
<glyph unicode="M" horiz-adv-x="1617" d="M197 0v1434h106l506 -1239l506 1239h104v-1434h-90v1233l-522 -1258h-2l-516 1258v-1233h-92z" />
<glyph unicode="N" horiz-adv-x="1374" d="M197 0v1434h92l796 -1264v1264h91v-1434h-84l-803 1272v-1272h-92z" />
<glyph unicode="O" horiz-adv-x="1462" d="M141 717q0 168 44 304t122 233.5t187.5 149.5t238.5 52t237.5 -52t186.5 -147.5t121 -231.5t43 -304t-44 -305t-122 -234.5t-187.5 -151t-238.5 -53.5t-237.5 52.5t-186.5 149.5t-121 233.5t-43 304.5zM236 721q0 -152 37.5 -273.5t104 -206.5t158 -131.5t197.5 -46.5 t196.5 45.5t157 129.5t103.5 205.5t37 273.5t-38 272.5t-104.5 205.5t-157.5 130t-198 45q-106 0 -196.5 -44t-157 -128t-103 -205t-36.5 -272z" />
<glyph unicode="P" horiz-adv-x="1216" d="M197 0v1434h469q100 0 185 -24t145.5 -73t94 -126.5t33.5 -186.5q0 -211 -130 -319.5t-357 -108.5h-346v-596h-94zM291 682h346q391 0 391 338q0 172 -95 250t-271 78h-371v-666z" />
<glyph unicode="Q" horiz-adv-x="1464" d="M141 715q0 168 44 305t122 234.5t187.5 149.5t238.5 52t237.5 -52t187.5 -148.5t122 -232.5t43 -304q0 -217 -71.5 -379t-194.5 -254l84 -133l-76 -45l-84 131q-55 -29 -117.5 -45.5t-132.5 -16.5q-131 0 -239.5 52.5t-186.5 148.5t-121 232.5t-43 304.5zM236 719 q0 -152 37.5 -273.5t104 -206.5t158 -130.5t197.5 -45.5q113 0 203 50l-131 211l76 47l131 -211q100 80 158.5 219t58.5 336q0 152 -38 273.5t-105.5 206.5t-158.5 130t-198 45q-106 0 -196.5 -45t-157 -129t-103 -205t-36.5 -272z" />
<glyph unicode="R" horiz-adv-x="1275" d="M197 0v1434h479q100 0 184 -21.5t145.5 -69t96.5 -121.5t35 -180q0 -172 -94.5 -268t-260.5 -125l330 -649h-108l-322 637h-391v-637h-94zM291 723h356q195 0 295 75.5t100 241.5t-98 237t-272 71h-381v-625z" />
<glyph unicode="S" horiz-adv-x="1179" d="M119 150l63 69q88 -74 184.5 -115t217.5 -41q74 0 137 18.5t110.5 55.5t74 92.5t26.5 126.5q0 59 -18.5 105.5t-62.5 86.5t-115.5 77t-178.5 75q-117 43 -193.5 83t-123.5 86t-66.5 102.5t-19.5 130.5q0 76 28.5 141.5t84 112.5t135 73.5t180.5 26.5q72 0 130 -10 t108 -27.5t93 -43t86 -56.5l-61 -74q-78 59 -160 92t-203 33q-84 0 -146 -21.5t-102 -58.5t-59.5 -84t-19.5 -98q0 -55 14 -97t54 -79t111 -73t181 -75q119 -45 199 -87t129 -91t69.5 -108.5t20.5 -137.5q0 -88 -32.5 -158.5t-92 -120.5t-141.5 -77t-180 -27 q-141 0 -256 47.5t-205 125.5z" />
<glyph unicode="T" horiz-adv-x="1175" d="M94 1348v86h983v-86h-444v-1348h-94v1348h-445z" />
<glyph unicode="U" horiz-adv-x="1366" d="M186 551v883h95v-881q0 -250 101 -370t306 -120t301 119t96 369v883h95v-881q0 -575 -496 -576q-246 0 -372 141.5t-126 432.5z" />
<glyph unicode="V" horiz-adv-x="1347" d="M127 1434h98l449 -1330l450 1330h97l-494 -1438h-104z" />
<glyph unicode="W" horiz-adv-x="1792" d="M137 1434h94l267 -1311l344 1311h110l344 -1311l269 1311h92l-307 -1438h-111l-344 1304l-344 -1304h-109z" />
<glyph unicode="X" horiz-adv-x="1255" d="M123 0l455 748l-416 686h106l361 -600l362 600h103l-416 -684l455 -750h-107l-399 664l-402 -664h-102z" />
<glyph unicode="Y" horiz-adv-x="1296" d="M113 1434h106l430 -750l430 750h105l-490 -844v-590h-94v588z" />
<glyph unicode="Z" horiz-adv-x="1241" d="M125 0v82l864 1270h-823v82h930v-82l-865 -1270h865v-82h-971z" />
<glyph unicode="[" horiz-adv-x="684" d="M205 -225v1659h346v-74h-258v-1512h258v-73h-346z" />
<glyph unicode="\" horiz-adv-x="847" d="M80 1618h88l602 -1802h-90z" />
<glyph unicode="]" horiz-adv-x="684" d="M133 -152h258v1512h-258v74h346v-1659h-346v73z" />
<glyph unicode="^" horiz-adv-x="1126" d="M117 782l411 652h70l414 -652h-105l-344 553l-346 -553h-100z" />
<glyph unicode="_" horiz-adv-x="1024" d="M0 -197h1024v-75h-1024v75z" />
<glyph unicode="`" horiz-adv-x="1024" d="M299 1520h129l211 -301h-74z" />
<glyph unicode="a" horiz-adv-x="1089" d="M111 309q0 88 32.5 153.5t89 108.5t129 63.5t152.5 20.5q98 0 179 -23.5t138 -56.5v160q0 154 -68.5 220.5t-211.5 66.5q-92 0 -166 -23.5t-143 -60.5l-33 74q72 37 158 61.5t190 24.5q88 0 155.5 -18.5t113.5 -60.5t71 -109.5t25 -164.5v-745h-91v162 q-61 -78 -153 -131.5t-211 -53.5q-66 0 -130.5 16.5t-114.5 55.5t-80.5 102.5t-30.5 157.5zM199 313q0 -72 22.5 -122t61.5 -80.5t90 -45t108 -14.5q115 0 203 56.5t147 144.5v250q-61 35 -138 57.5t-183 22.5q-135 0 -223 -68t-88 -201z" />
<glyph unicode="b" horiz-adv-x="1132" d="M176 0v1442l90 51v-580q59 80 149.5 132.5t205.5 52.5q86 0 158.5 -32t124.5 -98.5t82 -171t30 -247.5q0 -145 -31 -253t-85 -178.5t-129 -105.5t-163 -35q-111 0 -196.5 49.5t-145.5 131.5v-158h-90zM266 258q55 -86 142.5 -143.5t193.5 -57.5q154 0 238 120t84 370 q0 242 -87 356.5t-239 114.5q-102 0 -186 -54.5t-146 -142.5v-563z" />
<glyph unicode="c" horiz-adv-x="1007" d="M117 535q0 147 39 253.5t102.5 175t144 101.5t164.5 33q111 0 189 -34t137 -85l-55 -68q-57 49 -120 78t-157 29q-72 0 -135.5 -31t-111.5 -91t-76.5 -148.5t-28.5 -204.5q0 -117 26.5 -208t74.5 -152.5t112.5 -93.5t140.5 -32q86 0 153.5 30t123.5 83l53 -59 q-63 -61 -144 -97.5t-190 -36.5q-86 0 -166 33t-141.5 101.5t-98 173t-36.5 250.5z" />
<glyph unicode="d" horiz-adv-x="1132" d="M117 526q0 145 30.5 253t85 178.5t129 105.5t162.5 35q111 0 197 -49.5t145 -130.5v524l90 51v-1493h-90v162q-59 -80 -148 -132.5t-204 -52.5q-86 0 -158.5 32t-126 98.5t-83 170t-29.5 248.5zM209 528q0 -242 87 -356.5t241 -114.5q100 0 184 54.5t145 142.5v563 q-53 86 -140 143.5t-194 57.5q-156 0 -239.5 -120t-83.5 -370z" />
<glyph unicode="e" horiz-adv-x="1101" d="M117 541q0 131 33.5 234.5t92 175t137.5 109.5t171 38q98 0 177 -38t134.5 -107.5t85 -169t29.5 -222.5q0 -16 -1 -27.5t-3 -21.5h-766q6 -217 102.5 -336t245.5 -119q104 0 176 24.5t146 72.5l41 -66q-86 -53 -169 -82t-204 -29q-80 0 -157 33t-137.5 101.5t-97 175 t-36.5 254.5zM207 586h684q-6 205 -96 318.5t-244 113.5q-72 0 -132.5 -27.5t-106.5 -82t-73.5 -135.5t-31.5 -187z" />
<glyph unicode="f" horiz-adv-x="700" d="M96 999v76h160v158q0 139 65.5 195.5t163.5 56.5q47 0 80 -6t56 -15l-3 -86q-23 10 -54.5 17.5t-71.5 7.5q-59 0 -102.5 -34t-43.5 -128v-166h250v-76h-250v-999h-90v999h-160z" />
<glyph unicode="g" horiz-adv-x="1132" d="M117 526q0 145 30.5 253t85 178.5t129 105.5t162.5 35q111 0 197 -49.5t145 -130.5v157h90v-979q0 -125 -28.5 -217t-93 -153.5t-169 -92t-255.5 -34.5l-31 75q139 4 233.5 28t150.5 73t79.5 125.5t23.5 185.5v76q-59 -80 -148 -132.5t-204 -52.5q-86 0 -158.5 32 t-126 98.5t-83 170t-29.5 248.5zM209 528q0 -242 87 -356.5t241 -114.5q100 0 184 54.5t145 142.5v563q-53 86 -140 143.5t-194 57.5q-156 0 -239.5 -120t-83.5 -370z" />
<glyph unicode="h" horiz-adv-x="1157" d="M176 0v1442l90 51v-600q41 98 130 151.5t212 53.5q86 0 156 -24.5t120 -78t77.5 -136.5t27.5 -200v-659h-90v643q0 197 -82 286t-227 89q-59 0 -116.5 -19.5t-103.5 -62.5t-75 -114.5t-29 -176.5v-645h-90z" />
<glyph unicode="i" horiz-adv-x="462" d="M166 1376q0 29 19.5 47.5t47.5 18.5q25 0 44.5 -18.5t19.5 -47.5q0 -27 -19.5 -46t-44.5 -19q-29 0 -48 19.5t-19 45.5zM186 0v1075h90v-1075h-90z" />
<glyph unicode="j" horiz-adv-x="462" d="M-20 -322q63 18 104 42t63.5 60t30.5 88t8 130v1077h90v-1079q0 -88 -11 -152.5t-40.5 -110.5t-81 -78t-129.5 -54zM166 1376q0 29 19.5 47.5t47.5 18.5q25 0 44.5 -18.5t19.5 -47.5q0 -27 -19.5 -46t-44.5 -19q-29 0 -48 19.5t-19 45.5z" />
<glyph unicode="k" horiz-adv-x="1011" d="M176 0v1442l90 51v-1071l486 653h100l-305 -403l377 -672h-99l-336 596l-223 -295v-301h-90z" />
<glyph unicode="l" horiz-adv-x="462" d="M186 0v1442l90 51v-1493h-90z" />
<glyph unicode="m" horiz-adv-x="1796" d="M176 0v1075h90v-182q39 100 124 152.5t200 52.5q137 0 220 -70t112 -174q39 117 130 180.5t226 63.5q82 0 149.5 -24.5t115.5 -78t75 -136.5t27 -200v-659h-91v643q0 203 -79.5 289t-212.5 86q-57 0 -111.5 -18.5t-97.5 -62.5t-70 -115.5t-27 -176.5v-645h-90v645 q0 100 -21.5 172t-60.5 116t-93 64.5t-120 20.5q-57 0 -111 -18.5t-97.5 -62.5t-70 -115.5t-26.5 -176.5v-645h-90z" />
<glyph unicode="n" horiz-adv-x="1157" d="M176 0v1075h90v-182q41 98 130 151.5t212 53.5q86 0 156 -24.5t120 -78t77.5 -136.5t27.5 -200v-659h-90v643q0 197 -82 286t-227 89q-59 0 -116.5 -19.5t-103.5 -62.5t-75 -114.5t-29 -176.5v-645h-90z" />
<glyph unicode="o" horiz-adv-x="1161" d="M117 537q0 135 36.5 240.5t99 176t147.5 107.5t184 37q96 0 180 -36t146.5 -106.5t98 -174t35.5 -238.5t-36.5 -240.5t-99 -178.5t-147.5 -110t-183 -37q-96 0 -180.5 37t-147 108t-98 175t-35.5 240zM209 541q0 -119 27.5 -209t78 -151.5t118 -92.5t147.5 -31t148.5 31 t118.5 92.5t77.5 151.5t27.5 209q0 117 -27.5 207t-77.5 149t-119 90t-148 31q-80 0 -147.5 -31t-118 -90t-78 -149.5t-27.5 -206.5z" />
<glyph unicode="p" horiz-adv-x="1132" d="M176 -389v1464h90v-162q59 80 149.5 132.5t205.5 52.5q86 0 158.5 -32t124.5 -98.5t82 -171t30 -247.5q0 -145 -31 -253t-85 -178.5t-129 -105.5t-163 -35q-111 0 -196.5 49.5t-145.5 131.5v-496zM266 258q55 -86 142.5 -143.5t193.5 -57.5q154 0 238 120t84 370 q0 242 -87 356.5t-239 114.5q-102 0 -186 -54.5t-146 -142.5v-563z" />
<glyph unicode="q" horiz-adv-x="1132" d="M117 526q0 145 30.5 253t85 178.5t129 105.5t162.5 35q111 0 197 -49.5t145 -130.5v157h90v-1413l-90 -51v551q-59 -80 -148 -132.5t-204 -52.5q-86 0 -158.5 32t-126 98.5t-83 170t-29.5 248.5zM209 528q0 -242 87 -356.5t241 -114.5q100 0 184 54.5t145 142.5v563 q-53 86 -140 143.5t-194 57.5q-156 0 -239.5 -120t-83.5 -370z" />
<glyph unicode="r" horiz-adv-x="811" d="M176 0v1075h90v-194q14 51 45 91t72 67.5t88 43t96 15.5q113 0 170 -29l-22 -88q-35 16 -74 24.5t-92 8.5t-103.5 -20.5t-90.5 -65.5t-64.5 -114t-24.5 -167v-647h-90z" />
<glyph unicode="s" horiz-adv-x="919" d="M100 102l50 66q63 -53 135.5 -83t163.5 -30q125 0 192.5 54.5t67.5 152.5q0 41 -13.5 75t-45.5 63.5t-84 58t-132 63.5q-84 35 -141 67t-93 66.5t-52.5 78.5t-16.5 106q0 55 22.5 102t64.5 82t99.5 54.5t126.5 19.5q113 0 194 -31t134 -76l-51 -65q-55 43 -119.5 68.5 t-161.5 25.5q-104 0 -162.5 -51t-58.5 -123q0 -43 12.5 -76t43 -60.5t81 -54t125.5 -59.5q80 -35 138.5 -65.5t97.5 -68.5t58.5 -85t19.5 -113q0 -72 -27 -125t-74 -89t-110.5 -54.5t-137.5 -18.5q-106 0 -187 33t-159 92z" />
<glyph unicode="t" horiz-adv-x="712" d="M74 999v76h139v367l90 51v-418h285v-76h-285v-794q0 -72 29.5 -107t95.5 -35q47 0 86 9.5t78 27.5l-4 -80q-41 -18 -87 -28t-106 -10q-90 0 -136 50t-46 158v809h-139z" />
<glyph unicode="u" horiz-adv-x="1157" d="M168 416v659h90v-643q0 -197 82 -286t227 -89q59 0 116.5 19.5t104 62.5t75 115t28.5 176v645h90v-1075h-90v182q-35 -100 -126 -152.5t-214 -52.5q-86 0 -156.5 25t-121 78t-78 136t-27.5 200z" />
<glyph unicode="v" horiz-adv-x="1042" d="M88 1075h98l336 -971l338 971h94l-393 -1077h-80z" />
<glyph unicode="w" d="M98 1075h95l233 -938l272 940h82l273 -940l233 938h90l-284 -1077h-84l-271 940l-272 -940h-82z" />
<glyph unicode="x" horiz-adv-x="1007" d="M113 0l344 561l-314 514h101l262 -436l262 436h96l-313 -510l344 -565h-102l-291 487l-293 -487h-96z" />
<glyph unicode="y" horiz-adv-x="1052" d="M88 1075h96l342 -966l342 966h97l-539 -1454h-90l143 385z" />
<glyph unicode="z" horiz-adv-x="1005" d="M117 0v68l647 931h-590v76h692v-67l-645 -932h645v-76h-749z" />
<glyph unicode="{" horiz-adv-x="772" d="M111 563v86h59q72 0 100.5 39t28.5 107v243q0 209 89 300.5t274 101.5v-76q-70 -8 -121.5 -27.5t-85 -56.5t-50 -93.5t-16.5 -137.5v-222q0 -92 -26.5 -145t-92.5 -78q66 -23 92.5 -76t26.5 -145v-215q0 -82 16.5 -138.5t50 -93t85 -56t121.5 -27.5v-78 q-182 10 -272.5 103t-90.5 300v240q0 68 -28.5 106.5t-100.5 38.5h-59z" />
<glyph unicode="|" horiz-adv-x="595" d="M254 -379v2017h88v-2017h-88z" />
<glyph unicode="}" horiz-adv-x="772" d="M111 -147q70 8 121 27.5t84.5 56t50 93t16.5 138.5v221q0 92 26.5 145.5t92.5 75.5q-66 25 -92.5 78t-26.5 146v215q0 82 -16.5 138t-50 93t-85 56.5t-120.5 27.5v76q184 -10 273 -101.5t89 -300.5v-239q0 -70 28.5 -109t100.5 -39h57v-84h-57q-72 0 -100.5 -39 t-28.5 -108v-242q0 -207 -90 -300t-272 -103v78z" />
<glyph unicode="~" horiz-adv-x="1101" d="M117 674q47 106 103 156.5t147 50.5q53 0 97 -18.5t93 -53.5q53 -37 95 -57.5t85 -20.5q55 0 91 34t77 118l80 -37q-47 -106 -103.5 -156.5t-144.5 -50.5q-57 0 -101 19.5t-91 52.5q-55 39 -97 58t-81 19q-57 0 -94 -35.5t-76 -115.5z" />
<glyph unicode="&#xa1;" horiz-adv-x="499" d="M172 1370q0 31 23.5 53.5t52.5 22.5q31 0 53.5 -22.5t22.5 -53.5t-22.5 -54.5t-53.5 -23.5q-29 0 -52.5 23.5t-23.5 54.5zM203 0v674l20 426h51l21 -426v-674h-92z" />
<glyph unicode="&#xa2;" horiz-adv-x="1007" d="M117 727q0 133 32.5 233.5t88 170t127 107.5t147.5 48v180h92v-178q98 -6 167 -37.5t122 -79.5l-53 -65q-59 51 -122 77.5t-157 26.5q-72 0 -135.5 -30.5t-111.5 -91t-76.5 -148.5t-28.5 -205t26.5 -208t74.5 -152.5t112.5 -93t140.5 -31.5q86 0 153.5 28.5t123.5 81.5 l53 -57q-55 -53 -127 -88t-162 -41v-197h-92v197q-78 8 -149.5 46t-126 106.5t-87 168t-32.5 232.5z" />
<glyph unicode="&#xa3;" horiz-adv-x="1191" d="M162 0v84q117 121 170 229.5t53 231.5q0 47 -8 82h-215v84h190q-18 47 -40.5 92t-43 91t-35 97t-14.5 113q0 82 32 147.5t88 111.5t135 69.5t173 23.5q121 0 219.5 -40t186.5 -111l-58 -70q-76 66 -161.5 101.5t-188.5 35.5q-164 0 -249 -75.5t-85 -190.5 q0 -57 15.5 -105.5t37 -94.5t45 -93t40.5 -102h333v-84h-313q6 -41 6 -84q0 -117 -50 -235t-149 -222h803v-86h-917z" />
<glyph unicode="&#xa5;" horiz-adv-x="1249" d="M100 1434h109l418 -756l417 756h105l-477 -844v-205h303v-84h-303v-301h-94v301h-314v84h314v203z" />
<glyph unicode="&#xa6;" d="M51 711l305 233q8 4 13.5 1t1.5 -13l-142 -180h469v534l-180 -143q-8 -4 -12 2t2 12l231 307l234 -307q4 -6 1 -12t-13 -2l-181 143v-534h465l-141 180q-4 10 1 13t13 -1l305 -233l-305 -232q-8 -6 -13 -2t-1 12l141 181h-465v-523l181 144q10 4 13 -2t-1 -13l-234 -307 l-231 307q-6 6 -2 12.5t12 2.5l180 -144v523h-469l142 -181q4 -8 -1 -12t-14 2z" />
<glyph unicode="&#xa7;" horiz-adv-x="1247" d="M119 578q0 66 23.5 120t64.5 98t98 77.5t123 58.5q-92 47 -130 103.5t-38 133.5q0 129 99.5 208t267.5 79q117 0 205 -32.5t165 -92.5l-49 -71q-78 59 -153.5 85.5t-182.5 26.5q-121 0 -190.5 -54t-69.5 -140q0 -43 15.5 -79t53.5 -65.5t101.5 -56.5t159.5 -53 q129 -37 214 -74t137 -81t73.5 -99t21.5 -127q0 -66 -23.5 -120t-65.5 -98t-98 -78t-122 -59q92 -47 130 -103t38 -134q0 -129 -99.5 -208t-266.5 -79q-117 0 -209.5 35t-161.5 88l49 74q78 -57 153.5 -85t182.5 -28q121 0 190.5 54.5t69.5 140.5q0 43 -15.5 78.5 t-53.5 65.5t-101 56.5t-160 53.5q-129 37 -214 73.5t-137 80.5t-73.5 99.5t-21.5 127.5zM213 584q0 -53 15.5 -94t55.5 -77t110.5 -67t178.5 -61q47 -12 88 -25.5t78 -28.5q135 43 215 120t80 186q0 51 -15 93t-56 77.5t-111 66.5t-180 62q-45 12 -86 25t-78 28 q-135 -43 -215 -120t-80 -185z" />
<glyph unicode="&#xa8;" horiz-adv-x="1024" d="M246 1350q0 29 20.5 49t48.5 20q27 0 46.5 -20t19.5 -49t-19.5 -48.5t-46.5 -19.5q-29 0 -49 19.5t-20 48.5zM643 1350q0 29 19.5 49t48.5 20t48 -20t19 -49t-19.5 -48.5t-47.5 -19.5q-29 0 -48.5 19.5t-19.5 48.5z" />
<glyph unicode="&#xa9;" horiz-adv-x="1712" d="M117 717q0 162 56 298t154.5 234.5t233.5 152.5t295 54t295 -54t233.5 -152.5t154.5 -234.5t56 -298q0 -164 -56 -299t-154.5 -233.5t-233.5 -153t-295 -54.5t-295 54.5t-233.5 153t-154.5 233.5t-56 299zM178 717q0 -150 51.5 -275t141.5 -216t215 -141t270 -50t269 50 t215.5 141t142.5 216t51 275t-51 274.5t-142.5 215.5t-215.5 141.5t-269 50.5t-270 -50.5t-215 -141.5t-141.5 -216t-51.5 -274zM514 717q0 96 25.5 176t71.5 137t108.5 89t138.5 32q82 0 140.5 -26.5t103.5 -80.5l-49 -43q-41 47 -85 68t-110 21q-61 0 -112.5 -27t-88 -75 t-57 -116.5t-20.5 -152.5t20.5 -152.5t57 -118t88 -77t112.5 -27.5q121 0 207 100l45 -45q-100 -117 -254 -116q-76 0 -139.5 31.5t-108.5 89t-69.5 137.5t-24.5 176z" />
<glyph unicode="&#xaa;" horiz-adv-x="935" d="M117 825q0 72 26.5 125.5t71.5 88t104.5 51t124.5 16.5q78 0 140.5 -18.5t107.5 -43.5v121q0 117 -53 169t-166 52q-133 0 -248 -65l-30 63q59 33 128.5 52.5t155.5 19.5q141 0 218 -63.5t77 -218.5v-596h-82v120q-47 -61 -120.5 -100t-165.5 -39q-53 0 -104.5 13.5 t-92.5 44t-66.5 82t-25.5 126.5zM199 831q0 -55 17 -94t48 -62.5t71 -34.5t83 -11q90 0 159.5 43t114.5 110v195q-47 27 -107.5 44t-144.5 17q-104 0 -172.5 -52t-68.5 -155z" />
<glyph unicode="&#xab;" horiz-adv-x="1138" d="M74 537l415 538h103l-416 -536l416 -539h-103zM510 537l416 538h102l-416 -536l416 -539h-102z" />
<glyph unicode="&#xac;" horiz-adv-x="1255" d="M125 668v86h866l-141 174q-4 6 3 11t15 1l318 -229l-318 -228q-8 -6 -15 -1t-3 12l141 174h-866z" />
<glyph unicode="&#xad;" horiz-adv-x="649" d="M104 702v89h439v-89h-439z" />
<glyph unicode="&#xae;" horiz-adv-x="1712" d="M117 717q0 162 56 298t154.5 234.5t233.5 152.5t295 54t295 -54t233.5 -152.5t154.5 -234.5t56 -298q0 -164 -56 -299t-154.5 -233.5t-233.5 -153t-295 -54.5t-295 54.5t-233.5 153t-154.5 233.5t-56 299zM178 717q0 -150 51.5 -275t141.5 -216t215 -141t270 -50t269 50 t215.5 141t142.5 216t51 275t-51 274.5t-142.5 215.5t-215.5 141.5t-269 50.5t-270 -50.5t-215 -141.5t-141.5 -216t-51.5 -274zM608 311v836h281q59 0 109.5 -12.5t87 -40t57 -71.5t20.5 -105q0 -98 -53 -157t-147 -75l192 -375h-76l-190 369q-6 0 -14.5 -1t-18.5 -1h-184 v-367h-64zM672 739h200q111 0 168.5 42.5t57.5 136.5t-56.5 131.5t-154.5 37.5h-215v-348z" />
<glyph unicode="&#xaf;" horiz-adv-x="1024" d="M233 1286v84h558v-84h-558z" />
<glyph unicode="&#xb0;" horiz-adv-x="940" d="M119 1098q0 76 26.5 141.5t72.5 113.5t110.5 75.5t140.5 27.5t140.5 -27.5t111.5 -75.5t72.5 -113.5t25.5 -141.5q0 -78 -25.5 -143.5t-72.5 -113.5t-111.5 -76t-140.5 -28t-140.5 28t-110.5 76t-72.5 113.5t-26.5 143.5zM201 1098q0 -125 74.5 -205t193.5 -80 q123 0 196.5 80t73.5 205q0 61 -19.5 112.5t-55 89t-85 59t-110.5 21.5q-59 0 -108.5 -21.5t-85 -59t-55 -89t-19.5 -112.5z" />
<glyph unicode="&#xb1;" d="M51 711l305 233q8 4 13.5 1t1.5 -13l-142 -180h469v534l-180 -143q-8 -4 -12 2t2 12l231 307l234 -307q4 -6 1 -12t-13 -2l-181 143v-534h465l-141 180q-4 10 1 13t13 -1l305 -233l-305 -232q-8 -6 -13 -2t-1 12l141 181h-465v-523l181 144q10 4 13 -2t-1 -13l-234 -307 l-231 307q-6 6 -2 12.5t12 2.5l180 -144v523h-469l142 -181q4 -8 -1 -12t-14 2z" />
<glyph unicode="&#xb2;" d="M51 711l305 233q8 4 13.5 1t1.5 -13l-142 -180h469v534l-180 -143q-8 -4 -12 2t2 12l231 307l234 -307q4 -6 1 -12t-13 -2l-181 143v-534h465l-141 180q-4 10 1 13t13 -1l305 -233l-305 -232q-8 -6 -13 -2t-1 12l141 181h-465v-523l181 144q10 4 13 -2t-1 -13l-234 -307 l-231 307q-6 6 -2 12.5t12 2.5l180 -144v523h-469l142 -181q4 -8 -1 -12t-14 2z" />
<glyph unicode="&#xb3;" d="M51 711l305 233q8 4 13.5 1t1.5 -13l-142 -180h469v534l-180 -143q-8 -4 -12 2t2 12l231 307l234 -307q4 -6 1 -12t-13 -2l-181 143v-534h465l-141 180q-4 10 1 13t13 -1l305 -233l-305 -232q-8 -6 -13 -2t-1 12l141 181h-465v-523l181 144q10 4 13 -2t-1 -13l-234 -307 l-231 307q-6 6 -2 12.5t12 2.5l180 -144v523h-469l142 -181q4 -8 -1 -12t-14 2z" />
<glyph unicode="&#xb4;" horiz-adv-x="1024" d="M385 1219l211 301h129l-266 -301h-74z" />
<glyph unicode="&#xb5;" horiz-adv-x="1523" d="M51 711l318 229q8 4 15 -1t3 -11l-143 -174h1036l-143 174q-4 6 4 11t14 1l318 -229l-318 -228q-6 -6 -14 -1t-4 12l143 174h-1036l143 -174q4 -6 -3 -11.5t-15 0.5z" />
<glyph unicode="&#xb6;" horiz-adv-x="1345" d="M98 989q0 106 37 189.5t102.5 140.5t153.5 86t191 29h561v-1813h-92v1731h-234v-1731h-94v916h-143q-109 0 -198 31.5t-151.5 90t-97.5 142.5t-35 188zM193 993q0 -168 95 -271.5t302 -103.5h133v734h-131q-186 0 -292.5 -90.5t-106.5 -268.5z" />
<glyph unicode="&#xb7;" horiz-adv-x="432" d="M137 772q0 33 22.5 57.5t55.5 24.5q31 0 54.5 -24.5t23.5 -57.5t-23.5 -55.5t-54.5 -22.5q-33 0 -55.5 22.5t-22.5 55.5z" />
<glyph unicode="&#xb8;" horiz-adv-x="1024" d="M299 -297l29 43q41 -29 91 -43t101 -14q72 0 108 28.5t36 73.5q0 39 -24 59.5t-60 20.5q-63 0 -107 -43l-53 18l61 154h64l-41 -102q39 25 104 24q43 0 85 -31.5t42 -97.5q0 -43 -17.5 -72.5t-47 -48t-69.5 -26.5t-85 -8q-117 0 -217 65z" />
<glyph unicode="&#xb9;" d="M51 711l305 233q8 4 13.5 1t1.5 -13l-142 -180h469v534l-180 -143q-8 -4 -12 2t2 12l231 307l234 -307q4 -6 1 -12t-13 -2l-181 143v-534h465l-141 180q-4 10 1 13t13 -1l305 -233l-305 -232q-8 -6 -13 -2t-1 12l141 181h-465v-523l181 144q10 4 13 -2t-1 -13l-234 -307 l-231 307q-6 6 -2 12.5t12 2.5l180 -144v523h-469l142 -181q4 -8 -1 -12t-14 2z" />
<glyph unicode="&#xba;" horiz-adv-x="987" d="M119 1008q0 109 29.5 192.5t80 140t119 86t148.5 29.5q78 0 146.5 -28.5t118.5 -85t78.5 -139t28.5 -191.5t-29.5 -193t-79.5 -141t-119 -87t-148 -30q-80 0 -148 28.5t-118 86t-78.5 140.5t-28.5 192zM201 1010q0 -184 83 -280.5t210 -96.5t209.5 96.5t82.5 280.5 t-82.5 278t-209.5 94t-210 -94t-83 -278z" />
<glyph unicode="&#xbb;" horiz-adv-x="1138" d="M111 0l415 539l-415 536h102l416 -538l-416 -537h-102zM547 0l416 539l-416 536h102l416 -538l-416 -537h-102z" />
<glyph unicode="&#xbc;" d="M51 711l305 233q8 4 13.5 1t1.5 -13l-142 -180h469v534l-180 -143q-8 -4 -12 2t2 12l231 307l234 -307q4 -6 1 -12t-13 -2l-181 143v-534h465l-141 180q-4 10 1 13t13 -1l305 -233l-305 -232q-8 -6 -13 -2t-1 12l141 181h-465v-523l181 144q10 4 13 -2t-1 -13l-234 -307 l-231 307q-6 6 -2 12.5t12 2.5l180 -144v523h-469l142 -181q4 -8 -1 -12t-14 2z" />
<glyph unicode="&#xbd;" d="M51 711l305 233q8 4 13.5 1t1.5 -13l-142 -180h469v534l-180 -143q-8 -4 -12 2t2 12l231 307l234 -307q4 -6 1 -12t-13 -2l-181 143v-534h465l-141 180q-4 10 1 13t13 -1l305 -233l-305 -232q-8 -6 -13 -2t-1 12l141 181h-465v-523l181 144q10 4 13 -2t-1 -13l-234 -307 l-231 307q-6 6 -2 12.5t12 2.5l180 -144v523h-469l142 -181q4 -8 -1 -12t-14 2z" />
<glyph unicode="&#xbe;" d="M51 711l305 233q8 4 13.5 1t1.5 -13l-142 -180h469v534l-180 -143q-8 -4 -12 2t2 12l231 307l234 -307q4 -6 1 -12t-13 -2l-181 143v-534h465l-141 180q-4 10 1 13t13 -1l305 -233l-305 -232q-8 -6 -13 -2t-1 12l141 181h-465v-523l181 144q10 4 13 -2t-1 -13l-234 -307 l-231 307q-6 6 -2 12.5t12 2.5l180 -144v523h-469l142 -181q4 -8 -1 -12t-14 2z" />
<glyph unicode="&#xbf;" horiz-adv-x="1140" d="M162 315q0 70 15.5 120t46 92t77.5 81t109 86q53 39 85.5 73t51 77t25 103.5t6.5 152.5h94q0 -106 -8.5 -175t-32 -119t-65.5 -91t-111 -90q-53 -39 -91 -72t-61.5 -66.5t-35 -73.5t-11.5 -91q0 -117 88 -188t236 -71q125 0 218 41t173 109l53 -68q-80 -72 -188.5 -120 t-260.5 -48q-92 0 -167.5 23t-131 66t-85 106t-29.5 143zM549 1370q0 31 23.5 53.5t52.5 22.5q31 0 53 -22.5t22 -53.5t-22.5 -54.5t-52.5 -23.5q-29 0 -52.5 23.5t-23.5 54.5z" />
<glyph unicode="&#xc0;" horiz-adv-x="1359" d="M127 0l502 1438h102l502 -1438h-98l-138 395h-637l-137 -395h-96zM379 1827h129l211 -301h-74zM389 481h580l-289 842z" />
<glyph unicode="&#xc1;" horiz-adv-x="1359" d="M127 0l502 1438h102l502 -1438h-98l-138 395h-637l-137 -395h-96zM389 481h580l-289 842zM641 1526l211 301h129l-266 -301h-74z" />
<glyph unicode="&#xc2;" horiz-adv-x="1359" d="M127 0l502 1438h102l502 -1438h-98l-138 395h-637l-137 -395h-96zM363 1485l266 301h102l266 -301h-79l-240 231l-238 -231h-77zM389 481h580l-289 842z" />
<glyph unicode="&#xc3;" horiz-adv-x="1359" d="M127 0l502 1438h102l502 -1438h-98l-138 395h-637l-137 -395h-96zM340 1534q4 111 56.5 163t125.5 52q43 0 80 -16.5t74 -44.5q57 -43 89 -62.5t69 -19.5q88 0 108 139h74q-4 -111 -56.5 -163t-125.5 -52q-43 0 -80 16.5t-74 44.5q-59 43 -89 62.5t-69 19.5 q-41 0 -69.5 -31.5t-38.5 -107.5h-74zM389 481h580l-289 842z" />
<glyph unicode="&#xc4;" horiz-adv-x="1359" d="M127 0l502 1438h102l502 -1438h-98l-138 395h-637l-137 -395h-96zM389 481h580l-289 842zM416 1653q0 29 20.5 49t48.5 20q27 0 46.5 -20t19.5 -49t-19.5 -48.5t-46.5 -19.5q-29 0 -49 19.5t-20 48.5zM813 1653q0 29 19.5 49t48.5 20t48 -20t19 -49t-19.5 -48.5 t-47.5 -19.5q-29 0 -48.5 19.5t-19.5 48.5z" />
<glyph unicode="&#xc5;" horiz-adv-x="1359" d="M127 0l483 1380q-57 20 -94 70.5t-37 116.5q0 41 15.5 77.5t42 63.5t63.5 42t80 15q86 0 142.5 -57t56.5 -141q0 -66 -37 -116t-94 -69l485 -1382h-98l-138 395h-637l-137 -395h-96zM389 481h580l-289 842zM537 1567q0 -63 39.5 -103.5t103.5 -40.5q61 0 101 40.5 t40 103.5q0 59 -40 100t-101 41q-63 0 -103 -41t-40 -100z" />
<glyph unicode="&#xc6;" horiz-adv-x="1974" d="M53 0l971 1434h821v-86h-721v-541h437v-86h-437v-635h752v-86h-842v395h-608l-264 -395h-109zM481 481h553v824z" />
<glyph unicode="&#xc7;" horiz-adv-x="1267" d="M141 715q0 166 43 302t120 233.5t183.5 151.5t235.5 54q135 0 233.5 -45t173.5 -137l-63 -66q-70 84 -149.5 123t-196.5 39q-106 0 -195.5 -47t-154 -132t-100 -205t-35.5 -267t36.5 -268t101 -207t153.5 -133.5t194 -47.5q111 0 198 43.5t164 131.5l62 -64 q-78 -92 -185.5 -144.5t-240.5 -52.5h-4l-33 -79q39 25 104 24q43 0 85 -31.5t42 -97.5q0 -43 -17 -72.5t-47 -48t-70 -26.5t-85 -8q-117 0 -217 65l29 43q41 -29 91 -43t101 -14q72 0 108 28.5t36 73.5q0 39 -23.5 59.5t-60.5 20.5q-63 0 -107 -43l-53 18l53 136 q-115 14 -209 73.5t-160.5 154.5t-103.5 224t-37 281z" />
<glyph unicode="&#xc8;" horiz-adv-x="1136" d="M197 0v1434h811v-86h-717v-541h434v-86h-434v-635h747v-86h-841zM334 1827h129l211 -301h-74z" />
<glyph unicode="&#xc9;" horiz-adv-x="1136" d="M197 0v1434h811v-86h-717v-541h434v-86h-434v-635h747v-86h-841zM524 1526l211 301h129l-266 -301h-74z" />
<glyph unicode="&#xca;" horiz-adv-x="1136" d="M197 0v1434h811v-86h-717v-541h434v-86h-434v-635h747v-86h-841zM283 1526l266 301h102l267 -301h-80l-240 231l-238 -231h-77z" />
<glyph unicode="&#xcb;" horiz-adv-x="1136" d="M197 0v1434h811v-86h-717v-541h434v-86h-434v-635h747v-86h-841zM338 1657q0 29 20.5 49t48.5 20q27 0 46.5 -20t19.5 -49t-19.5 -48.5t-46.5 -19.5q-29 0 -49 19.5t-20 48.5zM735 1657q0 29 19.5 49t48.5 20t48 -20t19 -49t-19.5 -48.5t-47.5 -19.5q-29 0 -48.5 19.5 t-19.5 48.5z" />
<glyph unicode="&#xcc;" horiz-adv-x="509" d="M-43 1827h129l211 -301h-74zM207 0v1434h94v-1434h-94z" />
<glyph unicode="&#xcd;" horiz-adv-x="509" d="M207 0v1434h94v-1434h-94zM215 1526l211 301h129l-266 -301h-74z" />
<glyph unicode="&#xce;" horiz-adv-x="509" d="M-66 1503l267 301h102l266 -301h-80l-239 232l-238 -232h-78zM207 0v1434h94v-1434h-94z" />
<glyph unicode="&#xcf;" horiz-adv-x="509" d="M-10 1657q0 29 20.5 49t48.5 20q27 0 46.5 -20t19.5 -49t-19.5 -48.5t-46.5 -19.5q-29 0 -49 19.5t-20 48.5zM207 0v1434h94v-1434h-94zM387 1657q0 29 19.5 49t48.5 20t48 -20t19 -49t-19.5 -48.5t-47.5 -19.5q-29 0 -48.5 19.5t-19.5 48.5z" />
<glyph unicode="&#xd0;" horiz-adv-x="1390" d="M82 705v86h135v643h373q145 0 264 -42t203 -129t130 -221.5t46 -318.5q0 -193 -48 -330t-135 -224t-208 -128t-269 -41h-356v705h-135zM309 86h277q131 0 233.5 36t173 112.5t108.5 196.5t38 288q0 317 -141.5 473t-415.5 156h-273v-557h312v-86h-312v-619z" />
<glyph unicode="&#xd1;" horiz-adv-x="1374" d="M197 0v1434h92l796 -1264v1264h91v-1434h-84l-803 1272v-1272h-92zM358 1534q4 111 56.5 163t125.5 52q43 0 80 -16.5t74 -45.5q57 -43 89 -62.5t69 -19.5q88 0 108 140h74q-4 -111 -56.5 -163t-125.5 -52q-43 0 -80 16t-74 45q-59 43 -89 62.5t-69 19.5 q-41 0 -69.5 -31.5t-38.5 -107.5h-74z" />
<glyph unicode="&#xd2;" horiz-adv-x="1462" d="M141 717q0 168 44 304t122 233.5t187.5 149.5t238.5 52t237.5 -52t186.5 -147.5t121 -231.5t43 -304t-44 -305t-122 -234.5t-187.5 -151t-238.5 -53.5t-237.5 52.5t-186.5 149.5t-121 233.5t-43 304.5zM236 721q0 -152 37.5 -273.5t104 -206.5t158 -131.5t197.5 -46.5 t196.5 45.5t157 129.5t103.5 205.5t37 273.5t-38 272.5t-104.5 205.5t-157.5 130t-198 45q-106 0 -196.5 -44t-157 -128t-103 -205t-36.5 -272zM442 1827h129l211 -301h-74z" />
<glyph unicode="&#xd3;" horiz-adv-x="1462" d="M141 717q0 168 44 304t122 233.5t187.5 149.5t238.5 52t237.5 -52t186.5 -147.5t121 -231.5t43 -304t-44 -305t-122 -234.5t-187.5 -151t-238.5 -53.5t-237.5 52.5t-186.5 149.5t-121 233.5t-43 304.5zM236 721q0 -152 37.5 -273.5t104 -206.5t158 -131.5t197.5 -46.5 t196.5 45.5t157 129.5t103.5 205.5t37 273.5t-38 272.5t-104.5 205.5t-157.5 130t-198 45q-106 0 -196.5 -44t-157 -128t-103 -205t-36.5 -272zM668 1526l211 301h129l-266 -301h-74z" />
<glyph unicode="&#xd4;" horiz-adv-x="1462" d="M141 717q0 168 44 304t122 233.5t187.5 149.5t238.5 52t237.5 -52t186.5 -147.5t121 -231.5t43 -304t-44 -305t-122 -234.5t-187.5 -151t-238.5 -53.5t-237.5 52.5t-186.5 149.5t-121 233.5t-43 304.5zM236 721q0 -152 37.5 -273.5t104 -206.5t158 -131.5t197.5 -46.5 t196.5 45.5t157 129.5t103.5 205.5t37 273.5t-38 272.5t-104.5 205.5t-157.5 130t-198 45q-106 0 -196.5 -44t-157 -128t-103 -205t-36.5 -272zM412 1520l266 301h102l267 -301h-80l-240 231l-238 -231h-77z" />
<glyph unicode="&#xd5;" horiz-adv-x="1462" d="M141 717q0 168 44 304t122 233.5t187.5 149.5t238.5 52t237.5 -52t186.5 -147.5t121 -231.5t43 -304t-44 -305t-122 -234.5t-187.5 -151t-238.5 -53.5t-237.5 52.5t-186.5 149.5t-121 233.5t-43 304.5zM236 721q0 -152 37.5 -273.5t104 -206.5t158 -131.5t197.5 -46.5 t196.5 45.5t157 129.5t103.5 205.5t37 273.5t-38 272.5t-104.5 205.5t-157.5 130t-198 45q-106 0 -196.5 -44t-157 -128t-103 -205t-36.5 -272zM387 1534q4 111 56.5 163t125.5 52q43 0 80 -16.5t74 -45.5q57 -43 89 -62.5t69 -19.5q88 0 108 140h74q-4 -111 -56.5 -163 t-125.5 -52q-43 0 -80 16t-74 45q-59 43 -89 62.5t-69 19.5q-41 0 -69.5 -31.5t-38.5 -107.5h-74z" />
<glyph unicode="&#xd6;" horiz-adv-x="1462" d="M141 717q0 168 44 304t122 233.5t187.5 149.5t238.5 52t237.5 -52t186.5 -147.5t121 -231.5t43 -304t-44 -305t-122 -234.5t-187.5 -151t-238.5 -53.5t-237.5 52.5t-186.5 149.5t-121 233.5t-43 304.5zM236 721q0 -152 37.5 -273.5t104 -206.5t158 -131.5t197.5 -46.5 t196.5 45.5t157 129.5t103.5 205.5t37 273.5t-38 272.5t-104.5 205.5t-157.5 130t-198 45q-106 0 -196.5 -44t-157 -128t-103 -205t-36.5 -272zM463 1657q0 29 20.5 49t48.5 20q27 0 46.5 -20t19.5 -49t-19.5 -48.5t-46.5 -19.5q-29 0 -49 19.5t-20 48.5zM860 1657 q0 29 19.5 49t48.5 20t48 -20t19 -49t-19.5 -48.5t-47.5 -19.5q-29 0 -48.5 19.5t-19.5 48.5z" />
<glyph unicode="&#xd7;" d="M51 711l305 233q8 4 13.5 1t1.5 -13l-142 -180h469v534l-180 -143q-8 -4 -12 2t2 12l231 307l234 -307q4 -6 1 -12t-13 -2l-181 143v-534h465l-141 180q-4 10 1 13t13 -1l305 -233l-305 -232q-8 -6 -13 -2t-1 12l141 181h-465v-523l181 144q10 4 13 -2t-1 -13l-234 -307 l-231 307q-6 6 -2 12.5t12 2.5l180 -144v523h-469l142 -181q4 -8 -1 -12t-14 2z" />
<glyph unicode="&#xd8;" horiz-adv-x="1462" d="M141 719q0 168 43 304t122 232.5t187.5 148.5t237.5 52q147 0 270 -70l70 150h84l-90 -190q121 -94 188.5 -254t67.5 -373q0 -168 -43 -305.5t-122 -233.5t-187.5 -149.5t-237.5 -53.5q-156 0 -282 76l-74 -155h-84q16 35 33 69q14 29 29.5 63.5t31.5 67.5 q-115 94 -179.5 253t-64.5 368zM236 719q0 -180 51 -315.5t139 -219.5l537 1123q-104 63 -232 63q-106 0 -196.5 -45t-157 -129t-104 -205t-37.5 -272zM487 135q109 -72 244 -72q106 0 197.5 45.5t157 130.5t103.5 206.5t38 273.5q0 186 -54.5 322.5t-148.5 220.5z" />
<glyph unicode="&#xd9;" horiz-adv-x="1366" d="M186 551v883h95v-881q0 -250 101 -370t306 -120t301 119t96 369v883h95v-881q0 -575 -496 -576q-246 0 -372 141.5t-126 432.5zM395 1801h129l211 -301h-74z" />
<glyph unicode="&#xda;" horiz-adv-x="1366" d="M186 551v883h95v-881q0 -250 101 -370t306 -120t301 119t96 369v883h95v-881q0 -575 -496 -576q-246 0 -372 141.5t-126 432.5zM618 1500l211 301h129l-266 -301h-74z" />
<glyph unicode="&#xdb;" horiz-adv-x="1366" d="M186 551v883h95v-881q0 -250 101 -370t306 -120t301 119t96 369v883h95v-881q0 -575 -496 -576q-246 0 -372 141.5t-126 432.5zM365 1526l266 301h102l266 -301h-79l-240 231l-238 -231h-77z" />
<glyph unicode="&#xdc;" horiz-adv-x="1366" d="M186 551v883h95v-881q0 -250 101 -370t306 -120t301 119t96 369v883h95v-881q0 -575 -496 -576q-246 0 -372 141.5t-126 432.5zM418 1649q0 29 20.5 49t48.5 20q27 0 46.5 -20t19.5 -49t-19.5 -48.5t-46.5 -19.5q-29 0 -49 19.5t-20 48.5zM815 1649q0 29 19.5 49t48.5 20 t48 -20t19 -49t-19.5 -48.5t-47.5 -19.5q-29 0 -48.5 19.5t-19.5 48.5z" />
<glyph unicode="&#xdd;" horiz-adv-x="1296" d="M113 1434h106l430 -750l430 750h105l-490 -844v-590h-94v588zM600 1495l211 301h129l-266 -301h-74z" />
<glyph unicode="&#xde;" horiz-adv-x="1216" d="M197 0v1434h94v-273h375q100 0 185 -23.5t145.5 -72.5t94 -126.5t33.5 -186.5q0 -211 -130 -318.5t-357 -107.5h-346v-326h-94zM291 412h346q391 0 391 336q0 172 -95 249.5t-271 77.5h-371v-663z" />
<glyph unicode="&#xdf;" horiz-adv-x="1165" d="M176 -389v1450q0 203 102.5 311.5t276.5 108.5q90 0 160.5 -27t120 -73t75 -108.5t25.5 -133.5q0 -139 -70.5 -214t-175.5 -98q74 -10 138.5 -36.5t113.5 -71.5t78 -110.5t29 -153.5q0 -123 -40 -209t-111 -141.5t-167 -80t-207 -24.5h-26v80h30q199 0 314.5 87 t115.5 279q0 82 -30.5 145.5t-87 104.5t-134 62.5t-171.5 21.5h-37v78h41q154 0 229.5 73t75.5 208q0 115 -76 188.5t-217 73.5q-129 0 -207 -83t-78 -243v-1413z" />
<glyph unicode="&#xe0;" horiz-adv-x="1089" d="M111 309q0 88 32.5 153.5t89 108.5t129 63.5t152.5 20.5q98 0 179 -23.5t138 -56.5v160q0 154 -68.5 220.5t-211.5 66.5q-92 0 -166 -23.5t-143 -60.5l-33 74q72 37 158 61.5t190 24.5q88 0 155.5 -18.5t113.5 -60.5t71 -109.5t25 -164.5v-745h-91v162 q-61 -78 -153 -131.5t-211 -53.5q-66 0 -130.5 16.5t-114.5 55.5t-80.5 102.5t-30.5 157.5zM199 313q0 -72 22.5 -122t61.5 -80.5t90 -45t108 -14.5q115 0 203 56.5t147 144.5v250q-61 35 -138 57.5t-183 22.5q-135 0 -223 -68t-88 -201zM266 1520h129l211 -301h-74z" />
<glyph unicode="&#xe1;" horiz-adv-x="1089" d="M111 309q0 88 32.5 153.5t89 108.5t129 63.5t152.5 20.5q98 0 179 -23.5t138 -56.5v160q0 154 -68.5 220.5t-211.5 66.5q-92 0 -166 -23.5t-143 -60.5l-33 74q72 37 158 61.5t190 24.5q88 0 155.5 -18.5t113.5 -60.5t71 -109.5t25 -164.5v-745h-91v162 q-61 -78 -153 -131.5t-211 -53.5q-66 0 -130.5 16.5t-114.5 55.5t-80.5 102.5t-30.5 157.5zM199 313q0 -72 22.5 -122t61.5 -80.5t90 -45t108 -14.5q115 0 203 56.5t147 144.5v250q-61 35 -138 57.5t-183 22.5q-135 0 -223 -68t-88 -201zM496 1219l211 301h129l-266 -301 h-74z" />
<glyph unicode="&#xe2;" horiz-adv-x="1089" d="M111 309q0 88 32.5 153.5t89 108.5t129 63.5t152.5 20.5q98 0 179 -23.5t138 -56.5v160q0 154 -68.5 220.5t-211.5 66.5q-92 0 -166 -23.5t-143 -60.5l-33 74q72 37 158 61.5t190 24.5q88 0 155.5 -18.5t113.5 -60.5t71 -109.5t25 -164.5v-745h-91v162 q-61 -78 -153 -131.5t-211 -53.5q-66 0 -130.5 16.5t-114.5 55.5t-80.5 102.5t-30.5 157.5zM199 313q0 -72 22.5 -122t61.5 -80.5t90 -45t108 -14.5q115 0 203 56.5t147 144.5v250q-61 35 -138 57.5t-183 22.5q-135 0 -223 -68t-88 -201zM230 1215l266 301h102l266 -301h-79 l-240 231l-238 -231h-77z" />
<glyph unicode="&#xe3;" horiz-adv-x="1089" d="M111 309q0 88 32.5 153.5t89 108.5t129 63.5t152.5 20.5q98 0 179 -23.5t138 -56.5v160q0 154 -68.5 220.5t-211.5 66.5q-92 0 -166 -23.5t-143 -60.5l-33 74q72 37 158 61.5t190 24.5q88 0 155.5 -18.5t113.5 -60.5t71 -109.5t25 -164.5v-745h-91v162 q-61 -78 -153 -131.5t-211 -53.5q-66 0 -130.5 16.5t-114.5 55.5t-80.5 102.5t-30.5 157.5zM199 313q0 -72 22.5 -122t61.5 -80.5t90 -45t108 -14.5q115 0 203 56.5t147 144.5v250q-61 35 -138 57.5t-183 22.5q-135 0 -223 -68t-88 -201zM211 1227q4 111 56.5 163t125.5 52 q43 0 80 -16.5t74 -45.5q57 -43 89 -62.5t69 -19.5q88 0 108 140h74q-4 -111 -56.5 -163t-125.5 -52q-43 0 -80 16t-74 45q-59 43 -89 62.5t-69 19.5q-41 0 -69.5 -31.5t-38.5 -107.5h-74z" />
<glyph unicode="&#xe4;" horiz-adv-x="1089" d="M111 309q0 88 32.5 153.5t89 108.5t129 63.5t152.5 20.5q98 0 179 -23.5t138 -56.5v160q0 154 -68.5 220.5t-211.5 66.5q-92 0 -166 -23.5t-143 -60.5l-33 74q72 37 158 61.5t190 24.5q88 0 155.5 -18.5t113.5 -60.5t71 -109.5t25 -164.5v-745h-91v162 q-61 -78 -153 -131.5t-211 -53.5q-66 0 -130.5 16.5t-114.5 55.5t-80.5 102.5t-30.5 157.5zM199 313q0 -72 22.5 -122t61.5 -80.5t90 -45t108 -14.5q115 0 203 56.5t147 144.5v250q-61 35 -138 57.5t-183 22.5q-135 0 -223 -68t-88 -201zM281 1343q0 29 20.5 49.5t48.5 20.5 q27 0 46.5 -20.5t19.5 -49.5t-19.5 -48t-46.5 -19q-29 0 -49 19.5t-20 47.5zM678 1343q0 29 19.5 49.5t47.5 20.5q29 0 48.5 -20.5t19.5 -49.5t-19.5 -48t-48.5 -19t-48 19.5t-19 47.5z" />
<glyph unicode="&#xe5;" horiz-adv-x="1089" d="M111 309q0 88 32.5 153.5t89 108.5t129 63.5t152.5 20.5q98 0 179 -23.5t138 -56.5v160q0 154 -68.5 220.5t-211.5 66.5q-92 0 -166 -23.5t-143 -60.5l-33 74q72 37 158 61.5t190 24.5q88 0 155.5 -18.5t113.5 -60.5t71 -109.5t25 -164.5v-745h-91v162 q-61 -78 -153 -131.5t-211 -53.5q-66 0 -130.5 16.5t-114.5 55.5t-80.5 102.5t-30.5 157.5zM199 313q0 -72 22.5 -122t61.5 -80.5t90 -45t108 -14.5q115 0 203 56.5t147 144.5v250q-61 35 -138 57.5t-183 22.5q-135 0 -223 -68t-88 -201zM348 1421q0 86 57.5 142.5 t143.5 56.5t143.5 -56.5t57.5 -142.5q0 -41 -15.5 -77.5t-42 -63.5t-63.5 -42t-80 -15t-80 15t-63.5 42t-42 63.5t-15.5 77.5zM408 1421q0 -61 38.5 -101t102.5 -40q63 0 102 40t39 101t-39 102.5t-102 41.5t-102 -41t-39 -103z" />
<glyph unicode="&#xe6;" horiz-adv-x="1779" d="M111 309q0 88 31.5 153.5t86 108.5t126 63.5t151.5 20.5q98 0 175 -23.5t134 -56.5v160q0 154 -64.5 220.5t-207.5 66.5q-92 0 -161 -23.5t-140 -60.5l-33 74q72 37 153.5 61.5t186.5 24.5q96 0 158.5 -21.5t99.5 -58.5t53.5 -85t20.5 -102q39 117 133 192t223 75 q96 0 173 -38t131 -107.5t83 -169t29 -222.5v-27.5t-2 -21.5h-750q6 -217 98.5 -336t241.5 -119q104 0 171 24.5t140 72.5l43 -66q-43 -27 -82.5 -47.5t-81.5 -34.5t-90.5 -21.5t-109.5 -7.5q-104 0 -196.5 54.5t-151.5 171.5q-80 -111 -180.5 -168.5t-243.5 -57.5 q-66 0 -128.5 16.5t-111.5 55.5t-78.5 102.5t-29.5 157.5zM199 313q0 -72 21.5 -122t58 -80.5t87 -45t107.5 -14.5q106 0 202.5 54t174.5 169q-16 49 -25.5 108.5t-11.5 121.5q-61 35 -134 56.5t-177 21.5q-135 0 -219 -68t-84 -201zM901 586h668q-6 205 -92 318.5 t-240 113.5q-141 0 -233.5 -108.5t-102.5 -323.5z" />
<glyph unicode="&#xe7;" horiz-adv-x="1007" d="M117 535q0 147 39 253.5t102.5 175t144 101.5t164.5 33q111 0 189 -34t137 -85l-55 -68q-57 49 -120 78t-157 29q-72 0 -135.5 -31t-111.5 -91t-76.5 -148.5t-28.5 -204.5q0 -117 26.5 -208t74.5 -152.5t112.5 -93.5t140.5 -32q86 0 153.5 30t123.5 83l53 -59 q-63 -61 -144 -97.5t-190 -36.5h-4l-33 -79q39 25 105 24q43 0 85 -31.5t42 -97.5q0 -43 -17.5 -72.5t-47.5 -48t-69.5 -26.5t-84.5 -8q-117 0 -218 65l29 43q41 -29 91 -43t102 -14q72 0 107.5 28.5t35.5 73.5q0 39 -23.5 59.5t-60.5 20.5q-63 0 -106 -43l-54 18l56 136 q-76 12 -144.5 51t-120 106.5t-82 165.5t-30.5 230z" />
<glyph unicode="&#xe8;" horiz-adv-x="1101" d="M117 541q0 131 33.5 234.5t92 175t137.5 109.5t171 38q98 0 177 -38t134.5 -107.5t85 -169t29.5 -222.5q0 -16 -1 -27.5t-3 -21.5h-766q6 -217 102.5 -336t245.5 -119q104 0 176 24.5t146 72.5l41 -66q-86 -53 -169 -82t-204 -29q-80 0 -157 33t-137.5 101.5t-97 175 t-36.5 254.5zM207 586h684q-6 205 -96 318.5t-244 113.5q-72 0 -132.5 -27.5t-106.5 -82t-73.5 -135.5t-31.5 -187zM274 1520h129l211 -301h-73z" />
<glyph unicode="&#xe9;" horiz-adv-x="1101" d="M117 541q0 131 33.5 234.5t92 175t137.5 109.5t171 38q98 0 177 -38t134.5 -107.5t85 -169t29.5 -222.5q0 -16 -1 -27.5t-3 -21.5h-766q6 -217 102.5 -336t245.5 -119q104 0 176 24.5t146 72.5l41 -66q-86 -53 -169 -82t-204 -29q-80 0 -157 33t-137.5 101.5t-97 175 t-36.5 254.5zM207 586h684q-6 205 -96 318.5t-244 113.5q-72 0 -132.5 -27.5t-106.5 -82t-73.5 -135.5t-31.5 -187zM491 1219l211 301h129l-266 -301h-74z" />
<glyph unicode="&#xea;" horiz-adv-x="1101" d="M117 541q0 131 33.5 234.5t92 175t137.5 109.5t171 38q98 0 177 -38t134.5 -107.5t85 -169t29.5 -222.5q0 -16 -1 -27.5t-3 -21.5h-766q6 -217 102.5 -336t245.5 -119q104 0 176 24.5t146 72.5l41 -66q-86 -53 -169 -82t-204 -29q-80 0 -157 33t-137.5 101.5t-97 175 t-36.5 254.5zM207 586h684q-6 205 -96 318.5t-244 113.5q-72 0 -132.5 -27.5t-106.5 -82t-73.5 -135.5t-31.5 -187zM236 1209l266 301h102l266 -301h-79l-240 231l-238 -231h-77z" />
<glyph unicode="&#xeb;" horiz-adv-x="1101" d="M117 541q0 131 33.5 234.5t92 175t137.5 109.5t171 38q98 0 177 -38t134.5 -107.5t85 -169t29.5 -222.5q0 -16 -1 -27.5t-3 -21.5h-766q6 -217 102.5 -336t245.5 -119q104 0 176 24.5t146 72.5l41 -66q-86 -53 -169 -82t-204 -29q-80 0 -157 33t-137.5 101.5t-97 175 t-36.5 254.5zM207 586h684q-6 205 -96 318.5t-244 113.5q-72 0 -132.5 -27.5t-106.5 -82t-73.5 -135.5t-31.5 -187zM283 1343q0 29 20.5 49.5t48.5 20.5q27 0 46.5 -20.5t19.5 -49.5t-19.5 -48t-46.5 -19q-29 0 -49 19.5t-20 47.5zM680 1343q0 29 19.5 49.5t48.5 20.5 t48 -20.5t19 -49.5t-19.5 -48t-47.5 -19q-29 0 -48.5 19.5t-19.5 47.5z" />
<glyph unicode="&#xec;" horiz-adv-x="462" d="M-68 1520h129l211 -301h-73zM186 0v1075h90v-1075h-90z" />
<glyph unicode="&#xed;" horiz-adv-x="462" d="M186 0v1075h90v-1075h-90zM197 1219l211 301h129l-266 -301h-74z" />
<glyph unicode="&#xee;" horiz-adv-x="462" d="M-84 1194l266 301h102l266 -301h-79l-240 231l-238 -231h-77zM186 0v1075h90v-1075h-90z" />
<glyph unicode="&#xef;" horiz-adv-x="462" d="M-35 1333q0 29 20.5 49.5t49.5 20.5q27 0 46 -20.5t19 -49.5t-19.5 -48t-45.5 -19q-29 0 -49.5 19.5t-20.5 47.5zM186 0v1075h90v-1075h-90zM362 1333q0 29 19.5 49.5t48.5 20.5t48.5 -20.5t19.5 -49.5t-19.5 -48t-48.5 -19t-48.5 19.5t-19.5 47.5z" />
<glyph unicode="&#xf0;" horiz-adv-x="1167" d="M117 481q0 119 33.5 212t93 159t140.5 100.5t173 34.5q160 0 264.5 -64.5t149.5 -185.5q-29 193 -96.5 318t-178.5 207l-100 -113l-64 51l93 103q-53 29 -114.5 48t-131.5 25v80q166 -12 299 -90l67 72l62 -52l-62 -67q141 -104 223.5 -282.5t82.5 -420.5 q0 -324 -119 -481.5t-354 -157.5q-98 0 -182.5 35t-146 99.5t-97 157.5t-35.5 212zM209 483q0 -102 27.5 -181t76.5 -133t117 -83t150 -29q176 0 277 120t101 335q0 98 -28.5 172t-80.5 124t-123 74.5t-155 24.5q-170 0 -266 -112.5t-96 -311.5z" />
<glyph unicode="&#xf1;" horiz-adv-x="1157" d="M176 0v1075h90v-182q41 98 130 151.5t212 53.5q86 0 156 -24.5t120 -78t77.5 -136.5t27.5 -200v-659h-90v643q0 197 -82 286t-227 89q-59 0 -116.5 -19.5t-103.5 -62.5t-75 -114.5t-29 -176.5v-645h-90zM237 1227q4 111 56.5 163t125.5 52q43 0 80 -16.5t74 -45.5 q57 -43 89 -62.5t69 -19.5q88 0 108 140h74q-4 -111 -56.5 -163t-125.5 -52q-43 0 -80 16t-74 45q-59 43 -89 62.5t-69 19.5q-41 0 -69.5 -31.5t-38.5 -107.5h-74z" />
<glyph unicode="&#xf2;" horiz-adv-x="1161" d="M117 537q0 135 36.5 240.5t99 176t147.5 107.5t184 37q96 0 180 -36t146.5 -106.5t98 -174t35.5 -238.5t-36.5 -240.5t-99 -178.5t-147.5 -110t-183 -37q-96 0 -180.5 37t-147 108t-98 175t-35.5 240zM209 541q0 -119 27.5 -209t78 -151.5t118 -92.5t147.5 -31t148.5 31 t118.5 92.5t77.5 151.5t27.5 209q0 117 -27.5 207t-77.5 149t-119 90t-148 31q-80 0 -147.5 -31t-118 -90t-78 -149.5t-27.5 -206.5zM301 1520h129l211 -301h-74z" />
<glyph unicode="&#xf3;" horiz-adv-x="1161" d="M117 537q0 135 36.5 240.5t99 176t147.5 107.5t184 37q96 0 180 -36t146.5 -106.5t98 -174t35.5 -238.5t-36.5 -240.5t-99 -178.5t-147.5 -110t-183 -37q-96 0 -180.5 37t-147 108t-98 175t-35.5 240zM209 541q0 -119 27.5 -209t78 -151.5t118 -92.5t147.5 -31t148.5 31 t118.5 92.5t77.5 151.5t27.5 209q0 117 -27.5 207t-77.5 149t-119 90t-148 31q-80 0 -147.5 -31t-118 -90t-78 -149.5t-27.5 -206.5zM514 1219l211 301h129l-266 -301h-74z" />
<glyph unicode="&#xf4;" horiz-adv-x="1161" d="M117 537q0 135 36.5 240.5t99 176t147.5 107.5t184 37q96 0 180 -36t146.5 -106.5t98 -174t35.5 -238.5t-36.5 -240.5t-99 -178.5t-147.5 -110t-183 -37q-96 0 -180.5 37t-147 108t-98 175t-35.5 240zM209 541q0 -119 27.5 -209t78 -151.5t118 -92.5t147.5 -31t148.5 31 t118.5 92.5t77.5 151.5t27.5 209q0 117 -27.5 207t-77.5 149t-119 90t-148 31q-80 0 -147.5 -31t-118 -90t-78 -149.5t-27.5 -206.5zM261 1209l266 301h102l266 -301h-79l-240 231l-238 -231h-77z" />
<glyph unicode="&#xf5;" horiz-adv-x="1161" d="M117 537q0 135 36.5 240.5t99 176t147.5 107.5t184 37q96 0 180 -36t146.5 -106.5t98 -174t35.5 -238.5t-36.5 -240.5t-99 -178.5t-147.5 -110t-183 -37q-96 0 -180.5 37t-147 108t-98 175t-35.5 240zM209 541q0 -119 27.5 -209t78 -151.5t118 -92.5t147.5 -31t148.5 31 t118.5 92.5t77.5 151.5t27.5 209q0 117 -27.5 207t-77.5 149t-119 90t-148 31q-80 0 -147.5 -31t-118 -90t-78 -149.5t-27.5 -206.5zM240 1227q4 111 56.5 163t125.5 52q43 0 80 -16.5t74 -45.5q57 -43 89 -62.5t69 -19.5q88 0 108 140h74q-4 -111 -56.5 -163t-125.5 -52 q-43 0 -80 16t-74 45q-59 43 -89 62.5t-69 19.5q-41 0 -69.5 -31.5t-38.5 -107.5h-74z" />
<glyph unicode="&#xf6;" horiz-adv-x="1161" d="M117 537q0 135 36.5 240.5t99 176t147.5 107.5t184 37q96 0 180 -36t146.5 -106.5t98 -174t35.5 -238.5t-36.5 -240.5t-99 -178.5t-147.5 -110t-183 -37q-96 0 -180.5 37t-147 108t-98 175t-35.5 240zM209 541q0 -119 27.5 -209t78 -151.5t118 -92.5t147.5 -31t148.5 31 t118.5 92.5t77.5 151.5t27.5 209q0 117 -27.5 207t-77.5 149t-119 90t-148 31q-80 0 -147.5 -31t-118 -90t-78 -149.5t-27.5 -206.5zM311 1337q0 29 20.5 49.5t49.5 20.5q27 0 46 -20.5t19 -49.5t-19 -48t-46 -19q-29 0 -49.5 19.5t-20.5 47.5zM709 1337q0 29 19.5 49.5 t47.5 20.5q29 0 48.5 -20.5t19.5 -49.5t-19.5 -48t-48.5 -19t-48 19.5t-19 47.5z" />
<glyph unicode="&#xf7;" d="M51 711l305 233q8 4 13.5 1t1.5 -13l-142 -180h469v534l-180 -143q-8 -4 -12 2t2 12l231 307l234 -307q4 -6 1 -12t-13 -2l-181 143v-534h465l-141 180q-4 10 1 13t13 -1l305 -233l-305 -232q-8 -6 -13 -2t-1 12l141 181h-465v-523l181 144q10 4 13 -2t-1 -13l-234 -307 l-231 307q-6 6 -2 12.5t12 2.5l180 -144v523h-469l142 -181q4 -8 -1 -12t-14 2z" />
<glyph unicode="&#xf8;" horiz-adv-x="1161" d="M117 537q0 135 36.5 240.5t99 176t147.5 107.5t184 37q115 0 211 -56l69 136h80l-86 -172q86 -68 136 -184.5t50 -278.5q0 -135 -36.5 -240.5t-99 -178.5t-147.5 -110t-183 -37q-57 0 -109.5 12.5t-99.5 41.5l-68 -133h-80l86 170q-88 68 -139 186.5t-51 282.5zM207 541 q0 -137 37 -235.5t100 -158.5l418 826q-80 49 -182 49q-80 0 -149 -30.5t-119 -92t-77.5 -152t-27.5 -206.5zM403 102q76 -49 177 -49q80 0 149.5 32t119.5 93.5t78.5 152.5t28.5 210q0 133 -36.5 229t-100.5 156z" />
<glyph unicode="&#xf9;" horiz-adv-x="1157" d="M168 416v659h90v-643q0 -197 82 -286t227 -89q59 0 116.5 19.5t104 62.5t75 115t28.5 176v645h90v-1075h-90v182q-35 -100 -126 -152.5t-214 -52.5q-86 0 -156.5 25t-121 78t-78 136t-27.5 200zM281 1511h129l211 -301h-74z" />
<glyph unicode="&#xfa;" horiz-adv-x="1157" d="M168 416v659h90v-643q0 -197 82 -286t227 -89q59 0 116.5 19.5t104 62.5t75 115t28.5 176v645h90v-1075h-90v182q-35 -100 -126 -152.5t-214 -52.5q-86 0 -156.5 25t-121 78t-78 136t-27.5 200zM516 1213l211 301h129l-266 -301h-74z" />
<glyph unicode="&#xfb;" horiz-adv-x="1157" d="M168 416v659h90v-643q0 -197 82 -286t227 -89q59 0 116.5 19.5t104 62.5t75 115t28.5 176v645h90v-1075h-90v182q-35 -100 -126 -152.5t-214 -52.5q-86 0 -156.5 25t-121 78t-78 136t-27.5 200zM258 1219l266 301h102l266 -301h-79l-240 231l-238 -231h-77z" />
<glyph unicode="&#xfc;" horiz-adv-x="1157" d="M168 416v659h90v-643q0 -197 82 -286t227 -89q59 0 116.5 19.5t104 62.5t75 115t28.5 176v645h90v-1075h-90v182q-35 -100 -126 -152.5t-214 -52.5q-86 0 -156.5 25t-121 78t-78 136t-27.5 200zM313 1346q0 29 20.5 49t49.5 20q27 0 46.5 -20t19.5 -49t-19.5 -48.5 t-46.5 -19.5q-29 0 -49.5 19.5t-20.5 48.5zM711 1346q0 29 19.5 49t47.5 20q29 0 48.5 -20t19.5 -49t-19.5 -48.5t-48.5 -19.5t-48 19.5t-19 48.5z" />
<glyph unicode="&#xfd;" horiz-adv-x="1052" d="M88 1075h96l342 -966l342 966h97l-539 -1454h-90l143 385zM479 1198l211 301h129l-266 -301h-74z" />
<glyph unicode="&#xfe;" horiz-adv-x="1132" d="M176 -389v1831l90 51v-580q59 80 149.5 132.5t205.5 52.5q86 0 158.5 -32t124.5 -98.5t82 -171t30 -247.5q0 -145 -31 -253t-85 -178.5t-129 -105.5t-163 -35q-111 0 -196.5 49.5t-145.5 131.5v-496zM266 258q55 -86 142.5 -143.5t193.5 -57.5q154 0 239 120t85 370 q0 242 -88 356.5t-240 114.5q-102 0 -186 -54.5t-146 -142.5v-563z" />
<glyph unicode="&#xff;" horiz-adv-x="1052" d="M88 1075h96l342 -966l342 966h97l-539 -1454h-90l143 385zM266 1336q0 29 20.5 49t48.5 20q27 0 46.5 -20t19.5 -49t-19.5 -48.5t-46.5 -19.5q-29 0 -49 19.5t-20 48.5zM663 1336q0 29 19.5 49t48.5 20t48 -20t19 -49t-19.5 -48.5t-47.5 -19.5q-29 0 -48.5 19.5 t-19.5 48.5z" />
<glyph unicode="&#x152;" horiz-adv-x="2148" d="M141 717q0 168 43 304t121 233.5t185.5 149.5t236.5 52q90 0 170 -25.5t144.5 -72.5t110.5 -114.5t71 -149.5v340h796v-86h-712v-541h430v-86h-430v-635h743v-86h-827v342q-51 -166 -176 -265.5t-320 -99.5q-129 0 -236.5 52.5t-185.5 149.5t-121 233.5t-43 304.5z M236 719q0 -152 37.5 -273.5t103 -206.5t157 -130.5t197.5 -45.5t196.5 45.5t156 129.5t102.5 204.5t37 272.5t-38 273.5t-104.5 206.5t-158 130t-197.5 45t-195.5 -45t-155 -129t-102 -205t-36.5 -272z" />
<glyph unicode="&#x153;" horiz-adv-x="1908" d="M117 537q0 135 36.5 240.5t99 176t146.5 107.5t179 37q156 0 265 -89t140 -241q14 74 50 135.5t85 104.5t111.5 66.5t134.5 23.5q94 0 172 -38t133 -107.5t85 -169t30 -222.5q0 -16 -1 -27.5t-3 -21.5h-754q2 -109 28.5 -192.5t71.5 -142t106.5 -89.5t135.5 -31 q100 0 171 24.5t144 72.5l41 -66q-86 -53 -167.5 -82t-198.5 -29q-68 0 -130.5 24t-111.5 68t-85 105.5t-52 134.5q-37 -154 -142.5 -243t-265.5 -89q-94 0 -177 37t-144.5 108t-97 175t-35.5 240zM209 541q0 -119 27.5 -209t76.5 -151.5t117 -92.5t145 -31q78 0 144.5 31 t116 92.5t78 151.5t28.5 209q0 117 -28.5 207t-78 149t-116 90t-144.5 31t-145.5 -31t-116.5 -90t-76.5 -149.5t-27.5 -206.5zM1026 586h672q-6 205 -95.5 318.5t-238.5 113.5q-137 0 -232.5 -108.5t-105.5 -323.5z" />
<glyph unicode="&#x178;" horiz-adv-x="1296" d="M113 1434h106l430 -750l430 750h105l-490 -844v-590h-94v588zM379 1640q0 29 20.5 49.5t49.5 20.5q27 0 46 -20.5t19 -49.5t-19.5 -48t-45.5 -19q-29 0 -49.5 19.5t-20.5 47.5zM776 1640q0 29 19.5 49.5t48.5 20.5t48 -20.5t19 -49.5t-19.5 -48t-47.5 -19 q-29 0 -48.5 19.5t-19.5 47.5z" />
<glyph unicode="&#x2c6;" horiz-adv-x="1024" d="M195 1219l266 301h102l266 -301h-79l-240 231l-238 -231h-77z" />
<glyph unicode="&#x2dc;" horiz-adv-x="1024" d="M174 1227q4 111 56.5 163t125.5 52q43 0 80 -16.5t74 -45.5q57 -43 89 -62.5t69 -19.5q88 0 108 140h74q-4 -111 -56.5 -163t-125.5 -52q-43 0 -80 16t-74 45q-59 43 -89 62.5t-69 19.5q-41 0 -69.5 -31.5t-38.5 -107.5h-74z" />
<glyph unicode="&#x2000;" horiz-adv-x="913" />
<glyph unicode="&#x2001;" horiz-adv-x="1827" />
<glyph unicode="&#x2002;" horiz-adv-x="913" />
<glyph unicode="&#x2003;" horiz-adv-x="1827" />
<glyph unicode="&#x2004;" horiz-adv-x="609" />
<glyph unicode="&#x2005;" horiz-adv-x="456" />
<glyph unicode="&#x2006;" horiz-adv-x="304" />
<glyph unicode="&#x2007;" horiz-adv-x="304" />
<glyph unicode="&#x2008;" horiz-adv-x="228" />
<glyph unicode="&#x2009;" horiz-adv-x="365" />
<glyph unicode="&#x200a;" horiz-adv-x="101" />
<glyph unicode="&#x2010;" horiz-adv-x="649" d="M104 702v89h439v-89h-439z" />
<glyph unicode="&#x2011;" horiz-adv-x="649" d="M104 702v89h439v-89h-439z" />
<glyph unicode="&#x2012;" horiz-adv-x="649" d="M104 702v89h439v-89h-439z" />
<glyph unicode="&#x2013;" horiz-adv-x="854" d="M104 702v86h644v-86h-644z" />
<glyph unicode="&#x2014;" horiz-adv-x="1169" d="M104 702v86h961v-86h-961z" />
<glyph unicode="&#x2018;" horiz-adv-x="446" d="M135 1042l94 392h66l-37 -392h-123z" />
<glyph unicode="&#x2019;" horiz-adv-x="446" d="M154 1042l36 392h121l-94 -392h-63z" />
<glyph unicode="&#x201a;" horiz-adv-x="446" d="M147 -205l35 391h123l-94 -391h-64z" />
<glyph unicode="&#x201c;" horiz-adv-x="831" d="M135 1042l94 392h66l-37 -392h-123zM520 1042l94 392h64l-35 -392h-123z" />
<glyph unicode="&#x201d;" horiz-adv-x="831" d="M154 1042l36 392h121l-94 -392h-63zM539 1042l34 392h123l-94 -392h-63z" />
<glyph unicode="&#x201e;" horiz-adv-x="831" d="M147 -205l35 391h123l-94 -391h-64zM530 -205l37 391h121l-94 -391h-64z" />
<glyph unicode="&#x2022;" horiz-adv-x="659" d="M172 750q0 66 46 112.5t112 46.5t111.5 -46.5t45.5 -112.5t-46 -112t-111 -46q-66 0 -112 46t-46 112z" />
<glyph unicode="&#x2026;" horiz-adv-x="1300" d="M137 66q0 33 22.5 57t55.5 24q31 0 54.5 -24t23.5 -57t-23.5 -55.5t-54.5 -22.5q-33 0 -55.5 22.5t-22.5 55.5zM571 66q0 33 22.5 57t55.5 24q31 0 54.5 -24t23.5 -57t-23.5 -55.5t-54.5 -22.5q-33 0 -55.5 22.5t-22.5 55.5zM1006 66q0 33 22.5 57t54.5 24q31 0 54.5 -24 t23.5 -57t-23.5 -55.5t-54.5 -22.5q-33 0 -55 22.5t-22 55.5z" />
<glyph unicode="&#x202f;" horiz-adv-x="365" />
<glyph unicode="&#x2039;" horiz-adv-x="702" d="M74 537l415 538h103l-416 -536l416 -539h-103z" />
<glyph unicode="&#x203a;" horiz-adv-x="702" d="M111 0l415 539l-415 536h102l416 -538l-416 -537h-102z" />
<glyph unicode="&#x205f;" horiz-adv-x="456" />
<glyph unicode="&#x20ac;" horiz-adv-x="1204" d="M137 715q0 176 41 314t114 233.5t174 144.5t222 49q133 0 222 -45t157 -137l-72 -60q-61 78 -130.5 118t-178.5 40q-176 0 -291.5 -122t-152.5 -345h563v-82h-572q-2 -27 -3 -51t-1 -53q0 -25 1 -48.5t3 -45.5h572v-82h-565q31 -225 144.5 -353.5t301.5 -128.5 q109 0 185.5 45.5t144.5 126.5l65 -59q-74 -92 -168 -144.5t-229 -52.5q-127 0 -228.5 50.5t-172 145.5t-108.5 231.5t-38 310.5z" />
<glyph unicode="&#x2122;" horiz-adv-x="1611" d="M53 1380v54h574v-54h-256v-782h-60v782h-258zM786 598v836h68l291 -717l291 717h65v-836h-55v711l-301 -725h-4l-299 725v-711h-56z" />
<glyph unicode="&#xe000;" horiz-adv-x="1075" d="M0 0v1075h1075v-1075h-1075z" />
<glyph unicode="&#xfb01;" horiz-adv-x="1153" d="M96 999v76h160v158q0 139 65.5 195.5t163.5 56.5q47 0 80 -6t56 -15l-3 -86q-23 10 -54.5 17.5t-71.5 7.5q-59 0 -102.5 -34t-43.5 -128v-166h250v-76h-250v-999h-90v999h-160zM856 1376q0 29 19.5 47.5t48.5 18.5q25 0 44 -18.5t19 -47.5q0 -27 -19.5 -46t-43.5 -19 q-29 0 -48.5 19.5t-19.5 45.5zM877 0v1075h90v-1075h-90z" />
<glyph unicode="&#xfb02;" horiz-adv-x="1153" d="M96 999v76h160v158q0 139 65.5 195.5t163.5 56.5q47 0 80 -6t56 -15l-3 -86q-23 10 -54.5 17.5t-71.5 7.5q-59 0 -102.5 -34t-43.5 -128v-166h250v-76h-250v-999h-90v999h-160zM877 0v1442l90 51v-1493h-90z" />
</font>
</defs>
</svg>
