<?xml version="1.0" standalone="no"?>
<!DOCTYPE svg PUBLIC "-//W3C//DTD SVG 1.1//EN" "http://www.w3.org/Graphics/SVG/1.1/DTD/svg11.dtd" >
<svg>
<metadata>
Created by FontForge 20110222 at Mon Oct 22 11:45:42 2012
 By Stefan Warting
Copyright (c) The Font Bureau, Inc, 2000. All rights reserved.
</metadata>
<defs>
<font id="Interstate-Light" horiz-adv-x="728" >
  <font-face 
    font-family="Interstate-Light"
    font-weight="200"
    font-stretch="normal"
    units-per-em="1000"
    panose-1="2 0 3 3 0 0 0 0 0 0"
    ascent="800"
    descent="-200"
    x-height="525"
    cap-height="700"
    bbox="-52 -193 1300 914"
    underline-thickness="20"
    underline-position="-133"
    unicode-range="U+000D-FB02"
  />
    <missing-glyph />
    <glyph glyph-name=".null" horiz-adv-x="0" 
 />
    <glyph glyph-name="nonmarkingreturn" unicode="&#xd;" horiz-adv-x="333" 
 />
    <glyph glyph-name="space" unicode=" " horiz-adv-x="260" 
 />
    <glyph glyph-name="exclam" unicode="!" horiz-adv-x="263" 
d="M170 371l-18 -183h-42l-17 183v329h77v-329zM192 50c0 -17 -6 -31 -18 -43c-13 -12 -27 -18 -43 -18c-17 0 -31 6 -43 18s-18 26 -18 43s6 31 18 44s26 19 43 19c16 0 30 -6 43 -19c12 -13 18 -27 18 -44z" />
    <glyph glyph-name="quotedbl" unicode="&#x22;" horiz-adv-x="460" 
d="M376 700l-17 -327h-59l-17 327h93zM177 700l-17 -327h-59l-17 327h93z" />
    <glyph glyph-name="numbersign" unicode="#" horiz-adv-x="672" 
d="M620 176h-120v-176h-75v176h-178v-176h-75v176h-120v70h120v208h-120v70h120v176h75v-176h178v176h75v-176h120v-70h-120v-208h120v-70zM425 246v208h-178v-208h178z" />
    <glyph glyph-name="dollar" unicode="$" horiz-adv-x="582" 
d="M517 189c0 -51 -17 -93 -51 -127c-35 -34 -82 -54 -143 -61v-101h-75v101c-79 9 -145 40 -198 95l52 58c58 -56 120 -84 186 -84c47 0 84 10 111 30s40 48 40 85c0 32 -12 58 -35 78s-67 42 -132 65c-77 27 -130 55 -158 82c-30 28 -44 67 -44 117c0 49 16 89 48 119
c31 29 75 47 130 53v101h75v-100c63 -5 123 -30 179 -74l-50 -61c-53 43 -109 65 -168 65c-46 0 -80 -9 -102 -27c-23 -18 -34 -42 -34 -71c0 -30 11 -54 32 -72c21 -19 66 -40 134 -64c78 -28 131 -56 160 -86c29 -28 43 -69 43 -121z" />
    <glyph glyph-name="percent" unicode="%" horiz-adv-x="963" 
d="M385 494c0 -64 -15 -116 -45 -157c-31 -41 -70 -61 -119 -61s-88 20 -117 60c-29 39 -44 91 -44 156s15 118 44 158c30 41 70 61 119 61c50 0 89 -20 119 -59c28 -40 43 -93 43 -158zM735 700l-435 -700h-73l435 700h73zM903 207c0 -64 -15 -116 -45 -157
c-31 -41 -70 -61 -119 -61s-88 20 -117 59c-29 40 -44 92 -44 157s15 118 44 159c30 40 70 60 119 60c50 0 89 -20 119 -60c28 -39 43 -92 43 -157zM316 492c0 47 -8 85 -26 114c-16 30 -39 45 -68 45s-51 -15 -68 -43c-17 -30 -25 -67 -25 -114s9 -85 25 -114
c18 -29 40 -44 69 -44c28 0 51 15 67 46c18 30 26 67 26 110zM834 205c0 47 -8 85 -26 115c-16 29 -39 44 -68 44s-51 -14 -68 -44c-17 -28 -25 -66 -25 -113s9 -85 25 -114c18 -29 40 -44 69 -44c28 0 51 15 67 45c18 31 26 68 26 111z" />
    <glyph glyph-name="ampersand" unicode="&#x26;" horiz-adv-x="644" 
d="M609 0h-92l-56 73c-55 -56 -118 -84 -189 -84c-73 0 -126 17 -160 53c-34 34 -51 80 -51 135c0 49 13 90 39 123c26 32 65 61 118 88l-24 32c-21 27 -36 51 -46 72c-11 21 -16 43 -16 68c0 45 16 81 48 109c33 28 76 42 130 42c71 0 133 -21 186 -63l-40 -62
c-48 38 -97 57 -147 57c-31 0 -55 -7 -73 -21c-18 -15 -27 -34 -27 -58c0 -29 14 -62 42 -98l213 -277c16 29 32 70 48 123l66 -20c-16 -59 -39 -113 -70 -160zM420 125l-162 212c-81 -37 -122 -90 -122 -158c0 -35 12 -65 36 -87c25 -24 59 -35 102 -35c57 0 106 23 146 68
z" />
    <glyph glyph-name="quoteright" unicode="&#x2019;" horiz-adv-x="252" 
d="M192 700l-65 -223h-52l15 223h102z" />
    <glyph glyph-name="parenleft" unicode="(" horiz-adv-x="348" 
d="M299 -79l-33 -31c-135 123 -203 260 -203 410c0 154 68 293 203 416l33 -31c-106 -109 -159 -236 -159 -380c0 -147 53 -275 159 -384z" />
    <glyph glyph-name="parenright" unicode=")" horiz-adv-x="348" 
d="M285 306c0 -154 -68 -293 -203 -416l-33 31c106 109 159 236 159 380c0 147 -53 275 -159 384l33 31c135 -123 203 -260 203 -410z" />
    <glyph glyph-name="asterisk" unicode="*" horiz-adv-x="500" 
d="M428 445l-31 -54l-133 99l17 -166h-62l17 166l-133 -99l-31 54l148 67l-148 67l31 54l133 -99l-17 166h62l-17 -166l133 99l31 -54l-148 -67z" />
    <glyph glyph-name="plus" unicode="+" horiz-adv-x="577" 
d="M522 310h-197v-203h-73v203h-197v68h197v203h73v-203h197v-68z" />
    <glyph glyph-name="comma" unicode="," horiz-adv-x="240" 
d="M177 115l-65 -233h-52l15 233h102z" />
    <glyph glyph-name="hyphen" unicode="-" horiz-adv-x="322" 
d="M271 329h-220v73h220v-73z" />
    <glyph glyph-name="period" unicode="." horiz-adv-x="240" 
d="M184 53c0 -17 -6 -32 -19 -45s-28 -19 -45 -19s-32 6 -45 19s-19 28 -19 45s6 33 19 46s28 20 45 20s32 -7 44 -20c14 -13 20 -29 20 -46z" />
    <glyph glyph-name="slash" unicode="/" horiz-adv-x="425" 
d="M399 790l-299 -880h-74l299 880h74z" />
    <glyph glyph-name="zero" unicode="0" horiz-adv-x="642" 
d="M583 350c0 -114 -24 -203 -71 -266c-48 -63 -112 -95 -191 -95s-143 32 -191 95c-47 63 -71 152 -71 266s24 203 71 266c48 63 112 95 191 95s143 -32 191 -95c47 -63 71 -152 71 -266zM506 350c0 91 -16 163 -48 214c-31 51 -77 77 -137 77s-106 -26 -137 -77
c-32 -51 -48 -123 -48 -214s16 -163 48 -214c31 -51 77 -77 137 -77s106 26 137 77c32 51 48 123 48 214z" />
    <glyph glyph-name="one" unicode="1" horiz-adv-x="312" 
d="M219 0h-77v560h-127v49c87 5 135 36 145 91h59v-700z" />
    <glyph glyph-name="two" unicode="2" horiz-adv-x="569" 
d="M499 0h-460c2 43 8 82 19 114c11 34 27 64 48 90c21 28 44 51 66 70c24 19 54 42 92 68c61 42 102 75 122 98c19 24 29 52 29 84c0 37 -13 65 -37 86c-26 21 -61 31 -106 31c-63 0 -120 -22 -170 -65l-45 57c32 26 65 45 97 59c34 12 74 19 121 19c65 0 118 -15 157 -47
c40 -30 60 -76 60 -136c0 -34 -6 -64 -19 -88c-13 -26 -30 -48 -52 -67s-57 -45 -104 -78c-69 -47 -116 -85 -141 -116s-41 -66 -48 -105h371v-74z" />
    <glyph glyph-name="three" unicode="3" horiz-adv-x="563" 
d="M498 201c0 -66 -22 -118 -66 -155c-45 -38 -106 -57 -183 -57c-42 0 -83 9 -122 28s-71 42 -95 69l52 52c49 -53 106 -79 169 -79c112 0 168 47 168 140c0 43 -15 75 -45 98s-70 34 -121 34h-46v67h48c44 0 77 11 101 34c22 22 34 52 34 90c0 79 -48 119 -144 119
c-53 0 -100 -21 -141 -64l-49 50c53 56 117 84 192 84c65 0 117 -15 158 -46s61 -75 61 -133c0 -75 -33 -130 -99 -164c37 -8 68 -26 92 -54c24 -27 36 -65 36 -113z" />
    <glyph glyph-name="four" unicode="4" horiz-adv-x="625" 
d="M581 166h-96v-166h-72v166h-374v65l362 469h84v-467h96v-67zM413 233v310v64c-25 -36 -58 -80 -99 -132l-95 -123c-47 -60 -78 -100 -95 -119h63h226z" />
    <glyph glyph-name="five" unicode="5" horiz-adv-x="605" 
d="M542 233c0 -81 -24 -142 -71 -183s-111 -61 -192 -61c-82 0 -156 21 -221 64l38 62c59 -37 122 -56 189 -56c59 0 103 15 134 46s46 72 46 123c0 46 -14 82 -43 108s-70 39 -124 39s-103 -15 -146 -45l-77 30l24 340h401v-74h-334l-17 -225c43 29 94 44 154 44
c78 0 137 -19 178 -57c41 -39 61 -90 61 -155z" />
    <glyph glyph-name="six" unicode="6" horiz-adv-x="614" 
d="M570 216c0 -73 -24 -129 -72 -168s-110 -59 -186 -59c-75 0 -136 22 -182 67s-69 114 -69 209c0 39 4 77 12 115s22 76 43 116c20 38 45 73 74 103c30 30 69 55 116 76c48 21 101 33 160 36v-69c-183 -16 -293 -114 -330 -294c51 55 119 82 202 82c68 0 124 -18 167 -55
s65 -90 65 -159zM493 212c0 47 -15 83 -46 109s-74 39 -129 39s-99 -14 -132 -40c-32 -28 -48 -63 -48 -108c0 -44 16 -80 49 -110c33 -28 75 -43 128 -43c57 0 101 14 131 42c32 28 47 65 47 111z" />
    <glyph glyph-name="seven" unicode="7" horiz-adv-x="556" 
d="M476 627c-151 -187 -229 -396 -233 -627h-79c6 226 82 435 227 626h-375v74h460v-73z" />
    <glyph glyph-name="eight" unicode="8" horiz-adv-x="636" 
d="M578 196c0 -67 -23 -118 -70 -154c-46 -35 -110 -53 -191 -53s-145 17 -191 53c-45 34 -68 85 -68 152c0 90 46 150 139 181c-73 29 -109 78 -109 148c0 56 20 101 61 136s97 52 170 52s129 -17 169 -51s60 -79 60 -135c0 -68 -36 -117 -109 -148
c93 -31 139 -91 139 -181zM471 523c0 33 -13 61 -38 84s-64 34 -116 34s-90 -11 -115 -33c-25 -23 -37 -50 -37 -83c0 -35 14 -63 41 -85c28 -23 66 -34 113 -34c45 0 82 11 110 34c28 22 42 50 42 83zM501 194c0 42 -16 76 -49 102c-33 27 -78 40 -135 40
s-102 -13 -134 -38c-32 -26 -48 -60 -48 -102s16 -75 47 -100s77 -37 137 -37s105 12 136 36s46 57 46 99z" />
    <glyph glyph-name="nine" unicode="9" horiz-adv-x="614" 
d="M553 435c0 -39 -4 -77 -12 -115s-22 -76 -43 -116c-20 -38 -45 -73 -74 -103c-30 -30 -69 -55 -116 -76c-48 -21 -101 -33 -160 -36v69c183 16 293 114 330 294c-51 -55 -119 -82 -202 -82c-68 0 -124 18 -167 55s-65 90 -65 159c0 73 24 129 72 168s110 59 186 59
c75 0 136 -22 182 -67s69 -114 69 -209zM476 488c0 44 -16 80 -49 110c-33 28 -75 43 -128 43c-57 0 -101 -14 -131 -42c-32 -28 -47 -65 -47 -111c0 -47 15 -83 46 -109s74 -39 129 -39s99 14 132 40c32 28 48 63 48 108z" />
    <glyph glyph-name="colon" unicode=":" horiz-adv-x="240" 
d="M184 470c0 -17 -6 -32 -19 -45s-28 -19 -45 -19s-32 6 -45 19s-19 28 -19 45s6 33 19 46s28 20 45 20s32 -7 44 -20c14 -13 20 -29 20 -46zM184 53c0 -17 -6 -32 -19 -45s-28 -19 -45 -19s-32 6 -45 19s-19 28 -19 45s6 33 19 46s28 20 45 20s32 -7 44 -20
c14 -13 20 -29 20 -46z" />
    <glyph glyph-name="semicolon" unicode=";" horiz-adv-x="240" 
d="M184 470c0 -17 -6 -32 -19 -45s-28 -19 -45 -19s-32 6 -45 19s-19 28 -19 45s6 33 19 46s28 20 45 20s32 -7 44 -20c14 -13 20 -29 20 -46zM170 115l-65 -233h-52l15 233h102z" />
    <glyph glyph-name="less" unicode="&#x3c;" horiz-adv-x="385" 
d="M316 62l-259 248v68l259 248v-93l-200 -188l200 -188v-95z" />
    <glyph glyph-name="equal" unicode="=" horiz-adv-x="577" 
d="M497 418h-417v70h417v-70zM497 200h-417v70h417v-70z" />
    <glyph glyph-name="greater" unicode="&#x3e;" horiz-adv-x="385" 
d="M328 310l-259 -248v93l200 188l-200 188v95l259 -248v-68z" />
    <glyph glyph-name="question" unicode="?" horiz-adv-x="561" 
d="M494 539c0 -45 -10 -79 -28 -103c-20 -25 -51 -51 -96 -78c-33 -20 -54 -40 -63 -60s-13 -57 -13 -110h-77c0 68 7 115 20 142c13 26 46 55 98 87c29 17 49 34 62 51s19 38 19 65c0 32 -13 58 -39 77c-26 20 -60 30 -102 30c-65 0 -126 -26 -181 -77l-50 55
c63 62 141 93 234 93c65 0 118 -15 157 -45c39 -29 59 -72 59 -127zM315 50c0 -17 -6 -31 -19 -43c-12 -12 -26 -18 -42 -18c-17 0 -31 6 -43 18s-18 26 -18 43s6 31 18 44s26 19 43 19c16 0 30 -6 42 -19c13 -13 19 -27 19 -44z" />
    <glyph glyph-name="at" unicode="@" horiz-adv-x="836" 
d="M779 360c0 -139 -49 -208 -148 -208c-24 0 -45 6 -65 18c-18 11 -33 26 -42 45c-33 -42 -77 -63 -130 -63c-45 0 -82 12 -110 35c-29 23 -43 57 -43 102c0 41 15 73 45 97c31 22 70 34 117 34c44 0 81 -9 111 -27v59c0 43 -34 64 -103 64c-35 0 -69 -8 -102 -24l-22 43
c41 21 85 31 131 31c99 0 148 -37 148 -111v-193c0 -19 6 -35 18 -47c11 -12 29 -18 53 -18c61 0 92 54 92 162c0 90 -29 163 -88 220s-133 85 -223 85c-91 0 -165 -29 -224 -86c-58 -57 -87 -133 -87 -226c0 -94 29 -170 87 -228c59 -59 133 -88 224 -88c49 0 95 10 136 31
l18 -44c-50 -23 -101 -34 -154 -34c-105 0 -191 34 -259 102s-102 154 -102 259s34 191 102 259s154 102 259 102s191 -34 259 -103c68 -68 102 -151 102 -248zM514 262v81c-32 19 -71 29 -116 29c-30 0 -54 -8 -73 -22c-19 -16 -28 -35 -28 -58c0 -60 34 -90 102 -90
c23 0 45 6 66 16c21 12 37 26 49 44z" />
    <glyph glyph-name="A" unicode="A" horiz-adv-x="678" 
d="M625 0h-82l-60 178h-289l-61 -178h-80l243 700h86zM459 249l-77 230c-21 61 -36 107 -43 138c-8 -31 -23 -78 -44 -140l-77 -228h241z" />
    <glyph glyph-name="B" unicode="B" horiz-adv-x="626" 
d="M571 207c0 -69 -19 -120 -59 -155c-38 -35 -95 -52 -169 -52h-251v700h256c58 0 104 -15 138 -44c35 -29 52 -73 52 -131c0 -71 -34 -119 -101 -143c89 -24 134 -82 134 -175zM460 522c0 33 -10 60 -29 78c-19 20 -48 29 -86 29h-175v-218h169c41 0 72 10 91 31
c20 21 30 47 30 80zM493 203c0 43 -13 77 -40 101c-27 25 -63 37 -109 37h-174v-270h178c97 0 145 44 145 132z" />
    <glyph glyph-name="C" unicode="C" horiz-adv-x="628" 
d="M574 105c-57 -77 -134 -116 -229 -116c-85 0 -153 34 -205 102s-78 154 -78 258c0 105 27 191 80 259c53 69 122 103 206 103c95 0 169 -37 223 -112l-62 -47c-23 31 -47 54 -71 68c-25 13 -55 20 -92 20c-60 0 -109 -27 -148 -81s-58 -123 -58 -208s20 -154 59 -209
s89 -82 148 -82c68 0 126 31 173 92z" />
    <glyph glyph-name="D" unicode="D" horiz-adv-x="658" 
d="M596 355c0 -121 -30 -210 -92 -268c-60 -58 -141 -87 -241 -87h-171v700h185c97 0 174 -29 232 -86s87 -144 87 -259zM518 352c0 90 -21 159 -64 206c-42 47 -103 71 -183 71h-101v-558h103c163 0 245 94 245 281z" />
    <glyph glyph-name="E" unicode="E" horiz-adv-x="587" 
d="M530 0h-438v700h423v-71h-345v-220h200v-71h-200v-267h360v-71z" />
    <glyph glyph-name="F" unicode="F" horiz-adv-x="548" 
d="M503 629h-333v-232h192v-71h-192v-326h-78v700h411v-71z" />
    <glyph glyph-name="G" unicode="G" horiz-adv-x="659" 
d="M604 279c0 -93 -24 -165 -72 -215c-47 -50 -110 -75 -187 -75c-85 0 -153 34 -205 102s-78 154 -78 258c0 105 27 191 80 259c53 69 122 103 206 103c95 0 169 -37 223 -112l-62 -47c-23 31 -47 54 -71 68c-25 13 -55 20 -92 20c-60 0 -109 -27 -148 -81
s-58 -123 -58 -208s20 -154 59 -209s89 -82 148 -82s103 18 135 54c30 35 46 87 46 155v6h-126v72h202v-68z" />
    <glyph glyph-name="H" unicode="H" horiz-adv-x="688" 
d="M596 0h-78v330h-348v-330h-78v700h78v-299h348v299h78v-700z" />
    <glyph glyph-name="I" unicode="I" horiz-adv-x="272" 
d="M175 0h-78v700h78v-700z" />
    <glyph glyph-name="J" unicode="J" horiz-adv-x="578" 
d="M491 268c0 -186 -80 -279 -239 -279c-110 0 -184 56 -222 169l74 25c15 -41 34 -71 58 -92c22 -21 54 -31 93 -31c56 0 96 17 121 50s37 87 37 161v429h78v-432z" />
    <glyph glyph-name="K" unicode="K" horiz-adv-x="642" 
d="M599 0h-89l-207 373l-133 -172v-201h-78v700h78v-305v-94c25 35 59 81 102 137l203 262h85l-205 -263z" />
    <glyph glyph-name="L" unicode="L" horiz-adv-x="575" 
d="M516 0h-424v700h78v-629h346v-71z" />
    <glyph glyph-name="M" unicode="M" horiz-adv-x="788" 
d="M696 0h-75v474v75c-6 -23 -20 -61 -42 -116l-187 -451l-184 451c-19 46 -33 85 -41 116v-75v-474h-75v700h87l165 -419c26 -65 43 -110 50 -136c7 23 23 68 50 136l167 419h85v-700z" />
    <glyph glyph-name="N" unicode="N" horiz-adv-x="688" 
d="M596 0h-73l-306 479c-20 32 -37 61 -50 88v-48v-519h-75v700h76l303 -488c20 -32 37 -61 50 -88v48v528h75v-700z" />
    <glyph glyph-name="O" unicode="O" horiz-adv-x="705" 
d="M643 351c0 -106 -27 -193 -81 -261c-54 -67 -124 -101 -211 -101s-157 33 -209 101c-54 66 -80 153 -80 259s27 193 80 261c54 67 124 101 211 101s157 -33 210 -101c53 -66 80 -153 80 -259zM565 349c0 87 -20 157 -61 211c-41 53 -92 80 -154 80
c-61 0 -112 -26 -151 -80c-39 -52 -59 -122 -59 -209s20 -157 60 -211c41 -53 92 -80 154 -80c61 0 112 26 152 80c39 52 59 122 59 209z" />
    <glyph glyph-name="P" unicode="P" horiz-adv-x="618" 
d="M577 491c0 -68 -22 -121 -65 -159s-101 -57 -172 -57h-170v-275h-78v700h262c67 0 120 -18 162 -54c40 -35 61 -87 61 -155zM499 488c0 45 -13 80 -38 104c-25 25 -62 37 -110 37h-181v-283h171c105 0 158 47 158 142z" />
    <glyph glyph-name="Q" unicode="Q" horiz-adv-x="705" 
d="M643 351c0 -64 -11 -122 -33 -175c-21 -52 -51 -94 -90 -126l45 -73l-64 -38l-44 72c-33 -15 -69 -22 -106 -22c-87 0 -157 33 -209 101c-54 66 -80 153 -80 259s27 193 80 261c54 67 124 101 211 101s157 -33 210 -101c53 -66 80 -153 80 -259zM565 349
c0 87 -20 157 -61 211c-41 53 -92 80 -154 80c-61 0 -112 -26 -151 -80c-39 -52 -59 -122 -59 -209s20 -157 60 -211c41 -53 92 -80 154 -80c24 0 46 4 66 12l-57 93l64 38l56 -92c55 53 82 132 82 238z" />
    <glyph glyph-name="R" unicode="R" horiz-adv-x="650" 
d="M587 502c0 -53 -15 -97 -44 -131s-70 -56 -121 -67l154 -304h-90l-150 298h-166v-298h-78v700h277c65 0 117 -17 157 -50c41 -34 61 -83 61 -148zM509 499c0 87 -48 130 -143 130h-196v-261h186c102 0 153 44 153 131z" />
    <glyph glyph-name="S" unicode="S" horiz-adv-x="592" 
d="M522 184c0 -57 -21 -103 -62 -140c-42 -37 -99 -55 -170 -55c-46 0 -90 9 -130 27c-42 17 -76 41 -105 70l52 58c58 -56 120 -84 186 -84c47 0 83 11 111 32c26 22 40 51 40 88c0 33 -12 60 -36 82c-24 21 -68 43 -131 66c-76 27 -129 56 -158 85s-44 69 -44 119
c0 55 20 99 60 131s93 48 159 48c79 0 150 -25 213 -75l-50 -61c-53 43 -109 65 -168 65c-45 0 -79 -10 -102 -29s-34 -44 -34 -74c0 -31 11 -56 33 -75c21 -20 66 -42 133 -66c77 -28 131 -57 159 -88c30 -31 44 -72 44 -124z" />
    <glyph glyph-name="T" unicode="T" horiz-adv-x="588" 
d="M539 629h-206v-629h-78v629h-206v71h490v-71z" />
    <glyph glyph-name="U" unicode="U" horiz-adv-x="678" 
d="M591 286c0 -198 -84 -297 -251 -297c-83 0 -146 25 -189 75c-43 49 -64 123 -64 220v416h78v-414c0 -151 60 -226 179 -226c59 0 102 18 129 54c27 37 40 93 40 170v416h78v-414z" />
    <glyph glyph-name="V" unicode="V" horiz-adv-x="668" 
d="M615 700l-238 -700h-86l-238 700h82l156 -479c18 -55 32 -101 43 -138c2 7 17 54 44 140l157 477h80z" />
    <glyph glyph-name="W" unicode="W" horiz-adv-x="856" 
d="M799 700l-140 -700h-88l-110 448c-14 58 -25 111 -34 158c-7 -34 -18 -87 -34 -158l-110 -448h-86l-140 700h78l82 -450c3 -15 7 -42 13 -81c7 -39 11 -64 13 -75c8 45 19 97 33 154l111 452h84l111 -452c14 -57 25 -109 33 -154c2 11 6 36 13 75c6 39 10 66 13 81
l82 450h76z" />
    <glyph glyph-name="X" unicode="X" horiz-adv-x="632" 
d="M575 0h-88l-107 183c-32 55 -53 94 -64 116c-25 -48 -47 -87 -64 -116l-109 -183h-86l218 364l-200 336h88l90 -153c17 -29 39 -68 64 -116c11 22 32 61 64 116l90 153h86l-200 -334z" />
    <glyph glyph-name="Y" unicode="Y" horiz-adv-x="652" 
d="M605 700l-240 -422v-278h-78v277l-240 423h89l112 -201c35 -63 61 -113 79 -150c23 46 49 96 79 150l112 201h87z" />
    <glyph glyph-name="Z" unicode="Z" horiz-adv-x="628" 
d="M561 0h-500v68l331 451l85 113h-79h-317v68h480v-68l-331 -451l-85 -113h79h337v-68z" />
    <glyph glyph-name="bracketleft" unicode="[" horiz-adv-x="352" 
d="M289 -110h-194v810h194v-61h-121v-688h121v-61z" />
    <glyph glyph-name="backslash" unicode="\" horiz-adv-x="425" 
d="M399 -90h-74l-299 880h74z" />
    <glyph glyph-name="bracketright" unicode="]" horiz-adv-x="352" 
d="M257 -110h-194v61h121v688h-121v61h194v-810z" />
    <glyph glyph-name="asciicircum" unicode="^" horiz-adv-x="558" 
d="M511 382h-86l-147 236l-147 -236h-84l204 318h56z" />
    <glyph glyph-name="underscore" unicode="_" horiz-adv-x="500" 
d="M500 -153h-500v63h500v-63z" />
    <glyph glyph-name="quoteleft" unicode="&#x2018;" horiz-adv-x="252" 
d="M177 700l-15 -223h-102l65 223h52z" />
    <glyph glyph-name="a" unicode="a" horiz-adv-x="539" 
d="M459 0h-75v64c-46 -50 -101 -75 -164 -75c-47 0 -87 13 -120 40c-32 27 -48 69 -48 128c0 55 19 97 58 125c39 29 86 43 143 43c51 0 94 -10 131 -30v62c0 77 -38 116 -114 116c-49 0 -97 -13 -143 -40l-28 61c51 28 110 42 176 42c123 0 184 -57 184 -170v-366zM384 129
v106c-36 20 -81 30 -135 30c-39 0 -69 -9 -91 -27c-21 -18 -32 -43 -32 -76c0 -38 10 -66 28 -84c20 -19 46 -28 79 -28c63 0 113 26 151 79z" />
    <glyph glyph-name="b" unicode="b" horiz-adv-x="559" 
d="M504 271c0 -89 -19 -159 -56 -208s-85 -74 -142 -74s-107 23 -148 70v-59h-75v687l75 42v-268c46 50 99 75 158 75c56 0 101 -22 136 -66c35 -45 52 -111 52 -199zM430 270c0 65 -12 115 -35 150c-23 34 -56 51 -98 51c-52 0 -98 -25 -139 -76v-262c15 -23 36 -42 60 -57
c26 -15 53 -22 82 -22c87 0 130 72 130 216z" />
    <glyph glyph-name="c" unicode="c" horiz-adv-x="495" 
d="M447 474l-45 -56c-39 35 -81 53 -126 53c-42 0 -77 -18 -104 -55c-27 -36 -41 -86 -41 -150c0 -65 13 -117 39 -155c27 -38 63 -57 109 -57c42 0 82 19 121 56l45 -48c-47 -49 -104 -73 -169 -73c-62 0 -114 23 -157 71c-43 46 -64 113 -64 200c0 91 22 159 67 206
s98 70 159 70c63 0 119 -21 166 -62z" />
    <glyph glyph-name="d" unicode="d" horiz-adv-x="559" 
d="M476 0h-75v64c-46 -50 -99 -75 -158 -75c-56 0 -101 22 -136 67c-35 44 -52 110 -52 198c0 89 19 159 56 208s85 74 142 74s107 -23 148 -70v221l75 42v-729zM401 130v262c-15 23 -35 42 -61 57c-24 15 -52 22 -81 22c-87 0 -130 -72 -130 -216c0 -65 12 -115 35 -149
c23 -35 56 -52 98 -52c52 0 98 25 139 76z" />
    <glyph glyph-name="e" unicode="e" horiz-adv-x="540" 
d="M483 278c0 -15 -1 -29 -3 -41h-350c3 -57 18 -101 44 -134c25 -33 59 -49 102 -49c29 0 53 4 74 12c21 7 44 20 71 38l35 -54c-35 -22 -65 -38 -92 -47s-59 -14 -96 -14c-25 0 -50 5 -74 15s-47 25 -68 46c-21 20 -38 48 -52 86c-12 36 -19 80 -19 129
c0 82 20 148 61 197s93 74 156 74c67 0 118 -24 156 -71c36 -47 55 -110 55 -187zM413 298c-3 53 -17 96 -41 126c-23 32 -57 47 -101 47c-40 0 -72 -15 -97 -43c-25 -30 -39 -73 -44 -130h283z" />
    <glyph glyph-name="f" unicode="f" horiz-adv-x="356" 
d="M309 646c-17 8 -38 12 -61 12c-36 0 -54 -18 -54 -55v-78h103v-63h-103v-462h-75v462h-72v63h72v72c0 86 41 129 124 129c26 0 48 -3 66 -9v-71z" />
    <glyph glyph-name="g" unicode="g" horiz-adv-x="559" 
d="M476 47c0 -81 -20 -140 -61 -179c-41 -38 -109 -58 -205 -61l-24 57c85 3 142 16 172 42c28 24 43 68 43 131v27c-46 -50 -99 -75 -158 -75c-56 0 -101 22 -136 67c-35 44 -52 110 -52 198c0 89 19 159 56 208s85 74 142 74s107 -23 148 -70v59h75v-478zM401 130v262
c-15 23 -35 42 -61 57c-24 15 -52 22 -81 22c-87 0 -130 -72 -130 -216c0 -65 12 -115 35 -149c23 -35 56 -52 98 -52c52 0 98 25 139 76z" />
    <glyph glyph-name="h" unicode="h" horiz-adv-x="567" 
d="M487 0h-75v307c0 56 -10 97 -30 124c-21 27 -52 40 -94 40c-39 0 -70 -14 -94 -41s-36 -68 -36 -123v-307h-75v687l75 42v-268c34 50 82 75 145 75c58 0 103 -18 135 -53c33 -35 49 -90 49 -163v-320z" />
    <glyph glyph-name="i" unicode="i" horiz-adv-x="251" 
d="M179 672c0 -15 -5 -27 -15 -38c-11 -10 -23 -15 -37 -15c-15 0 -28 5 -39 15c-11 11 -16 23 -16 38s5 28 16 38c11 11 24 16 39 16c14 0 26 -5 37 -16c10 -11 15 -23 15 -38zM163 0h-75v525h75v-525z" />
    <glyph glyph-name="j" unicode="j" horiz-adv-x="251" 
d="M179 672c0 -15 -5 -27 -15 -38c-11 -10 -23 -15 -37 -15c-15 0 -28 5 -39 15c-11 11 -16 23 -16 38s5 28 16 38c11 11 24 16 39 16c14 0 26 -5 37 -16c10 -11 15 -23 15 -38zM163 12c0 -63 -10 -109 -30 -138s-62 -51 -125 -67l-25 56c46 14 75 30 87 49
c12 18 18 52 18 101v512h75v-513z" />
    <glyph glyph-name="k" unicode="k" horiz-adv-x="505" 
d="M463 0h-81l-133 276l-91 -125v-151h-75v687l75 42v-453v-27l21 32l172 244h84l-138 -186z" />
    <glyph glyph-name="l" unicode="l" horiz-adv-x="251" 
d="M163 0h-75v687l75 42v-729z" />
    <glyph glyph-name="m" unicode="m" horiz-adv-x="848" 
d="M768 0h-75v307c0 59 -9 101 -27 126c-19 25 -47 38 -86 38c-78 0 -117 -55 -117 -164v-307h-75v307c0 58 -9 100 -28 125c-19 26 -47 39 -85 39c-78 0 -117 -55 -117 -164v-307h-75v525h75v-64c30 50 74 75 133 75c66 0 114 -30 144 -90c37 60 90 90 159 90
c116 0 174 -72 174 -216v-320z" />
    <glyph glyph-name="n" unicode="n" horiz-adv-x="567" 
d="M487 0h-75v307c0 56 -10 97 -30 124c-21 27 -52 40 -94 40c-39 0 -70 -14 -94 -41s-36 -68 -36 -123v-307h-75v525h75v-64c34 50 82 75 145 75c58 0 103 -18 135 -53c33 -35 49 -90 49 -163v-320z" />
    <glyph glyph-name="o" unicode="o" horiz-adv-x="566" 
d="M511 266c0 -86 -22 -154 -65 -203s-98 -74 -165 -74s-121 24 -163 72s-63 115 -63 201s22 153 65 202c43 48 98 72 165 72s121 -24 163 -70c42 -48 63 -114 63 -200zM436 264c0 67 -14 119 -42 154c-27 35 -64 53 -111 53s-84 -18 -111 -53s-41 -87 -41 -154
s14 -119 41 -156c27 -36 64 -54 111 -54s84 18 111 54c28 37 42 89 42 156z" />
    <glyph glyph-name="p" unicode="p" horiz-adv-x="559" 
d="M504 271c0 -89 -19 -159 -56 -208s-85 -74 -142 -74s-107 23 -148 70v-210l-75 -42v718h75v-64c46 50 99 75 158 75c56 0 101 -22 136 -66c35 -45 52 -111 52 -199zM430 270c0 65 -12 115 -35 150c-23 34 -56 51 -98 51c-52 0 -98 -25 -139 -76v-262
c15 -23 36 -42 60 -57c26 -15 53 -22 82 -22c87 0 130 72 130 216z" />
    <glyph glyph-name="q" unicode="q" horiz-adv-x="559" 
d="M476 -151l-75 -42v257c-46 -50 -99 -75 -158 -75c-56 0 -101 22 -136 67c-35 44 -52 110 -52 198c0 89 19 159 56 208s85 74 142 74s107 -23 148 -70v59h75v-676zM401 130v262c-15 23 -35 42 -61 57c-24 15 -52 22 -81 22c-87 0 -130 -72 -130 -216
c0 -65 12 -115 35 -149c23 -35 56 -52 98 -52c52 0 98 25 139 76z" />
    <glyph glyph-name="r" unicode="r" horiz-adv-x="407" 
d="M370 523l-19 -76c-23 13 -50 20 -79 20c-37 0 -65 -14 -84 -42c-20 -28 -30 -67 -30 -117v-308h-75v525h75v-65c13 22 31 40 54 54c23 15 49 22 76 22c35 0 63 -4 82 -13z" />
    <glyph glyph-name="s" unicode="s" horiz-adv-x="467" 
d="M408 137c0 -49 -18 -85 -52 -111c-36 -24 -78 -37 -128 -37c-67 0 -129 22 -185 67l44 55c44 -39 92 -58 143 -58c71 0 106 27 106 81c0 21 -9 39 -26 54c-18 15 -51 32 -98 53c-56 24 -95 47 -116 69c-22 21 -33 52 -33 92s15 72 46 97s70 37 118 37
c67 0 123 -19 168 -56l-42 -55c-40 31 -84 47 -131 47c-27 0 -49 -6 -64 -18s-23 -28 -23 -47c0 -21 8 -39 23 -51c15 -14 46 -30 93 -51c30 -13 53 -24 67 -33c16 -8 31 -19 47 -32s27 -28 33 -44c7 -17 10 -36 10 -59z" />
    <glyph glyph-name="t" unicode="t" horiz-adv-x="372" 
d="M309 462h-130v-342c0 -23 4 -40 11 -49c8 -9 22 -14 42 -14c25 0 50 5 74 15l-5 -65c-29 -12 -61 -18 -97 -18c-33 0 -58 9 -75 28s-25 49 -25 91v354h-65v63h65v162l75 42v-204h130v-63z" />
    <glyph glyph-name="u" unicode="u" horiz-adv-x="567" 
d="M484 0h-75v64c-34 -50 -82 -75 -145 -75c-58 0 -103 18 -136 53c-32 35 -48 90 -48 163v320h75v-307c0 -56 10 -97 31 -124c20 -27 51 -40 93 -40c39 0 70 14 94 41s36 68 36 123v307h75v-525z" />
    <glyph glyph-name="v" unicode="v" horiz-adv-x="522" 
d="M482 525l-188 -525h-66l-188 525h80l134 -413l8 -25l8 25l134 413h78z" />
    <glyph glyph-name="w" unicode="w" horiz-adv-x="730" 
d="M683 525l-139 -525h-69l-95 352c-7 24 -12 49 -16 74c-4 -25 -9 -50 -16 -74l-95 -352h-67l-139 525h77l82 -347c1 -7 4 -20 8 -38c3 -20 6 -31 7 -36c7 35 13 60 17 74l94 347h68l94 -347c4 -14 10 -39 17 -74c1 5 4 16 7 36c4 18 7 31 8 38l82 347h75z" />
    <glyph glyph-name="x" unicode="x" horiz-adv-x="504" 
d="M453 0h-83l-104 182l-16 29l-16 -29l-105 -182h-78l162 271l-151 254h83l93 -163l16 -29l16 29l94 163h78l-151 -252z" />
    <glyph glyph-name="y" unicode="y" horiz-adv-x="531" 
d="M491 525l-261 -710h-75l72 191l-187 519h79l128 -381l18 -54l18 53l129 382h79z" />
    <glyph glyph-name="z" unicode="z" horiz-adv-x="492" 
d="M426 0h-372v55l287 407h-264v63h349v-55l-287 -407h287v-63z" />
    <glyph glyph-name="braceleft" unicode="{" horiz-adv-x="397" 
d="M344 -110c-70 2 -122 20 -154 55c-34 35 -50 87 -50 158v86c0 29 -4 48 -12 57c-9 10 -24 15 -47 15h-24v70h24c23 0 38 5 47 15c8 9 12 28 12 57v89c0 71 16 123 50 158c32 35 84 53 154 55v-63c-47 -5 -80 -19 -100 -40s-30 -55 -30 -101v-70c0 -41 -4 -72 -12 -91
c-9 -19 -24 -34 -47 -45c23 -11 38 -26 47 -45c8 -19 12 -50 12 -91v-65c0 -46 10 -80 30 -101s53 -35 100 -40v-63z" />
    <glyph glyph-name="bar" unicode="|" horiz-adv-x="304" 
d="M188 -185h-72v985h72v-985z" />
    <glyph glyph-name="braceright" unicode="}" horiz-adv-x="397" 
d="M340 264h-24c-23 0 -38 -5 -46 -14c-9 -10 -13 -29 -13 -58v-89c0 -71 -17 -123 -49 -158c-34 -35 -85 -53 -155 -55v63c47 5 80 19 100 40s30 55 30 101v70c0 41 4 72 13 91c8 19 23 34 46 45c-23 11 -38 26 -46 45c-9 19 -13 50 -13 91v65c0 46 -10 80 -30 101
s-53 35 -100 40v63c70 -2 121 -20 155 -55c32 -35 49 -87 49 -158v-86c0 -29 4 -48 13 -58c8 -9 23 -14 46 -14h24v-70z" />
    <glyph glyph-name="asciitilde" unicode="~" horiz-adv-x="552" 
d="M509 422c-18 -44 -38 -76 -59 -96c-22 -20 -50 -30 -84 -30c-29 0 -60 11 -94 34c-39 26 -68 39 -86 39c-17 0 -31 -6 -42 -17c-10 -11 -22 -32 -35 -62l-66 30c18 44 38 76 59 96c22 20 50 30 84 30c28 0 59 -11 94 -34c41 -26 69 -39 86 -39s31 5 41 16s22 32 36 63z
" />
    <glyph glyph-name="exclamdown" unicode="&#xa1;" horiz-adv-x="263" 
d="M193 650c0 -17 -6 -31 -18 -44s-26 -19 -43 -19c-16 0 -30 6 -42 19c-13 13 -19 27 -19 44s6 31 19 43c12 12 26 18 42 18c17 0 31 -6 43 -18s18 -26 18 -43zM170 0h-77v329l18 183h42l17 -183v-329z" />
    <glyph glyph-name="cent" unicode="&#xa2;" horiz-adv-x="495" 
d="M447 568l-43 -54c-23 19 -43 32 -61 40c-18 7 -40 11 -67 11c-42 0 -77 -18 -104 -55c-27 -36 -41 -86 -41 -150c0 -65 13 -117 39 -155c27 -38 63 -57 109 -57c43 0 84 18 122 55l44 -47c-39 -39 -82 -63 -131 -70v-97h-77v97c-53 9 -96 37 -131 83
c-34 46 -51 108 -51 185c0 79 17 141 52 187s78 74 130 85v94h77v-92c51 -7 95 -27 133 -60z" />
    <glyph glyph-name="sterling" unicode="&#xa3;" horiz-adv-x="611" 
d="M552 0h-468v70c33 39 58 74 74 106c15 33 23 72 24 117h-98v68h87c-5 13 -16 34 -33 63c-23 37 -34 74 -34 112c0 55 21 98 63 128c42 32 96 47 161 47c80 0 152 -29 216 -87l-47 -57c-51 49 -108 74 -171 74c-47 0 -83 -10 -108 -29c-24 -20 -37 -45 -37 -75
c0 -27 11 -59 32 -94c17 -28 29 -55 36 -82h152v-68h-145c-3 -81 -31 -155 -84 -222h380v-71z" />
    <glyph glyph-name="fraction" unicode="&#x2044;" horiz-adv-x="457" 
d="M508 700l-477 -700h-82l477 700h82z" />
    <glyph glyph-name="yen" unicode="&#xa5;" horiz-adv-x="612" 
d="M575 700l-230 -422v-78h155v-69h-155v-131h-78v131h-164v69h164v77l-230 423h89l104 -201c32 -62 58 -114 77 -155c19 43 45 94 77 155l104 201h87z" />
    <glyph glyph-name="florin" unicode="&#x192;" horiz-adv-x="393" 
d="M333 631c-17 8 -40 12 -68 12c-41 0 -61 -19 -61 -58v-60h107v-63h-107v-613l-75 -42v655h-72v63h72v57c0 45 12 77 36 98s56 31 95 31c31 0 55 -3 73 -9v-71z" />
    <glyph glyph-name="section" unicode="&#xa7;" horiz-adv-x="628" 
d="M573 268c0 -70 -41 -128 -124 -174c36 -27 54 -63 54 -106c0 -46 -18 -83 -54 -110c-36 -28 -83 -42 -140 -42c-69 0 -134 24 -193 72l46 56c27 -22 52 -37 74 -46c24 -8 52 -12 85 -12c31 0 56 7 75 21c20 14 30 32 30 55s-10 43 -31 60c-21 16 -58 31 -112 44
c-87 22 -146 47 -179 75s-49 67 -49 118c0 70 41 128 124 174c-36 27 -54 63 -54 106c0 46 18 83 54 111c36 27 83 41 140 41c69 0 134 -24 193 -72l-46 -56c-27 22 -52 37 -74 45c-24 9 -52 13 -85 13c-31 0 -56 -7 -75 -21c-20 -14 -30 -32 -30 -55s10 -43 31 -59
c21 -17 58 -32 112 -45c87 -22 146 -47 179 -75s49 -67 49 -118zM496 262c0 31 -11 56 -32 74c-21 20 -63 37 -126 52c-41 11 -73 21 -96 30c-73 -34 -110 -78 -110 -133c0 -31 11 -55 32 -75c21 -18 63 -36 126 -51c41 -11 73 -21 96 -30c73 34 110 78 110 133z" />
    <glyph glyph-name="currency" unicode="&#xa4;" horiz-adv-x="595" 
d="M143 249c11 -61 32 -109 63 -141c31 -34 72 -50 123 -50c35 0 64 7 89 22c24 15 48 38 73 69l50 -44c-29 -38 -60 -67 -93 -87c-33 -19 -73 -29 -121 -29c-83 0 -149 32 -197 95c-47 63 -71 152 -71 265c0 115 24 204 73 267s115 95 198 95c48 0 88 -9 120 -26
s61 -46 88 -86l-58 -45c-22 32 -44 55 -66 68s-51 20 -86 20c-49 0 -90 -16 -120 -47c-32 -31 -53 -76 -64 -135h269v-63h-277c-1 -10 -1 -25 -1 -46c0 -17 0 -30 1 -39h277v-63h-270z" />
    <glyph glyph-name="quotesingle" unicode="'" horiz-adv-x="257" 
d="M176 700l-17 -327h-61l-17 327h95z" />
    <glyph glyph-name="quotedblleft" unicode="&#x201c;" horiz-adv-x="469" 
d="M394 700l-15 -223h-102l65 223h52zM177 700l-15 -223h-102l65 223h52z" />
    <glyph glyph-name="guillemotleft" unicode="&#xab;" horiz-adv-x="576" 
d="M531 0h-85l-203 262l203 263h85l-203 -262zM318 0h-85l-203 262l203 263h85l-203 -262z" />
    <glyph glyph-name="guilsinglleft" unicode="&#x2039;" horiz-adv-x="363" 
d="M318 0h-85l-203 262l203 263h85l-203 -262z" />
    <glyph glyph-name="guilsinglright" unicode="&#x203a;" horiz-adv-x="363" 
d="M333 263l-203 -263h-85l203 262l-203 263h85z" />
    <glyph glyph-name="fi" unicode="&#xfb01;" horiz-adv-x="597" 
d="M525 672c0 -15 -5 -27 -15 -38c-11 -10 -23 -15 -37 -15c-15 0 -28 5 -39 15c-11 11 -16 23 -16 38s5 28 16 38c11 11 24 16 39 16c14 0 26 -5 37 -16c10 -11 15 -23 15 -38zM309 646c-17 8 -38 12 -61 12c-36 0 -54 -18 -54 -55v-78h103v-63h-103v-462h-75v462h-72v63
h72v72c0 86 41 129 124 129c26 0 48 -3 66 -9v-71zM509 0h-75v525h75v-525z" />
    <glyph glyph-name="fl" unicode="&#xfb02;" horiz-adv-x="597" 
d="M509 0h-75v687l75 42v-729zM309 646c-17 8 -38 12 -61 12c-36 0 -54 -18 -54 -55v-78h103v-63h-103v-462h-75v462h-72v63h72v72c0 86 41 129 124 129c26 0 48 -3 66 -9v-71z" />
    <glyph glyph-name="endash" unicode="&#x2013;" horiz-adv-x="422" 
d="M371 330h-320v71h320v-71z" />
    <glyph glyph-name="dagger" unicode="&#x2020;" horiz-adv-x="573" 
d="M518 398h-197v-498h-69v498h-197v66h197v236h69v-236h197v-66z" />
    <glyph glyph-name="daggerdbl" unicode="&#x2021;" horiz-adv-x="573" 
d="M518 136h-197v-236h-69v236h-197v65h197v198h-197v65h197v236h69v-236h197v-65h-197v-198h197v-65z" />
    <glyph glyph-name="periodcentered" unicode="&#xb7;" horiz-adv-x="240" 
d="M184 367c0 -17 -6 -32 -19 -45s-28 -19 -45 -19s-32 6 -45 19s-19 28 -19 45s6 33 19 46s28 20 45 20s32 -7 44 -20c14 -13 20 -29 20 -46z" />
    <glyph glyph-name="paragraph" unicode="&#xb6;" horiz-adv-x="688" 
d="M595 -185h-77v817h-91v-817h-77v446h-76c-64 0 -118 20 -162 59c-43 39 -65 93 -65 161c0 67 22 121 65 160c44 39 98 59 162 59h321v-885z" />
    <glyph glyph-name="bullet" unicode="&#x2022;" horiz-adv-x="374" 
d="M294 366c0 -29 -10 -54 -32 -76c-20 -20 -46 -31 -75 -31s-55 11 -75 31c-22 22 -32 47 -32 76s10 55 32 76c20 22 46 33 75 33s55 -11 75 -33c22 -21 32 -47 32 -76z" />
    <glyph glyph-name="quotesinglbase" unicode="&#x201a;" horiz-adv-x="252" 
d="M192 115l-65 -223h-52l15 223h102z" />
    <glyph glyph-name="quotedblbase" unicode="&#x201e;" horiz-adv-x="469" 
d="M409 115l-65 -223h-52l15 223h102zM192 115l-65 -223h-52l15 223h102z" />
    <glyph glyph-name="quotedblright" unicode="&#x201d;" horiz-adv-x="469" 
d="M409 700l-65 -223h-52l15 223h102zM192 700l-65 -223h-52l15 223h102z" />
    <glyph glyph-name="guillemotright" unicode="&#xbb;" horiz-adv-x="576" 
d="M546 263l-203 -263h-85l203 262l-203 263h85zM333 263l-203 -263h-85l203 262l-203 263h85z" />
    <glyph glyph-name="ellipsis" unicode="&#x2026;" horiz-adv-x="720" 
d="M664 53c0 -17 -6 -32 -19 -45s-28 -19 -45 -19s-32 6 -45 19s-19 28 -19 45s6 33 19 46s28 20 45 20s32 -7 44 -20c14 -13 20 -29 20 -46zM424 53c0 -17 -6 -32 -19 -45s-28 -19 -45 -19s-32 6 -45 19s-19 28 -19 45s6 33 19 46s28 20 45 20s32 -7 44 -20
c14 -13 20 -29 20 -46zM184 53c0 -17 -6 -32 -19 -45s-28 -19 -45 -19s-32 6 -45 19s-19 28 -19 45s6 33 19 46s28 20 45 20s32 -7 44 -20c14 -13 20 -29 20 -46z" />
    <glyph glyph-name="perthousand" unicode="&#x2030;" horiz-adv-x="1345" 
d="M385 494c0 -64 -15 -116 -45 -157c-31 -41 -70 -61 -119 -61s-88 20 -117 60c-29 39 -44 91 -44 156s15 118 44 158c30 41 70 61 119 61c50 0 89 -20 119 -59c28 -40 43 -93 43 -158zM735 700l-435 -700h-73l435 700h73zM1300 207c0 -64 -15 -116 -46 -157
c-30 -41 -69 -61 -118 -61s-88 20 -117 59c-29 40 -44 92 -44 157s15 118 45 159c29 40 69 60 118 60c50 0 90 -20 118 -60c30 -39 44 -92 44 -157zM903 207c0 -64 -15 -116 -45 -157c-31 -41 -70 -61 -119 -61s-88 20 -117 59c-29 40 -44 92 -44 157s15 118 44 159
c30 40 70 60 119 60c50 0 89 -20 119 -60c28 -39 43 -92 43 -157zM316 492c0 47 -8 85 -26 114c-16 30 -39 45 -68 45s-51 -15 -68 -43c-17 -30 -25 -67 -25 -114s9 -85 25 -114c18 -29 40 -44 69 -44c28 0 51 15 67 46c18 30 26 67 26 110zM1231 205c0 47 -9 85 -25 115
c-18 29 -40 44 -69 44s-51 -14 -68 -44c-17 -28 -25 -66 -25 -113s8 -85 26 -114c16 -29 39 -44 68 -44c28 0 50 15 68 45c16 31 25 68 25 111zM834 205c0 47 -8 85 -26 115c-16 29 -39 44 -68 44s-51 -14 -68 -44c-17 -28 -25 -66 -25 -113s9 -85 25 -114
c18 -29 40 -44 69 -44c28 0 51 15 67 45c18 31 26 68 26 111z" />
    <glyph glyph-name="questiondown" unicode="&#xbf;" horiz-adv-x="561" 
d="M368 650c0 -17 -6 -31 -18 -44s-26 -19 -43 -19c-16 0 -30 6 -43 19c-12 13 -18 27 -18 44s6 31 18 43c13 12 27 18 43 18c17 0 31 -6 43 -18s18 -26 18 -43zM517 82c-63 -62 -141 -93 -234 -93c-65 0 -118 15 -157 45c-39 29 -59 72 -59 127c0 45 9 79 29 103
c18 25 50 51 95 78c33 20 54 40 63 60s13 57 13 110h77c0 -68 -7 -115 -20 -142c-13 -26 -46 -55 -98 -87c-29 -17 -49 -34 -62 -51s-19 -38 -19 -65c0 -32 13 -58 39 -77c26 -20 60 -30 102 -30c65 0 126 26 181 77z" />
    <glyph glyph-name="grave" unicode="`" horiz-adv-x="500" 
d="M326 595h-59l-151 160h107z" />
    <glyph glyph-name="acute" unicode="&#xb4;" horiz-adv-x="500" 
d="M384 755l-151 -160h-59l103 160h107z" />
    <glyph glyph-name="circumflex" unicode="&#x2c6;" horiz-adv-x="500" 
d="M415 595h-65l-101 103l-101 -103h-63l123 160h84z" />
    <glyph glyph-name="tilde" unicode="&#x2dc;" horiz-adv-x="500" 
d="M428 728c0 -42 -10 -74 -29 -96c-19 -23 -44 -34 -73 -34c-27 0 -51 9 -74 26c-26 20 -43 32 -52 37c-8 5 -17 7 -27 7c-21 0 -34 -22 -39 -67h-62c0 42 10 74 29 97c19 22 44 33 73 33c27 0 51 -9 74 -26c24 -19 41 -31 50 -36c10 -5 20 -8 29 -8c20 0 33 22 39 67h62z
" />
    <glyph glyph-name="macron" unicode="&#xaf;" horiz-adv-x="500" 
d="M386 618h-272v70h272v-70z" />
    <glyph glyph-name="breve" unicode="&#x2d8;" horiz-adv-x="500" 
d="M419 755c-3 -50 -19 -89 -49 -117c-29 -29 -70 -43 -121 -43c-49 0 -88 14 -119 43c-30 29 -46 68 -49 117h62c5 -69 41 -104 108 -104c65 0 101 35 107 104h61z" />
    <glyph glyph-name="dotaccent" unicode="&#x2d9;" horiz-adv-x="500" 
d="M305 658c0 -15 -5 -28 -17 -38c-10 -12 -23 -17 -38 -17s-28 5 -38 17c-12 10 -17 23 -17 38s5 28 17 40c10 10 23 16 38 16s28 -6 38 -16c12 -12 17 -25 17 -40z" />
    <glyph glyph-name="dieresis" unicode="&#xa8;" horiz-adv-x="500" 
d="M402 658c0 -15 -5 -28 -16 -38c-11 -12 -24 -17 -39 -17s-28 5 -39 17c-11 10 -16 23 -16 38s6 28 16 40c12 10 24 16 39 16s27 -6 39 -16c10 -12 16 -25 16 -40zM208 658c0 -15 -5 -28 -16 -38c-11 -12 -23 -17 -38 -17s-29 5 -40 16c-10 11 -16 24 -16 39s6 28 16 40
c12 10 25 16 40 16s27 -6 38 -16c11 -12 16 -25 16 -40z" />
    <glyph glyph-name="ring" unicode="&#x2da;" horiz-adv-x="500" 
d="M367 716c0 -33 -11 -60 -33 -83c-23 -23 -51 -34 -84 -34s-61 11 -84 34c-22 23 -33 50 -33 83s11 60 33 82c22 23 50 34 84 34s62 -11 84 -34c22 -22 33 -49 33 -82zM320 716c0 21 -6 38 -19 51s-30 20 -51 20s-38 -7 -51 -20s-19 -30 -19 -51s6 -39 19 -52
s30 -20 51 -20s38 7 51 20s19 31 19 52z" />
    <glyph glyph-name="cedilla" unicode="&#xb8;" horiz-adv-x="500" 
d="M373 -106c0 -58 -40 -87 -119 -87c-42 0 -81 12 -118 36l19 32c28 -18 59 -27 92 -27c45 0 67 14 67 43c0 22 -11 33 -32 33c-19 0 -35 -6 -48 -18l-36 14l25 80h45l-17 -51c15 9 33 14 55 14c17 0 32 -6 46 -17s21 -29 21 -52z" />
    <glyph glyph-name="hungarumlaut" unicode="&#x2dd;" horiz-adv-x="500" 
d="M444 755l-137 -160h-56l93 160h100zM267 755l-137 -160h-56l93 160h100z" />
    <glyph glyph-name="ogonek" unicode="&#x2db;" horiz-adv-x="500" 
d="M369 -154c-47 -26 -89 -39 -125 -39c-29 0 -51 7 -67 22s-24 35 -24 61c0 37 28 74 84 110h52c-26 -18 -45 -35 -57 -50c-11 -15 -17 -32 -17 -51c0 -14 4 -25 13 -33c8 -9 19 -13 33 -13c28 0 59 7 93 22z" />
    <glyph glyph-name="caron" unicode="&#x2c7;" horiz-adv-x="500" 
d="M415 755l-123 -160h-84l-123 160h65l101 -103l101 103h63z" />
    <glyph glyph-name="emdash" unicode="&#x2014;" horiz-adv-x="580" 
d="M529 330h-478v71h478v-71z" />
    <glyph glyph-name="AE" unicode="&#xc6;" horiz-adv-x="998" 
d="M941 0h-438v178h-273l-117 -178h-89l470 700h432v-71h-349v-220h204v-71h-204v-267h364v-71zM505 600c-8 -13 -30 -47 -65 -101l-164 -250h227v222c0 15 0 39 1 70s1 51 1 59z" />
    <glyph glyph-name="ordfeminine" unicode="&#xaa;" horiz-adv-x="455" 
d="M380 282h-68v44c-35 -35 -78 -53 -127 -53c-39 0 -71 11 -98 33c-27 21 -40 56 -40 103c0 45 16 79 47 102s70 34 117 34c38 0 72 -7 101 -21v43c0 58 -29 87 -87 87c-41 0 -80 -11 -115 -32l-27 54c45 23 93 35 146 35c101 0 151 -46 151 -137v-292zM312 388v80
c-29 15 -64 22 -104 22c-29 0 -52 -7 -69 -20c-17 -14 -25 -33 -25 -57c0 -28 7 -49 22 -63c14 -14 34 -21 59 -21c48 0 87 20 117 59z" />
    <glyph glyph-name="Lslash" unicode="&#x141;" horiz-adv-x="585" 
d="M526 0h-424v238l-62 -54v89l62 54v373h78v-312l161 137v-89l-161 -137v-228h346v-71z" />
    <glyph glyph-name="Oslash" unicode="&#xd8;" horiz-adv-x="705" 
d="M643 351c0 -106 -27 -193 -81 -261c-54 -67 -124 -101 -211 -101c-46 0 -87 10 -124 29l-31 -68h-69l48 104c-75 67 -113 165 -113 295c0 106 27 193 80 261c54 67 124 101 211 101c39 0 76 -8 111 -23l28 62h69l-43 -95c39 -31 70 -72 92 -125s33 -112 33 -179zM434 623
c-27 13 -55 20 -84 20c-62 0 -113 -27 -153 -80s-60 -124 -60 -212c0 -95 24 -169 71 -224zM568 349c0 101 -27 180 -82 236l-229 -501c29 -18 61 -27 97 -27c62 0 113 27 154 81c40 53 60 124 60 211z" />
    <glyph glyph-name="OE" unicode="&#x152;" horiz-adv-x="1043" 
d="M986 0h-427v116c-24 -41 -52 -73 -83 -94c-32 -22 -74 -33 -127 -33c-86 0 -155 34 -208 101s-79 154 -79 260s26 193 79 260s122 101 208 101c93 0 163 -41 210 -124v113h412v-71h-342v-220h197v-71h-197v-267h357v-71zM559 349c0 87 -20 158 -59 211
c-40 53 -91 80 -153 80c-61 0 -111 -26 -149 -79c-39 -53 -58 -123 -58 -210s20 -158 59 -211s90 -80 152 -80c61 0 111 26 150 79s58 123 58 210z" />
    <glyph glyph-name="ordmasculine" unicode="&#xba;" horiz-adv-x="480" 
d="M426 495c0 -69 -18 -123 -53 -162s-80 -59 -135 -59s-99 19 -133 58c-34 38 -51 91 -51 160s18 123 52 162c36 38 81 57 136 57s99 -19 133 -56s51 -91 51 -160zM358 494c0 51 -10 90 -32 117c-20 27 -49 40 -86 40s-66 -13 -86 -40c-22 -27 -32 -66 -32 -117
c0 -52 10 -92 32 -119c20 -27 49 -41 86 -41s66 14 86 41c22 27 32 67 32 119z" />
    <glyph glyph-name="ae" unicode="&#xe6;" horiz-adv-x="838" 
d="M781 278c0 -15 -1 -29 -3 -41h-336c3 -57 17 -102 40 -135c24 -32 57 -48 99 -48c28 0 51 4 69 11s41 20 69 39l35 -54c-35 -23 -65 -38 -90 -48c-24 -8 -54 -13 -91 -13c-70 0 -124 30 -162 91c-29 -33 -58 -56 -87 -70c-30 -14 -67 -21 -111 -21c-46 0 -84 13 -115 40
s-46 69 -46 128c0 56 18 98 55 126s83 42 139 42c46 0 87 -10 124 -30v62c0 40 -8 69 -25 88s-44 28 -82 28c-45 0 -90 -13 -136 -40l-28 61c51 28 108 42 169 42c89 0 140 -32 153 -95c33 63 85 95 156 95c67 0 117 -24 152 -70c35 -48 52 -110 52 -188zM711 298
c-7 115 -52 173 -135 173c-81 0 -125 -58 -134 -173h269zM384 139c-9 27 -14 59 -16 97c-35 19 -77 29 -126 29c-77 0 -116 -34 -116 -103c0 -75 33 -112 100 -112c60 0 113 30 158 89z" />
    <glyph glyph-name="dotlessi" unicode="&#x131;" horiz-adv-x="251" 
d="M163 0h-75v525h75v-525z" />
    <glyph glyph-name="lslash" unicode="&#x142;" horiz-adv-x="261" 
d="M217 359l-49 -43v-316h-75v256l-49 -43v91l49 43v340l75 42v-323l49 44v-91z" />
    <glyph glyph-name="oslash" unicode="&#xf8;" horiz-adv-x="566" 
d="M511 266c0 -86 -22 -154 -65 -203s-98 -74 -165 -74c-32 0 -61 5 -86 16l-26 -55h-66l41 86c-59 47 -89 123 -89 226c0 86 22 153 65 202c43 48 98 72 165 72c31 0 61 -6 89 -17l27 56h66l-42 -87c57 -47 86 -121 86 -222zM346 460c-18 9 -39 13 -63 13
c-47 0 -85 -18 -113 -53c-27 -36 -41 -88 -41 -156c0 -71 15 -125 46 -163zM438 264c0 69 -15 121 -44 158l-171 -358c18 -8 38 -12 60 -12c47 0 85 18 113 55s42 89 42 157z" />
    <glyph glyph-name="oe" unicode="&#x153;" horiz-adv-x="896" 
d="M839 278c0 -15 -1 -29 -3 -41h-340c3 -57 18 -101 42 -134c26 -33 58 -49 99 -49c27 0 50 4 70 12c20 7 43 20 70 38l35 -54c-35 -22 -65 -38 -91 -47s-57 -14 -92 -14c-38 0 -73 12 -104 36s-54 54 -67 89c-15 -37 -38 -68 -69 -90c-31 -24 -68 -35 -113 -35
c-63 0 -116 24 -158 72s-63 115 -63 201c0 85 21 152 65 201c42 49 96 73 160 73c43 0 81 -12 112 -35s54 -53 68 -89c15 37 37 66 67 90c30 22 65 34 106 34c64 0 114 -24 151 -72c37 -47 55 -109 55 -186zM769 298c-3 53 -17 96 -39 126c-24 32 -56 47 -98 47
c-38 0 -69 -15 -93 -44s-38 -72 -43 -129h273zM426 264c0 67 -14 118 -40 154c-28 35 -63 53 -108 53s-80 -18 -107 -53s-40 -87 -40 -154s13 -119 41 -156c26 -36 62 -54 106 -54c45 0 80 18 108 54c26 37 40 89 40 156z" />
    <glyph glyph-name="germandbls" unicode="&#xdf;" horiz-adv-x="572" 
d="M517 226c0 -78 -24 -135 -71 -172c-48 -36 -111 -54 -188 -54h-15v66h18c121 0 181 51 181 153c0 49 -17 85 -51 109c-34 25 -77 37 -128 37h-20v65h23c39 0 70 10 90 30c22 20 32 49 32 88c0 35 -10 62 -32 82c-20 21 -49 31 -84 31c-34 0 -62 -11 -82 -35
c-22 -22 -32 -55 -32 -97v-680l-75 -42v709c0 67 17 118 51 155c35 37 81 55 140 55c57 0 102 -17 137 -50c35 -34 52 -76 52 -127c0 -69 -30 -118 -91 -145c41 -10 75 -29 103 -58s42 -69 42 -120z" />
    <glyph glyph-name="NUL" horiz-adv-x="0" 
 />
    <glyph glyph-name="Eth" unicode="&#xd0;" horiz-adv-x="682" 
d="M606 355c0 -121 -30 -210 -92 -268c-60 -58 -141 -87 -241 -87h-171v331h-62v70h62v299h185c97 0 174 -29 232 -86s87 -144 87 -259zM528 352c0 90 -21 159 -64 206c-42 47 -103 71 -183 71h-103v-228h142v-70h-142v-260h105c163 0 245 94 245 281z" />
    <glyph glyph-name="eth" unicode="&#xf0;" horiz-adv-x="566" 
d="M511 298c0 -105 -20 -182 -59 -233c-40 -51 -97 -76 -171 -76c-64 0 -118 22 -161 65c-43 44 -65 104 -65 181s21 137 62 181s91 66 148 66c79 0 139 -30 178 -89c-20 89 -57 154 -111 196l-56 -63l-51 43l48 54c-29 12 -59 19 -90 22v66c49 -3 94 -16 135 -37l34 37
l51 -43l-29 -32c91 -75 137 -187 137 -338zM436 237c0 61 -14 106 -44 135c-28 30 -67 45 -116 45c-45 0 -81 -16 -106 -47c-26 -31 -39 -76 -39 -133c0 -59 14 -105 42 -136s65 -47 110 -47s82 16 111 47c28 31 42 77 42 136z" />
    <glyph glyph-name="Scaron" unicode="&#x160;" horiz-adv-x="592" 
d="M522 184c0 -57 -21 -103 -62 -140c-42 -37 -99 -55 -170 -55c-46 0 -90 9 -130 27c-42 17 -76 41 -105 70l52 58c58 -56 120 -84 186 -84c47 0 83 11 111 32c26 22 40 51 40 88c0 33 -12 60 -36 82c-24 21 -68 43 -131 66c-76 27 -129 56 -158 85s-44 69 -44 119
c0 55 20 99 60 131s93 48 159 48c79 0 150 -25 213 -75l-50 -61c-53 43 -109 65 -168 65c-45 0 -79 -10 -102 -29s-34 -44 -34 -74c0 -31 11 -56 33 -75c21 -20 66 -42 133 -66c77 -28 131 -57 159 -88c30 -31 44 -72 44 -124zM457 914l-123 -160h-84l-123 160h65l101 -103
l101 103h63z" />
    <glyph glyph-name="scaron" unicode="&#x161;" horiz-adv-x="467" 
d="M408 137c0 -49 -18 -85 -52 -111c-36 -24 -78 -37 -128 -37c-67 0 -129 22 -185 67l44 55c44 -39 92 -58 143 -58c71 0 106 27 106 81c0 21 -9 39 -26 54c-18 15 -51 32 -98 53c-56 24 -95 47 -116 69c-22 21 -33 52 -33 92s15 72 46 97s70 37 118 37
c67 0 123 -19 168 -56l-42 -55c-40 31 -84 47 -131 47c-27 0 -49 -6 -64 -18s-23 -28 -23 -47c0 -21 8 -39 23 -51c15 -14 46 -30 93 -51c30 -13 53 -24 67 -33c16 -8 31 -19 47 -32s27 -28 33 -44c7 -17 10 -36 10 -59zM393 755l-123 -160h-84l-123 160h65l101 -103
l101 103h63z" />
    <glyph glyph-name="Yacute" unicode="&#xdd;" horiz-adv-x="652" 
d="M605 700l-240 -422v-278h-78v277l-240 423h89l112 -201c35 -63 61 -113 79 -150c23 46 49 96 79 150l112 201h87zM499 886l-151 -160h-59l103 160h107z" />
    <glyph glyph-name="yacute" unicode="&#xfd;" horiz-adv-x="531" 
d="M491 525l-261 -710h-75l72 191l-187 519h79l128 -381l18 -54l18 53l129 382h79zM435 745l-151 -160h-59l103 160h107z" />
    <glyph glyph-name="Thorn" unicode="&#xde;" horiz-adv-x="618" 
d="M577 365c0 -68 -22 -121 -65 -159s-101 -57 -172 -57h-170v-149h-78v700h78v-126h184c67 0 120 -18 162 -54c40 -35 61 -87 61 -155zM499 362c0 45 -13 80 -38 104c-25 25 -62 37 -110 37h-181v-283h171c105 0 158 47 158 142z" />
    <glyph glyph-name="thorn" unicode="&#xfe;" horiz-adv-x="559" 
d="M504 271c0 -89 -19 -159 -56 -208s-85 -74 -142 -74s-107 23 -148 70v-210l-75 -42v880l75 42v-268c46 50 99 75 158 75c56 0 101 -22 136 -66c35 -45 52 -111 52 -199zM430 270c0 65 -12 115 -35 150c-23 34 -56 51 -98 51c-52 0 -98 -25 -139 -76v-262
c15 -23 36 -42 60 -57c26 -15 53 -22 82 -22c87 0 130 72 130 216z" />
    <glyph glyph-name="Zcaron" unicode="&#x17d;" horiz-adv-x="628" 
d="M561 0h-500v68l331 451l85 113h-79h-317v68h480v-68l-331 -451l-85 -113h79h337v-68zM481 905l-123 -160h-84l-123 160h65l101 -103l101 103h63z" />
    <glyph glyph-name="zcaron" unicode="&#x17e;" horiz-adv-x="492" 
d="M426 0h-372v55l287 407h-264v63h349v-55l-287 -407h287v-63zM415 755l-123 -160h-84l-123 160h65l101 -103l101 103h63z" />
    <glyph glyph-name="onehalf" unicode="&#xbd;" 
d="M708 345l-166 -121c-4 -3 -7 -4 -9 -3c-3 1 -4 5 -2 10l30 80h-161v-179l80 30c5 2 9 1 10 -2c1 -2 0 -5 -3 -9l-121 -166l-121 166c-3 4 -4 7 -3 9c1 3 5 4 10 2l80 -30v179h-165l30 -80c2 -5 1 -9 -2 -10c-2 -1 -5 0 -9 3l-166 121l166 121c4 3 7 4 9 3
c3 -1 4 -5 2 -10l-30 -80h165v189l-80 -30c-5 -2 -9 -1 -10 2c-1 2 0 5 3 9l121 166l121 -166c3 -4 4 -7 3 -9c-1 -3 -5 -4 -10 -2l-80 30v-189h161l-30 80c-2 5 -1 9 2 10c2 1 5 0 9 -3z" />
    <glyph glyph-name="onequarter" unicode="&#xbc;" 
d="M708 345l-166 -121c-4 -3 -7 -4 -9 -3c-3 1 -4 5 -2 10l30 80h-161v-179l80 30c5 2 9 1 10 -2c1 -2 0 -5 -3 -9l-121 -166l-121 166c-3 4 -4 7 -3 9c1 3 5 4 10 2l80 -30v179h-165l30 -80c2 -5 1 -9 -2 -10c-2 -1 -5 0 -9 3l-166 121l166 121c4 3 7 4 9 3
c3 -1 4 -5 2 -10l-30 -80h165v189l-80 -30c-5 -2 -9 -1 -10 2c-1 2 0 5 3 9l121 166l121 -166c3 -4 4 -7 3 -9c-1 -3 -5 -4 -10 -2l-80 30v-189h161l-30 80c-2 5 -1 9 2 10c2 1 5 0 9 -3z" />
    <glyph glyph-name="onesuperior" unicode="&#xb9;" 
d="M708 345l-166 -121c-4 -3 -7 -4 -9 -3c-3 1 -4 5 -2 10l30 80h-161v-179l80 30c5 2 9 1 10 -2c1 -2 0 -5 -3 -9l-121 -166l-121 166c-3 4 -4 7 -3 9c1 3 5 4 10 2l80 -30v179h-165l30 -80c2 -5 1 -9 -2 -10c-2 -1 -5 0 -9 3l-166 121l166 121c4 3 7 4 9 3
c3 -1 4 -5 2 -10l-30 -80h165v189l-80 -30c-5 -2 -9 -1 -10 2c-1 2 0 5 3 9l121 166l121 -166c3 -4 4 -7 3 -9c-1 -3 -5 -4 -10 -2l-80 30v-189h161l-30 80c-2 5 -1 9 2 10c2 1 5 0 9 -3z" />
    <glyph glyph-name="threequarters" unicode="&#xbe;" 
d="M708 345l-166 -121c-4 -3 -7 -4 -9 -3c-3 1 -4 5 -2 10l30 80h-161v-179l80 30c5 2 9 1 10 -2c1 -2 0 -5 -3 -9l-121 -166l-121 166c-3 4 -4 7 -3 9c1 3 5 4 10 2l80 -30v179h-165l30 -80c2 -5 1 -9 -2 -10c-2 -1 -5 0 -9 3l-166 121l166 121c4 3 7 4 9 3
c3 -1 4 -5 2 -10l-30 -80h165v189l-80 -30c-5 -2 -9 -1 -10 2c-1 2 0 5 3 9l121 166l121 -166c3 -4 4 -7 3 -9c-1 -3 -5 -4 -10 -2l-80 30v-189h161l-30 80c-2 5 -1 9 2 10c2 1 5 0 9 -3z" />
    <glyph glyph-name="threesuperior" unicode="&#xb3;" 
d="M708 345l-166 -121c-4 -3 -7 -4 -9 -3c-3 1 -4 5 -2 10l30 80h-161v-179l80 30c5 2 9 1 10 -2c1 -2 0 -5 -3 -9l-121 -166l-121 166c-3 4 -4 7 -3 9c1 3 5 4 10 2l80 -30v179h-165l30 -80c2 -5 1 -9 -2 -10c-2 -1 -5 0 -9 3l-166 121l166 121c4 3 7 4 9 3
c3 -1 4 -5 2 -10l-30 -80h165v189l-80 -30c-5 -2 -9 -1 -10 2c-1 2 0 5 3 9l121 166l121 -166c3 -4 4 -7 3 -9c-1 -3 -5 -4 -10 -2l-80 30v-189h161l-30 80c-2 5 -1 9 2 10c2 1 5 0 9 -3z" />
    <glyph glyph-name="twosuperior" unicode="&#xb2;" 
d="M708 345l-166 -121c-4 -3 -7 -4 -9 -3c-3 1 -4 5 -2 10l30 80h-161v-179l80 30c5 2 9 1 10 -2c1 -2 0 -5 -3 -9l-121 -166l-121 166c-3 4 -4 7 -3 9c1 3 5 4 10 2l80 -30v179h-165l30 -80c2 -5 1 -9 -2 -10c-2 -1 -5 0 -9 3l-166 121l166 121c4 3 7 4 9 3
c3 -1 4 -5 2 -10l-30 -80h165v189l-80 -30c-5 -2 -9 -1 -10 2c-1 2 0 5 3 9l121 166l121 -166c3 -4 4 -7 3 -9c-1 -3 -5 -4 -10 -2l-80 30v-189h161l-30 80c-2 5 -1 9 2 10c2 1 5 0 9 -3z" />
    <glyph glyph-name="brokenbar" unicode="&#xa6;" 
d="M708 345l-166 -121c-4 -3 -7 -4 -9 -3c-3 1 -4 5 -2 10l30 80h-161v-179l80 30c5 2 9 1 10 -2c1 -2 0 -5 -3 -9l-121 -166l-121 166c-3 4 -4 7 -3 9c1 3 5 4 10 2l80 -30v179h-165l30 -80c2 -5 1 -9 -2 -10c-2 -1 -5 0 -9 3l-166 121l166 121c4 3 7 4 9 3
c3 -1 4 -5 2 -10l-30 -80h165v189l-80 -30c-5 -2 -9 -1 -10 2c-1 2 0 5 3 9l121 166l121 -166c3 -4 4 -7 3 -9c-1 -3 -5 -4 -10 -2l-80 30v-189h161l-30 80c-2 5 -1 9 2 10c2 1 5 0 9 -3z" />
    <glyph glyph-name="minus" unicode="&#x2212;" 
d="M708 345l-166 -121c-4 -3 -7 -4 -9 -3c-3 1 -4 5 -2 10l30 80h-161v-179l80 30c5 2 9 1 10 -2c1 -2 0 -5 -3 -9l-121 -166l-121 166c-3 4 -4 7 -3 9c1 3 5 4 10 2l80 -30v179h-165l30 -80c2 -5 1 -9 -2 -10c-2 -1 -5 0 -9 3l-166 121l166 121c4 3 7 4 9 3
c3 -1 4 -5 2 -10l-30 -80h165v189l-80 -30c-5 -2 -9 -1 -10 2c-1 2 0 5 3 9l121 166l121 -166c3 -4 4 -7 3 -9c-1 -3 -5 -4 -10 -2l-80 30v-189h161l-30 80c-2 5 -1 9 2 10c2 1 5 0 9 -3z" />
    <glyph glyph-name="multiply" unicode="&#xd7;" 
d="M708 345l-166 -121c-4 -3 -7 -4 -9 -3c-3 1 -4 5 -2 10l30 80h-161v-179l80 30c5 2 9 1 10 -2c1 -2 0 -5 -3 -9l-121 -166l-121 166c-3 4 -4 7 -3 9c1 3 5 4 10 2l80 -30v179h-165l30 -80c2 -5 1 -9 -2 -10c-2 -1 -5 0 -9 3l-166 121l166 121c4 3 7 4 9 3
c3 -1 4 -5 2 -10l-30 -80h165v189l-80 -30c-5 -2 -9 -1 -10 2c-1 2 0 5 3 9l121 166l121 -166c3 -4 4 -7 3 -9c-1 -3 -5 -4 -10 -2l-80 30v-189h161l-30 80c-2 5 -1 9 2 10c2 1 5 0 9 -3z" />
    <glyph glyph-name="Adieresis" unicode="&#xc4;" horiz-adv-x="678" 
d="M625 0h-82l-60 178h-289l-61 -178h-80l243 700h86zM459 249l-77 230c-21 61 -36 107 -43 138c-8 -31 -23 -78 -44 -140l-77 -228h241zM492 808c0 -15 -5 -28 -16 -38c-11 -12 -24 -17 -39 -17s-28 5 -39 17c-11 10 -16 23 -16 38s6 28 16 40c12 10 24 16 39 16
s27 -6 39 -16c10 -12 16 -25 16 -40zM298 808c0 -15 -5 -28 -16 -38c-11 -12 -23 -17 -38 -17s-28 5 -40 16c-10 11 -16 24 -16 39s6 28 16 40c12 10 25 16 40 16s27 -6 38 -16c11 -12 16 -25 16 -40z" />
    <glyph glyph-name="Aring" unicode="&#xc5;" horiz-adv-x="678" 
d="M625 0h-82l-60 178h-289l-61 -178h-80l230 658c-41 22 -62 57 -62 105c0 33 11 60 33 83c22 22 50 33 84 33s62 -11 84 -33c22 -23 33 -50 33 -83c0 -47 -20 -82 -61 -104zM408 763c0 21 -6 38 -19 51s-30 20 -51 20s-38 -7 -51 -20s-19 -30 -19 -51s6 -39 19 -52
s30 -20 51 -20s38 7 51 20s19 31 19 52zM459 249l-77 230c-21 61 -36 107 -43 138c-8 -31 -23 -78 -44 -140l-77 -228h241z" />
    <glyph glyph-name="Ccedilla" unicode="&#xc7;" horiz-adv-x="628" 
d="M574 105c-55 -75 -128 -113 -220 -116l-13 -40c15 9 33 14 55 14c17 0 32 -6 46 -17s21 -29 21 -52c0 -58 -40 -87 -119 -87c-42 0 -81 12 -118 36l19 32c28 -18 59 -27 92 -27c45 0 67 14 67 43c0 22 -11 33 -32 33c-19 0 -35 -6 -48 -18l-36 14l22 71
c-75 10 -135 48 -180 114s-68 147 -68 244c0 105 27 191 80 259c53 69 122 103 206 103c95 0 169 -37 223 -112l-62 -47c-23 31 -47 54 -71 68c-25 13 -55 20 -92 20c-60 0 -109 -27 -148 -81s-58 -123 -58 -208s20 -154 59 -209s89 -82 148 -82c68 0 126 31 173 92z" />
    <glyph glyph-name="Eacute" unicode="&#xc9;" horiz-adv-x="587" 
d="M530 0h-438v700h423v-71h-345v-220h200v-71h-200v-267h360v-71zM465 905l-151 -160h-59l103 160h107z" />
    <glyph glyph-name="Ntilde" unicode="&#xd1;" horiz-adv-x="688" 
d="M596 0h-73l-306 479c-20 32 -37 61 -50 88v-48v-519h-75v700h76l303 -488c20 -32 37 -61 50 -88v48v528h75v-700zM527 882c0 -42 -10 -74 -29 -96c-19 -23 -44 -34 -73 -34c-27 0 -51 9 -74 26c-26 20 -43 32 -51 37c-9 5 -18 7 -28 7c-21 0 -34 -22 -39 -67h-62
c0 42 10 74 29 97c19 22 44 33 73 33c27 0 51 -9 74 -26c24 -19 41 -31 51 -36c9 -5 19 -8 28 -8c20 0 33 22 39 67h62z" />
    <glyph glyph-name="Odieresis" unicode="&#xd6;" horiz-adv-x="705" 
d="M643 351c0 -106 -27 -193 -81 -261c-54 -67 -124 -101 -211 -101s-157 33 -209 101c-54 66 -80 153 -80 259s27 193 80 261c54 67 124 101 211 101s157 -33 210 -101c53 -66 80 -153 80 -259zM565 349c0 87 -20 157 -61 211c-41 53 -92 80 -154 80
c-61 0 -112 -26 -151 -80c-39 -52 -59 -122 -59 -209s20 -157 60 -211c41 -53 92 -80 154 -80c61 0 112 26 152 80c39 52 59 122 59 209zM504 808c0 -15 -5 -28 -16 -38c-11 -12 -24 -17 -39 -17s-28 5 -39 17c-11 10 -16 23 -16 38s6 28 16 40c12 10 24 16 39 16
s27 -6 39 -16c10 -12 16 -25 16 -40zM310 808c0 -15 -5 -28 -16 -38c-11 -12 -23 -17 -38 -17s-28 5 -40 16c-10 11 -16 24 -16 39s6 28 16 40c12 10 25 16 40 16s27 -6 38 -16c11 -12 16 -25 16 -40z" />
    <glyph glyph-name="Udieresis" unicode="&#xdc;" horiz-adv-x="678" 
d="M591 286c0 -198 -84 -297 -251 -297c-83 0 -146 25 -189 75c-43 49 -64 123 -64 220v416h78v-414c0 -151 60 -226 179 -226c59 0 102 18 129 54c27 37 40 93 40 170v416h78v-414zM491 808c0 -15 -5 -28 -17 -38c-10 -12 -23 -17 -38 -17s-28 5 -38 17
c-12 10 -17 23 -17 38s5 28 17 40c10 10 23 16 38 16s28 -6 38 -16c12 -12 17 -25 17 -40zM297 808c0 -15 -5 -28 -16 -38c-11 -12 -23 -17 -38 -17s-29 5 -39 16c-12 11 -17 24 -17 39s5 28 17 40c10 10 24 16 39 16s27 -6 38 -16c11 -12 16 -25 16 -40z" />
    <glyph glyph-name="aacute" unicode="&#xe1;" horiz-adv-x="539" 
d="M459 0h-75v64c-46 -50 -101 -75 -164 -75c-47 0 -87 13 -120 40c-32 27 -48 69 -48 128c0 55 19 97 58 125c39 29 86 43 143 43c51 0 94 -10 131 -30v62c0 77 -38 116 -114 116c-49 0 -97 -13 -143 -40l-28 61c51 28 110 42 176 42c123 0 184 -57 184 -170v-366zM384 129
v106c-36 20 -81 30 -135 30c-39 0 -69 -9 -91 -27c-21 -18 -32 -43 -32 -76c0 -38 10 -66 28 -84c20 -19 46 -28 79 -28c63 0 113 26 151 79zM437 755l-151 -160h-59l103 160h107z" />
    <glyph glyph-name="agrave" unicode="&#xe0;" horiz-adv-x="539" 
d="M459 0h-75v64c-46 -50 -101 -75 -164 -75c-47 0 -87 13 -120 40c-32 27 -48 69 -48 128c0 55 19 97 58 125c39 29 86 43 143 43c51 0 94 -10 131 -30v62c0 77 -38 116 -114 116c-49 0 -97 -13 -143 -40l-28 61c51 28 110 42 176 42c123 0 184 -57 184 -170v-366zM384 129
v106c-36 20 -81 30 -135 30c-39 0 -69 -9 -91 -27c-21 -18 -32 -43 -32 -76c0 -38 10 -66 28 -84c20 -19 46 -28 79 -28c63 0 113 26 151 79zM319 595h-59l-151 160h107z" />
    <glyph glyph-name="acircumflex" unicode="&#xe2;" horiz-adv-x="539" 
d="M459 0h-75v64c-46 -50 -101 -75 -164 -75c-47 0 -87 13 -120 40c-32 27 -48 69 -48 128c0 55 19 97 58 125c39 29 86 43 143 43c51 0 94 -10 131 -30v62c0 77 -38 116 -114 116c-49 0 -97 -13 -143 -40l-28 61c51 28 110 42 176 42c123 0 184 -57 184 -170v-366zM384 129
v106c-36 20 -81 30 -135 30c-39 0 -69 -9 -91 -27c-21 -18 -32 -43 -32 -76c0 -38 10 -66 28 -84c20 -19 46 -28 79 -28c63 0 113 26 151 79zM436 590h-65l-101 103l-101 -103h-63l123 160h84z" />
    <glyph glyph-name="adieresis" unicode="&#xe4;" horiz-adv-x="539" 
d="M459 0h-75v64c-46 -50 -101 -75 -164 -75c-47 0 -87 13 -120 40c-32 27 -48 69 -48 128c0 55 19 97 58 125c39 29 86 43 143 43c51 0 94 -10 131 -30v62c0 77 -38 116 -114 116c-49 0 -97 -13 -143 -40l-28 61c51 28 110 42 176 42c123 0 184 -57 184 -170v-366zM384 129
v106c-36 20 -81 30 -135 30c-39 0 -69 -9 -91 -27c-21 -18 -32 -43 -32 -76c0 -38 10 -66 28 -84c20 -19 46 -28 79 -28c63 0 113 26 151 79zM422 653c0 -15 -5 -28 -16 -39s-24 -16 -39 -16s-28 5 -39 16s-16 24 -16 39s6 29 16 39c12 12 24 17 39 17s27 -5 39 -17
c10 -10 16 -24 16 -39zM228 653c0 -15 -5 -27 -16 -39c-11 -10 -23 -16 -38 -16s-28 5 -40 16c-10 11 -16 24 -16 39s6 29 16 39c12 12 25 17 40 17s27 -5 38 -17c11 -10 16 -24 16 -39z" />
    <glyph glyph-name="atilde" unicode="&#xe3;" horiz-adv-x="539" 
d="M459 0h-75v64c-46 -50 -101 -75 -164 -75c-47 0 -87 13 -120 40c-32 27 -48 69 -48 128c0 55 19 97 58 125c39 29 86 43 143 43c51 0 94 -10 131 -30v62c0 77 -38 116 -114 116c-49 0 -97 -13 -143 -40l-28 61c51 28 110 42 176 42c123 0 184 -57 184 -170v-366zM384 129
v106c-36 20 -81 30 -135 30c-39 0 -69 -9 -91 -27c-21 -18 -32 -43 -32 -76c0 -38 10 -66 28 -84c20 -19 46 -28 79 -28c63 0 113 26 151 79zM448 728c0 -42 -10 -74 -29 -96c-19 -23 -44 -34 -73 -34c-27 0 -51 9 -74 26c-26 20 -43 32 -52 37c-8 5 -17 7 -27 7
c-21 0 -34 -22 -39 -67h-62c0 42 10 74 29 97c19 22 44 33 73 33c27 0 51 -9 74 -26c24 -19 41 -31 50 -36c10 -5 20 -8 29 -8c20 0 33 22 39 67h62z" />
    <glyph glyph-name="aring" unicode="&#xe5;" horiz-adv-x="539" 
d="M459 0h-75v64c-46 -50 -101 -75 -164 -75c-47 0 -87 13 -120 40c-32 27 -48 69 -48 128c0 55 19 97 58 125c39 29 86 43 143 43c51 0 94 -10 131 -30v62c0 77 -38 116 -114 116c-49 0 -97 -13 -143 -40l-28 61c51 28 110 42 176 42c123 0 184 -57 184 -170v-366zM384 129
v106c-36 20 -81 30 -135 30c-39 0 -69 -9 -91 -27c-21 -18 -32 -43 -32 -76c0 -38 10 -66 28 -84c20 -19 46 -28 79 -28c63 0 113 26 151 79zM388 716c0 -33 -11 -60 -34 -83c-22 -23 -50 -34 -83 -34s-61 11 -83 34c-23 23 -34 50 -34 83s11 60 33 82c22 23 50 34 84 34
s62 -11 84 -34c22 -22 33 -49 33 -82zM341 716c0 21 -6 38 -19 51s-30 20 -51 20s-38 -7 -51 -20s-19 -30 -19 -51s6 -39 19 -52s30 -20 51 -20s38 7 51 20s19 31 19 52z" />
    <glyph glyph-name="ccedilla" unicode="&#xe7;" horiz-adv-x="495" 
d="M447 474l-45 -56c-39 35 -81 53 -126 53c-42 0 -77 -18 -104 -55c-27 -36 -41 -86 -41 -150c0 -65 13 -117 39 -155c27 -38 63 -57 109 -57c42 0 82 19 121 56l45 -48c-47 -49 -103 -73 -168 -73l-13 -40c15 9 33 14 55 14c17 0 32 -6 46 -17s21 -29 21 -52
c0 -58 -40 -87 -119 -87c-42 0 -81 12 -118 36l19 32c28 -18 59 -27 92 -27c45 0 67 14 67 43c0 22 -11 33 -32 33c-19 0 -35 -6 -48 -18l-36 14l23 73c-52 10 -95 38 -128 84c-34 46 -51 107 -51 183c0 91 22 159 67 206s98 70 159 70c63 0 119 -21 166 -62z" />
    <glyph glyph-name="eacute" unicode="&#xe9;" horiz-adv-x="540" 
d="M483 278c0 -15 -1 -29 -3 -41h-350c3 -57 18 -101 44 -134c25 -33 59 -49 102 -49c29 0 53 4 74 12c21 7 44 20 71 38l35 -54c-35 -22 -65 -38 -92 -47s-59 -14 -96 -14c-25 0 -50 5 -74 15s-47 25 -68 46c-21 20 -38 48 -52 86c-12 36 -19 80 -19 129
c0 82 20 148 61 197s93 74 156 74c67 0 118 -24 156 -71c36 -47 55 -110 55 -187zM413 298c-3 53 -17 96 -41 126c-23 32 -57 47 -101 47c-40 0 -72 -15 -97 -43c-25 -30 -39 -73 -44 -130h283zM437 755l-151 -160h-59l103 160h107z" />
    <glyph glyph-name="egrave" unicode="&#xe8;" horiz-adv-x="540" 
d="M483 278c0 -15 -1 -29 -3 -41h-350c3 -57 18 -101 44 -134c25 -33 59 -49 102 -49c29 0 53 4 74 12c21 7 44 20 71 38l35 -54c-35 -22 -65 -38 -92 -47s-59 -14 -96 -14c-25 0 -50 5 -74 15s-47 25 -68 46c-21 20 -38 48 -52 86c-12 36 -19 80 -19 129
c0 82 20 148 61 197s93 74 156 74c67 0 118 -24 156 -71c36 -47 55 -110 55 -187zM413 298c-3 53 -17 96 -41 126c-23 32 -57 47 -101 47c-40 0 -72 -15 -97 -43c-25 -30 -39 -73 -44 -130h283zM319 595h-59l-151 160h107z" />
    <glyph glyph-name="ecircumflex" unicode="&#xea;" horiz-adv-x="540" 
d="M483 278c0 -15 -1 -29 -3 -41h-350c3 -57 18 -101 44 -134c25 -33 59 -49 102 -49c29 0 53 4 74 12c21 7 44 20 71 38l35 -54c-35 -22 -65 -38 -92 -47s-59 -14 -96 -14c-25 0 -50 5 -74 15s-47 25 -68 46c-21 20 -38 48 -52 86c-12 36 -19 80 -19 129
c0 82 20 148 61 197s93 74 156 74c67 0 118 -24 156 -71c36 -47 55 -110 55 -187zM413 298c-3 53 -17 96 -41 126c-23 32 -57 47 -101 47c-40 0 -72 -15 -97 -43c-25 -30 -39 -73 -44 -130h283zM436 585h-65l-101 103l-101 -103h-63l123 160h84z" />
    <glyph glyph-name="edieresis" unicode="&#xeb;" horiz-adv-x="540" 
d="M483 278c0 -15 -1 -29 -3 -41h-350c3 -57 18 -101 44 -134c25 -33 59 -49 102 -49c29 0 53 4 74 12c21 7 44 20 71 38l35 -54c-35 -22 -65 -38 -92 -47s-59 -14 -96 -14c-25 0 -50 5 -74 15s-47 25 -68 46c-21 20 -38 48 -52 86c-12 36 -19 80 -19 129
c0 82 20 148 61 197s93 74 156 74c67 0 118 -24 156 -71c36 -47 55 -110 55 -187zM413 298c-3 53 -17 96 -41 126c-23 32 -57 47 -101 47c-40 0 -72 -15 -97 -43c-25 -30 -39 -73 -44 -130h283zM423 653c0 -15 -5 -28 -17 -39c-10 -11 -23 -16 -38 -16s-28 5 -38 16
c-12 11 -17 24 -17 39s5 29 17 39c10 12 23 17 38 17s28 -5 38 -17c12 -10 17 -24 17 -39zM229 653c0 -15 -5 -27 -16 -39c-11 -10 -23 -16 -38 -16s-29 5 -39 16c-12 11 -17 24 -17 39s5 29 17 39c10 12 24 17 39 17s27 -5 38 -17c11 -10 16 -24 16 -39z" />
    <glyph glyph-name="iacute" unicode="&#xed;" horiz-adv-x="251" 
d="M163 0h-75v525h75v-525zM303 755l-151 -160h-59l103 160h107z" />
    <glyph glyph-name="igrave" unicode="&#xec;" horiz-adv-x="251" 
d="M163 0h-75v525h75v-525zM158 595h-59l-151 160h107z" />
    <glyph glyph-name="icircumflex" unicode="&#xee;" horiz-adv-x="251" 
d="M163 0h-75v525h75v-525zM290 580h-65l-101 103l-101 -103h-63l123 160h84z" />
    <glyph glyph-name="idieresis" unicode="&#xef;" horiz-adv-x="251" 
d="M163 0h-75v525h75v-525zM277 648c0 -15 -5 -28 -17 -38c-10 -12 -23 -17 -38 -17s-28 5 -38 17c-12 10 -17 23 -17 38s5 28 17 40c10 10 23 16 38 16s28 -6 38 -16c12 -12 17 -25 17 -40zM83 648c0 -15 -5 -28 -16 -38c-11 -12 -23 -17 -38 -17s-29 5 -39 16
c-12 11 -17 24 -17 39s5 28 17 40c10 10 24 16 39 16s27 -6 38 -16c11 -12 16 -25 16 -40z" />
    <glyph glyph-name="ntilde" unicode="&#xf1;" horiz-adv-x="567" 
d="M487 0h-75v307c0 56 -10 97 -30 124c-21 27 -52 40 -94 40c-39 0 -70 -14 -94 -41s-36 -68 -36 -123v-307h-75v525h75v-64c34 50 82 75 145 75c58 0 103 -18 135 -53c33 -35 49 -90 49 -163v-320zM458 728c0 -42 -10 -74 -29 -96c-19 -23 -44 -34 -73 -34
c-27 0 -51 9 -74 26c-26 20 -43 32 -52 37c-8 5 -17 7 -27 7c-21 0 -34 -22 -39 -67h-62c0 42 10 74 29 97c19 22 44 33 73 33c27 0 51 -9 74 -26c24 -19 41 -31 50 -36c10 -5 20 -8 29 -8c20 0 33 22 39 67h62z" />
    <glyph glyph-name="oacute" unicode="&#xf3;" horiz-adv-x="566" 
d="M511 266c0 -86 -22 -154 -65 -203s-98 -74 -165 -74s-121 24 -163 72s-63 115 -63 201s22 153 65 202c43 48 98 72 165 72s121 -24 163 -70c42 -48 63 -114 63 -200zM436 264c0 67 -14 119 -42 154c-27 35 -64 53 -111 53s-84 -18 -111 -53s-41 -87 -41 -154
s14 -119 41 -156c27 -36 64 -54 111 -54s84 18 111 54c28 37 42 89 42 156zM445 755l-151 -160h-59l103 160h107z" />
    <glyph glyph-name="ograve" unicode="&#xf2;" horiz-adv-x="566" 
d="M511 266c0 -86 -22 -154 -65 -203s-98 -74 -165 -74s-121 24 -163 72s-63 115 -63 201s22 153 65 202c43 48 98 72 165 72s121 -24 163 -70c42 -48 63 -114 63 -200zM436 264c0 67 -14 119 -42 154c-27 35 -64 53 -111 53s-84 -18 -111 -53s-41 -87 -41 -154
s14 -119 41 -156c27 -36 64 -54 111 -54s84 18 111 54c28 37 42 89 42 156zM327 595h-59l-151 160h107z" />
    <glyph glyph-name="ocircumflex" unicode="&#xf4;" horiz-adv-x="566" 
d="M511 266c0 -86 -22 -154 -65 -203s-98 -74 -165 -74s-121 24 -163 72s-63 115 -63 201s22 153 65 202c43 48 98 72 165 72s121 -24 163 -70c42 -48 63 -114 63 -200zM436 264c0 67 -14 119 -42 154c-27 35 -64 53 -111 53s-84 -18 -111 -53s-41 -87 -41 -154
s14 -119 41 -156c27 -36 64 -54 111 -54s84 18 111 54c28 37 42 89 42 156zM447 585h-65l-101 103l-101 -103h-63l123 160h84z" />
    <glyph glyph-name="odieresis" unicode="&#xf6;" horiz-adv-x="566" 
d="M511 266c0 -86 -22 -154 -65 -203s-98 -74 -165 -74s-121 24 -163 72s-63 115 -63 201s22 153 65 202c43 48 98 72 165 72s121 -24 163 -70c42 -48 63 -114 63 -200zM436 264c0 67 -14 119 -42 154c-27 35 -64 53 -111 53s-84 -18 -111 -53s-41 -87 -41 -154
s14 -119 41 -156c27 -36 64 -54 111 -54s84 18 111 54c28 37 42 89 42 156zM434 648c0 -15 -5 -28 -16 -38c-11 -12 -24 -17 -39 -17s-28 5 -39 17c-11 10 -16 23 -16 38s6 28 16 40c12 10 24 16 39 16s27 -6 39 -16c10 -12 16 -25 16 -40zM240 648c0 -15 -5 -28 -16 -38
c-11 -12 -23 -17 -38 -17s-28 5 -40 16c-10 11 -16 24 -16 39s6 28 16 40c12 10 25 16 40 16s27 -6 38 -16c11 -12 16 -25 16 -40z" />
    <glyph glyph-name="otilde" unicode="&#xf5;" horiz-adv-x="566" 
d="M511 266c0 -86 -22 -154 -65 -203s-98 -74 -165 -74s-121 24 -163 72s-63 115 -63 201s22 153 65 202c43 48 98 72 165 72s121 -24 163 -70c42 -48 63 -114 63 -200zM436 264c0 67 -14 119 -42 154c-27 35 -64 53 -111 53s-84 -18 -111 -53s-41 -87 -41 -154
s14 -119 41 -156c27 -36 64 -54 111 -54s84 18 111 54c28 37 42 89 42 156zM460 728c0 -42 -10 -74 -29 -96c-19 -23 -44 -34 -73 -34c-27 0 -51 9 -74 26c-26 20 -43 32 -52 37c-8 5 -17 7 -27 7c-21 0 -34 -22 -39 -67h-62c0 42 10 74 29 97c19 22 44 33 73 33
c27 0 51 -9 74 -26c24 -19 41 -31 50 -36c10 -5 20 -8 29 -8c20 0 33 22 39 67h62z" />
    <glyph glyph-name="uacute" unicode="&#xfa;" horiz-adv-x="567" 
d="M484 0h-75v64c-34 -50 -82 -75 -145 -75c-58 0 -103 18 -136 53c-32 35 -48 90 -48 163v320h75v-307c0 -56 10 -97 31 -124c20 -27 51 -40 93 -40c39 0 70 14 94 41s36 68 36 123v307h75v-525zM451 755l-151 -160h-59l103 160h107z" />
    <glyph glyph-name="ugrave" unicode="&#xf9;" horiz-adv-x="567" 
d="M484 0h-75v64c-34 -50 -82 -75 -145 -75c-58 0 -103 18 -136 53c-32 35 -48 90 -48 163v320h75v-307c0 -56 10 -97 31 -124c20 -27 51 -40 93 -40c39 0 70 14 94 41s36 68 36 123v307h75v-525zM318 595h-59l-151 160h107z" />
    <glyph glyph-name="ucircumflex" unicode="&#xfb;" horiz-adv-x="567" 
d="M484 0h-75v64c-34 -50 -82 -75 -145 -75c-58 0 -103 18 -136 53c-32 35 -48 90 -48 163v320h75v-307c0 -56 10 -97 31 -124c20 -27 51 -40 93 -40c39 0 70 14 94 41s36 68 36 123v307h75v-525zM448 595h-65l-101 103l-101 -103h-63l123 160h84z" />
    <glyph glyph-name="udieresis" unicode="&#xfc;" horiz-adv-x="567" 
d="M484 0h-75v64c-34 -50 -82 -75 -145 -75c-58 0 -103 18 -136 53c-32 35 -48 90 -48 163v320h75v-307c0 -56 10 -97 31 -124c20 -27 51 -40 93 -40c39 0 70 14 94 41s36 68 36 123v307h75v-525zM435 658c0 -15 -5 -28 -17 -38c-10 -12 -23 -17 -38 -17s-28 5 -38 17
c-12 10 -17 23 -17 38s5 28 17 40c10 10 23 16 38 16s28 -6 38 -16c12 -12 17 -25 17 -40zM241 658c0 -15 -5 -28 -16 -38c-11 -12 -23 -17 -38 -17s-29 5 -39 16c-12 11 -17 24 -17 39s5 28 17 40c10 10 24 16 39 16s27 -6 38 -16c11 -12 16 -25 16 -40z" />
    <glyph glyph-name="degree" unicode="&#xb0;" horiz-adv-x="476" 
d="M425 520c0 -55 -18 -101 -53 -138s-80 -55 -134 -55s-99 18 -134 55s-53 83 -53 138c0 54 18 99 53 136c36 37 81 55 134 55c54 0 99 -18 134 -55s53 -82 53 -136zM359 520c0 37 -11 68 -33 92c-23 25 -52 37 -88 37s-65 -12 -88 -37c-22 -24 -33 -55 -33 -92
c0 -39 11 -70 33 -94c23 -25 52 -37 88 -37c37 0 66 12 88 36s33 56 33 95z" />
    <glyph glyph-name="registered" unicode="&#xae;" horiz-adv-x="836" 
d="M779 350c0 -107 -34 -194 -103 -260c-68 -68 -154 -101 -258 -101s-190 33 -258 101c-69 66 -103 153 -103 260s34 194 103 260c68 68 154 101 258 101s190 -33 258 -101c69 -66 103 -153 103 -260zM730 350c0 92 -30 168 -89 226c-59 60 -134 89 -223 89
s-164 -29 -223 -89c-59 -58 -89 -134 -89 -226s30 -168 89 -226c59 -60 134 -89 223 -89s164 29 223 89c59 58 89 134 89 226zM578 441c0 -29 -8 -54 -24 -73c-17 -20 -39 -33 -68 -40l89 -171h-62l-86 167h-86v-167h-53v399h162c38 0 69 -10 92 -29c24 -19 36 -48 36 -86z
M525 441c0 45 -26 68 -78 68h-106v-135h100c56 0 84 22 84 67z" />
    <glyph glyph-name="copyright" unicode="&#xa9;" horiz-adv-x="836" 
d="M779 350c0 -107 -34 -194 -103 -260c-68 -68 -154 -101 -258 -101s-190 33 -258 101c-69 66 -103 153 -103 260s34 194 103 260c68 68 154 101 258 101s190 -33 258 -101c69 -66 103 -153 103 -260zM730 350c0 92 -30 168 -89 226c-59 60 -134 89 -223 89
s-164 -29 -223 -89c-59 -58 -89 -134 -89 -226s30 -168 89 -226c59 -60 134 -89 223 -89s164 29 223 89c59 58 89 134 89 226zM557 212c-35 -47 -82 -70 -139 -70c-49 0 -89 20 -120 59s-46 89 -46 148c0 61 16 111 47 150s72 59 121 59c55 0 99 -23 134 -68l-42 -33
c-15 19 -29 32 -42 39c-14 8 -31 12 -51 12c-33 0 -61 -15 -81 -44c-22 -29 -32 -67 -32 -113s11 -84 32 -114s48 -45 81 -45c37 0 70 18 99 54z" />
    <glyph glyph-name="trademark" unicode="&#x2122;" horiz-adv-x="762" 
d="M302 658h-116v-357h-48v357h-116v42h280v-42zM717 301h-45v265v43c-3 -14 -11 -36 -24 -67l-105 -252l-102 252c-11 27 -19 50 -24 67v-43v-265h-45v399h52l94 -239c13 -30 22 -54 27 -73c3 11 12 36 26 73l95 239h51v-399z" />
    <glyph glyph-name="notequal" unicode="&#x2260;" 
d="M708 345l-166 -121c-4 -3 -7 -4 -9 -3c-3 1 -4 5 -2 10l30 80h-161v-179l80 30c5 2 9 1 10 -2c1 -2 0 -5 -3 -9l-121 -166l-121 166c-3 4 -4 7 -3 9c1 3 5 4 10 2l80 -30v179h-165l30 -80c2 -5 1 -9 -2 -10c-2 -1 -5 0 -9 3l-166 121l166 121c4 3 7 4 9 3
c3 -1 4 -5 2 -10l-30 -80h165v189l-80 -30c-5 -2 -9 -1 -10 2c-1 2 0 5 3 9l121 166l121 -166c3 -4 4 -7 3 -9c-1 -3 -5 -4 -10 -2l-80 30v-189h161l-30 80c-2 5 -1 9 2 10c2 1 5 0 9 -3z" />
    <glyph glyph-name="infinity" unicode="&#x221e;" 
d="M708 345l-166 -121c-4 -3 -7 -4 -9 -3c-3 1 -4 5 -2 10l30 80h-161v-179l80 30c5 2 9 1 10 -2c1 -2 0 -5 -3 -9l-121 -166l-121 166c-3 4 -4 7 -3 9c1 3 5 4 10 2l80 -30v179h-165l30 -80c2 -5 1 -9 -2 -10c-2 -1 -5 0 -9 3l-166 121l166 121c4 3 7 4 9 3
c3 -1 4 -5 2 -10l-30 -80h165v189l-80 -30c-5 -2 -9 -1 -10 2c-1 2 0 5 3 9l121 166l121 -166c3 -4 4 -7 3 -9c-1 -3 -5 -4 -10 -2l-80 30v-189h161l-30 80c-2 5 -1 9 2 10c2 1 5 0 9 -3z" />
    <glyph glyph-name="plusminus" unicode="&#xb1;" 
d="M708 345l-166 -121c-4 -3 -7 -4 -9 -3c-3 1 -4 5 -2 10l30 80h-161v-179l80 30c5 2 9 1 10 -2c1 -2 0 -5 -3 -9l-121 -166l-121 166c-3 4 -4 7 -3 9c1 3 5 4 10 2l80 -30v179h-165l30 -80c2 -5 1 -9 -2 -10c-2 -1 -5 0 -9 3l-166 121l166 121c4 3 7 4 9 3
c3 -1 4 -5 2 -10l-30 -80h165v189l-80 -30c-5 -2 -9 -1 -10 2c-1 2 0 5 3 9l121 166l121 -166c3 -4 4 -7 3 -9c-1 -3 -5 -4 -10 -2l-80 30v-189h161l-30 80c-2 5 -1 9 2 10c2 1 5 0 9 -3z" />
    <glyph glyph-name="lessequal" unicode="&#x2264;" 
d="M708 345l-166 -121c-4 -3 -7 -4 -9 -3c-3 1 -4 5 -2 10l30 80h-161v-179l80 30c5 2 9 1 10 -2c1 -2 0 -5 -3 -9l-121 -166l-121 166c-3 4 -4 7 -3 9c1 3 5 4 10 2l80 -30v179h-165l30 -80c2 -5 1 -9 -2 -10c-2 -1 -5 0 -9 3l-166 121l166 121c4 3 7 4 9 3
c3 -1 4 -5 2 -10l-30 -80h165v189l-80 -30c-5 -2 -9 -1 -10 2c-1 2 0 5 3 9l121 166l121 -166c3 -4 4 -7 3 -9c-1 -3 -5 -4 -10 -2l-80 30v-189h161l-30 80c-2 5 -1 9 2 10c2 1 5 0 9 -3z" />
    <glyph glyph-name="greaterequal" unicode="&#x2265;" 
d="M708 345l-166 -121c-4 -3 -7 -4 -9 -3c-3 1 -4 5 -2 10l30 80h-161v-179l80 30c5 2 9 1 10 -2c1 -2 0 -5 -3 -9l-121 -166l-121 166c-3 4 -4 7 -3 9c1 3 5 4 10 2l80 -30v179h-165l30 -80c2 -5 1 -9 -2 -10c-2 -1 -5 0 -9 3l-166 121l166 121c4 3 7 4 9 3
c3 -1 4 -5 2 -10l-30 -80h165v189l-80 -30c-5 -2 -9 -1 -10 2c-1 2 0 5 3 9l121 166l121 -166c3 -4 4 -7 3 -9c-1 -3 -5 -4 -10 -2l-80 30v-189h161l-30 80c-2 5 -1 9 2 10c2 1 5 0 9 -3z" />
    <glyph glyph-name="mu" unicode="&#x3bc;" horiz-adv-x="770" 
d="M750 345l-176 -117c-5 -3 -8 -4 -11 -2c-4 3 -5 6 -3 9l30 75h-410l30 -75c2 -3 1 -6 -3 -9c-3 -2 -6 -1 -11 2l-176 117l176 117c5 3 8 4 11 2c4 -3 5 -6 3 -9l-30 -75h410l-30 75c-2 3 -1 6 3 9c3 2 6 1 11 -2z" />
    <glyph glyph-name="partialdiff" unicode="&#x2202;" horiz-adv-x="366" 
d="M302 172c2 -3 1 -6 -2 -11l-117 -176l-117 176c-3 5 -4 8 -2 11c3 4 6 5 9 3l75 -30v410l-75 -30c-3 -2 -6 -1 -9 3c-2 3 -1 6 2 11l117 176l117 -176c3 -5 4 -8 2 -11c-3 -4 -6 -5 -9 -3l-75 30v-410l75 30c3 2 6 1 9 -3z" />
    <glyph glyph-name="summation" unicode="&#x2211;" 
d="M708 345l-166 -121c-4 -3 -7 -4 -9 -3c-3 1 -4 5 -2 10l30 80h-161v-179l80 30c5 2 9 1 10 -2c1 -2 0 -5 -3 -9l-121 -166l-121 166c-3 4 -4 7 -3 9c1 3 5 4 10 2l80 -30v179h-165l30 -80c2 -5 1 -9 -2 -10c-2 -1 -5 0 -9 3l-166 121l166 121c4 3 7 4 9 3
c3 -1 4 -5 2 -10l-30 -80h165v189l-80 -30c-5 -2 -9 -1 -10 2c-1 2 0 5 3 9l121 166l121 -166c3 -4 4 -7 3 -9c-1 -3 -5 -4 -10 -2l-80 30v-189h161l-30 80c-2 5 -1 9 2 10c2 1 5 0 9 -3z" />
    <glyph glyph-name="product" unicode="&#x220f;" 
d="M708 345l-166 -121c-4 -3 -7 -4 -9 -3c-3 1 -4 5 -2 10l30 80h-161v-179l80 30c5 2 9 1 10 -2c1 -2 0 -5 -3 -9l-121 -166l-121 166c-3 4 -4 7 -3 9c1 3 5 4 10 2l80 -30v179h-165l30 -80c2 -5 1 -9 -2 -10c-2 -1 -5 0 -9 3l-166 121l166 121c4 3 7 4 9 3
c3 -1 4 -5 2 -10l-30 -80h165v189l-80 -30c-5 -2 -9 -1 -10 2c-1 2 0 5 3 9l121 166l121 -166c3 -4 4 -7 3 -9c-1 -3 -5 -4 -10 -2l-80 30v-189h161l-30 80c-2 5 -1 9 2 10c2 1 5 0 9 -3z" />
    <glyph glyph-name="pi" unicode="&#x3c0;" horiz-adv-x="836" 
d="M779 350c0 -107 -34 -194 -103 -260c-68 -68 -154 -101 -258 -101s-190 33 -258 101c-69 66 -103 153 -103 260s34 194 103 260c68 68 154 101 258 101s190 -33 258 -101c69 -66 103 -153 103 -260zM730 350c0 92 -30 168 -89 226c-59 60 -134 89 -223 89
s-164 -29 -223 -89c-59 -58 -89 -134 -89 -226s30 -168 89 -226c59 -60 134 -89 223 -89s164 29 223 89c59 58 89 134 89 226zM586 426c0 -39 -13 -69 -38 -90c-25 -22 -59 -33 -101 -33h-92v-154h-53v399h153c39 0 70 -10 95 -31c24 -21 36 -51 36 -91zM534 427
c0 49 -28 74 -83 74h-96v-149h90c59 0 89 25 89 75z" />
    <glyph glyph-name="integral" unicode="&#x222b;" horiz-adv-x="559" 
d="M476 0h-75v64c-46 -50 -99 -75 -158 -75c-56 0 -101 22 -136 67c-35 44 -52 110 -52 198c0 89 19 159 56 208s85 74 142 74s107 -23 148 -70v59h75v-525zM401 130v262c-15 23 -35 42 -61 57c-24 15 -52 22 -81 22c-87 0 -130 -72 -130 -216c0 -65 12 -115 35 -149
c23 -35 56 -52 98 -52c52 0 98 25 139 76z" />
    <glyph glyph-name="Omega" unicode="&#x3a9;" horiz-adv-x="366" 
d="M302 528c-3 -4 -6 -5 -9 -3l-75 30v-555h-70v555l-75 -30c-3 -2 -6 -1 -9 3c-2 3 -1 6 2 11l117 176l117 -176c3 -5 4 -8 2 -11z" />
    <glyph glyph-name="logicalnot" unicode="&#xac;" horiz-adv-x="630" 
d="M610 345l-176 -117c-5 -3 -8 -4 -11 -2c-4 3 -5 6 -3 9l30 75h-395v70h395l-30 75c-2 3 -1 6 3 9c3 2 6 1 11 -2z" />
    <glyph glyph-name="radical" unicode="&#x221a;" horiz-adv-x="580" 
d="M535 700l-264 -700h-70l-155 340h80l49 -112c29 -70 49 -120 60 -151c9 30 27 82 54 156l171 467h75z" />
    <glyph glyph-name="approxequal" unicode="&#x2248;" horiz-adv-x="366" 
d="M302 172c2 -3 1 -6 -2 -11l-117 -176l-117 176c-3 5 -4 8 -2 11c3 4 6 5 9 3l75 -30v555h70v-555l75 30c3 2 6 1 9 -3z" />
    <glyph glyph-name="Delta" unicode="&#x394;" horiz-adv-x="630" 
d="M575 310h-395l30 -75c2 -3 1 -6 -3 -9c-3 -2 -6 -1 -11 2l-176 117l176 117c5 3 8 4 11 2c4 -3 5 -6 3 -9l-30 -75h395v-70z" />
    <glyph glyph-name="nbspace" unicode="&#xa0;" horiz-adv-x="130" 
 />
    <glyph glyph-name="Agrave" unicode="&#xc0;" horiz-adv-x="678" 
d="M625 0h-82l-60 178h-289l-61 -178h-80l243 700h86zM459 249l-77 230c-21 61 -36 107 -43 138c-8 -31 -23 -78 -44 -140l-77 -228h241zM370 745h-59l-151 160h107z" />
    <glyph glyph-name="Atilde" unicode="&#xc3;" horiz-adv-x="678" 
d="M625 0h-82l-60 178h-289l-61 -178h-80l243 700h86zM459 249l-77 230c-21 61 -36 107 -43 138c-8 -31 -23 -78 -44 -140l-77 -228h241zM517 878c0 -42 -10 -74 -29 -96c-19 -23 -44 -34 -73 -34c-27 0 -51 9 -74 26c-26 20 -43 32 -51 37c-9 5 -18 7 -28 7
c-21 0 -34 -22 -39 -67h-62c0 42 10 74 29 97c19 22 44 33 73 33c27 0 51 -9 74 -26c24 -19 41 -31 51 -36c9 -5 19 -8 28 -8c20 0 33 22 39 67h62z" />
    <glyph glyph-name="Otilde" unicode="&#xd5;" horiz-adv-x="705" 
d="M643 351c0 -106 -27 -193 -81 -261c-54 -67 -124 -101 -211 -101s-157 33 -209 101c-54 66 -80 153 -80 259s27 193 80 261c54 67 124 101 211 101s157 -33 210 -101c53 -66 80 -153 80 -259zM565 349c0 87 -20 157 -61 211c-41 53 -92 80 -154 80
c-61 0 -112 -26 -151 -80c-39 -52 -59 -122 -59 -209s20 -157 60 -211c41 -53 92 -80 154 -80c61 0 112 26 152 80c39 52 59 122 59 209zM529 878c0 -42 -10 -74 -29 -96c-19 -23 -44 -34 -73 -34c-27 0 -51 9 -74 26c-26 20 -43 32 -51 37c-9 5 -18 7 -28 7
c-21 0 -34 -22 -39 -67h-62c0 42 10 74 29 97c19 22 44 33 73 33c27 0 51 -9 74 -26c24 -19 41 -31 51 -36c9 -5 19 -8 28 -8c20 0 33 22 39 67h62z" />
    <glyph glyph-name="divide" unicode="&#xf7;" 
d="M708 345l-166 -121c-4 -3 -7 -4 -9 -3c-3 1 -4 5 -2 10l30 80h-161v-179l80 30c5 2 9 1 10 -2c1 -2 0 -5 -3 -9l-121 -166l-121 166c-3 4 -4 7 -3 9c1 3 5 4 10 2l80 -30v179h-165l30 -80c2 -5 1 -9 -2 -10c-2 -1 -5 0 -9 3l-166 121l166 121c4 3 7 4 9 3
c3 -1 4 -5 2 -10l-30 -80h165v189l-80 -30c-5 -2 -9 -1 -10 2c-1 2 0 5 3 9l121 166l121 -166c3 -4 4 -7 3 -9c-1 -3 -5 -4 -10 -2l-80 30v-189h161l-30 80c-2 5 -1 9 2 10c2 1 5 0 9 -3z" />
    <glyph glyph-name="lozenge" unicode="&#x25ca;" 
d="M708 345l-166 -121c-4 -3 -7 -4 -9 -3c-3 1 -4 5 -2 10l30 80h-161v-179l80 30c5 2 9 1 10 -2c1 -2 0 -5 -3 -9l-121 -166l-121 166c-3 4 -4 7 -3 9c1 3 5 4 10 2l80 -30v179h-165l30 -80c2 -5 1 -9 -2 -10c-2 -1 -5 0 -9 3l-166 121l166 121c4 3 7 4 9 3
c3 -1 4 -5 2 -10l-30 -80h165v189l-80 -30c-5 -2 -9 -1 -10 2c-1 2 0 5 3 9l121 166l121 -166c3 -4 4 -7 3 -9c-1 -3 -5 -4 -10 -2l-80 30v-189h161l-30 80c-2 5 -1 9 2 10c2 1 5 0 9 -3z" />
    <glyph glyph-name="ydieresis" unicode="&#xff;" horiz-adv-x="531" 
d="M491 525l-261 -710h-75l72 191l-187 519h79l128 -381l18 -54l18 53l129 382h79zM418 648c0 -15 -5 -28 -16 -38c-11 -12 -24 -17 -39 -17s-28 5 -39 17c-11 10 -16 23 -16 38s6 28 16 40c12 10 24 16 39 16s27 -6 39 -16c10 -12 16 -25 16 -40zM224 648
c0 -15 -5 -28 -16 -38c-11 -12 -23 -17 -38 -17s-28 5 -40 16c-10 11 -16 24 -16 39s6 28 16 40c12 10 25 16 40 16s27 -6 38 -16c11 -12 16 -25 16 -40z" />
    <glyph glyph-name="Ydieresis" unicode="&#x178;" horiz-adv-x="652" 
d="M605 700l-240 -422v-278h-78v277l-240 423h89l112 -201c35 -63 61 -113 79 -150c23 46 49 96 79 150l112 201h87zM477 798c0 -15 -5 -28 -17 -38c-10 -12 -23 -17 -38 -17s-28 5 -38 17c-12 10 -17 23 -17 38s5 28 17 40c10 10 23 16 38 16s28 -6 38 -16
c12 -12 17 -25 17 -40zM283 798c0 -15 -5 -28 -16 -38c-11 -12 -23 -17 -38 -17s-29 5 -39 16c-12 11 -17 24 -17 39s5 28 17 40c10 10 24 16 39 16s27 -6 38 -16c11 -12 16 -25 16 -40z" />
    <glyph glyph-name="Acircumflex" unicode="&#xc2;" horiz-adv-x="678" 
d="M625 0h-82l-60 178h-289l-61 -178h-80l243 700h86zM459 249l-77 230c-21 61 -36 107 -43 138c-8 -31 -23 -78 -44 -140l-77 -228h241zM504 725h-65l-101 103l-101 -103h-63l123 160h84z" />
    <glyph glyph-name="Ecircumflex" unicode="&#xca;" horiz-adv-x="587" 
d="M530 0h-438v700h423v-71h-345v-220h200v-71h-200v-267h360v-71zM468 745h-65l-101 103l-101 -103h-63l123 160h84z" />
    <glyph glyph-name="Aacute" unicode="&#xc1;" horiz-adv-x="678" 
d="M625 0h-82l-60 178h-289l-61 -178h-80l243 700h86zM459 249l-77 230c-21 61 -36 107 -43 138c-8 -31 -23 -78 -44 -140l-77 -228h241zM517 905l-151 -160h-59l103 160h107z" />
    <glyph glyph-name="Edieresis" unicode="&#xcb;" horiz-adv-x="587" 
d="M530 0h-438v700h423v-71h-345v-220h200v-71h-200v-267h360v-71zM456 808c0 -15 -5 -28 -16 -38c-11 -12 -24 -17 -39 -17s-28 5 -39 17c-11 10 -16 23 -16 38s6 28 16 40c12 10 24 16 39 16s27 -6 39 -16c10 -12 16 -25 16 -40zM262 808c0 -15 -5 -28 -16 -38
c-11 -12 -23 -17 -38 -17s-28 5 -40 16c-10 11 -16 24 -16 39s6 28 16 40c12 10 25 16 40 16s27 -6 38 -16c11 -12 16 -25 16 -40z" />
    <glyph glyph-name="Egrave" unicode="&#xc8;" horiz-adv-x="587" 
d="M530 0h-438v700h423v-71h-345v-220h200v-71h-200v-267h360v-71zM357 745h-59l-151 160h107z" />
    <glyph glyph-name="Iacute" unicode="&#xcd;" horiz-adv-x="272" 
d="M175 0h-78v700h78v-700zM311 905l-151 -160h-59l103 160h107z" />
    <glyph glyph-name="Icircumflex" unicode="&#xce;" horiz-adv-x="272" 
d="M175 0h-78v700h78v-700zM298 740h-65l-101 103l-101 -103h-63l123 160h84z" />
    <glyph glyph-name="Idieresis" unicode="&#xcf;" horiz-adv-x="272" 
d="M175 0h-78v700h78v-700zM287 812c0 -15 -5 -28 -17 -38c-10 -12 -23 -17 -38 -17s-28 5 -38 17c-12 10 -17 23 -17 38s5 28 17 40c10 10 23 16 38 16s28 -6 38 -16c12 -12 17 -25 17 -40zM93 812c0 -15 -5 -28 -16 -38c-11 -12 -23 -17 -38 -17s-29 5 -39 16
c-12 11 -17 24 -17 39s5 28 17 40c10 10 24 16 39 16s27 -6 38 -16c11 -12 16 -25 16 -40z" />
    <glyph glyph-name="Igrave" unicode="&#xcc;" horiz-adv-x="272" 
d="M175 0h-78v700h78v-700zM172 745h-59l-151 160h107z" />
    <glyph glyph-name="Oacute" unicode="&#xd3;" horiz-adv-x="705" 
d="M643 351c0 -106 -27 -193 -81 -261c-54 -67 -124 -101 -211 -101s-157 33 -209 101c-54 66 -80 153 -80 259s27 193 80 261c54 67 124 101 211 101s157 -33 210 -101c53 -66 80 -153 80 -259zM565 349c0 87 -20 157 -61 211c-41 53 -92 80 -154 80
c-61 0 -112 -26 -151 -80c-39 -52 -59 -122 -59 -209s20 -157 60 -211c41 -53 92 -80 154 -80c61 0 112 26 152 80c39 52 59 122 59 209zM520 905l-151 -160h-59l103 160h107z" />
    <glyph glyph-name="Ocircumflex" unicode="&#xd4;" horiz-adv-x="705" 
d="M643 351c0 -106 -27 -193 -81 -261c-54 -67 -124 -101 -211 -101s-157 33 -209 101c-54 66 -80 153 -80 259s27 193 80 261c54 67 124 101 211 101s157 -33 210 -101c53 -66 80 -153 80 -259zM565 349c0 87 -20 157 -61 211c-41 53 -92 80 -154 80
c-61 0 -112 -26 -151 -80c-39 -52 -59 -122 -59 -209s20 -157 60 -211c41 -53 92 -80 154 -80c61 0 112 26 152 80c39 52 59 122 59 209zM516 740h-65l-101 103l-101 -103h-63l123 160h84z" />
    <glyph glyph-name="apple" 
d="M708 345l-166 -121c-4 -3 -7 -4 -9 -3c-3 1 -4 5 -2 10l30 80h-161v-179l80 30c5 2 9 1 10 -2c1 -2 0 -5 -3 -9l-121 -166l-121 166c-3 4 -4 7 -3 9c1 3 5 4 10 2l80 -30v179h-165l30 -80c2 -5 1 -9 -2 -10c-2 -1 -5 0 -9 3l-166 121l166 121c4 3 7 4 9 3
c3 -1 4 -5 2 -10l-30 -80h165v189l-80 -30c-5 -2 -9 -1 -10 2c-1 2 0 5 3 9l121 166l121 -166c3 -4 4 -7 3 -9c-1 -3 -5 -4 -10 -2l-80 30v-189h161l-30 80c-2 5 -1 9 2 10c2 1 5 0 9 -3z" />
    <glyph glyph-name="Ograve" unicode="&#xd2;" horiz-adv-x="705" 
d="M643 351c0 -106 -27 -193 -81 -261c-54 -67 -124 -101 -211 -101s-157 33 -209 101c-54 66 -80 153 -80 259s27 193 80 261c54 67 124 101 211 101s157 -33 210 -101c53 -66 80 -153 80 -259zM565 349c0 87 -20 157 -61 211c-41 53 -92 80 -154 80
c-61 0 -112 -26 -151 -80c-39 -52 -59 -122 -59 -209s20 -157 60 -211c41 -53 92 -80 154 -80c61 0 112 26 152 80c39 52 59 122 59 209zM392 745h-59l-151 160h107z" />
    <glyph glyph-name="Uacute" unicode="&#xda;" horiz-adv-x="678" 
d="M591 286c0 -198 -84 -297 -251 -297c-83 0 -146 25 -189 75c-43 49 -64 123 -64 220v416h78v-414c0 -151 60 -226 179 -226c59 0 102 18 129 54c27 37 40 93 40 170v416h78v-414zM507 890l-151 -160h-59l103 160h107z" />
    <glyph glyph-name="Ucircumflex" unicode="&#xdb;" horiz-adv-x="678" 
d="M591 286c0 -198 -84 -297 -251 -297c-83 0 -146 25 -189 75c-43 49 -64 123 -64 220v416h78v-414c0 -151 60 -226 179 -226c59 0 102 18 129 54c27 37 40 93 40 170v416h78v-414zM504 745h-65l-101 103l-101 -103h-63l123 160h84z" />
    <glyph glyph-name="Ugrave" unicode="&#xd9;" horiz-adv-x="678" 
d="M591 286c0 -198 -84 -297 -251 -297c-83 0 -146 25 -189 75c-43 49 -64 123 -64 220v416h78v-414c0 -151 60 -226 179 -226c59 0 102 18 129 54c27 37 40 93 40 170v416h78v-414zM379 730h-59l-151 160h107z" />
    <glyph glyph-name="Euro" unicode="&#x20ac;" horiz-adv-x="595" 
d="M143 249c11 -61 32 -109 63 -141c31 -34 72 -50 123 -50c35 0 64 7 89 22c24 15 48 38 73 69l50 -44c-29 -38 -60 -67 -93 -87c-33 -19 -73 -29 -121 -29c-83 0 -149 32 -197 95c-47 63 -71 152 -71 265c0 115 24 204 73 267s115 95 198 95c48 0 88 -9 120 -26
s61 -46 88 -86l-58 -45c-22 32 -44 55 -66 68s-51 20 -86 20c-49 0 -90 -16 -120 -47c-32 -31 -53 -76 -64 -135h269v-63h-277c-1 -10 -1 -25 -1 -46c0 -17 0 -30 1 -39h277v-63h-270z" />
  </font>
</defs>
</svg>
