<?xml version="1.0" standalone="no"?>
<!DOCTYPE svg PUBLIC "-//W3C//DTD SVG 1.1//EN" "http://www.w3.org/Graphics/SVG/1.1/DTD/svg11.dtd" >
<svg>
<metadata>
Created by FontForge 20110222 at Mon Oct 22 11:45:44 2012
 By Stefan Warting
Copyright (c) The Font Bureau, Inc, 2000. All rights reserved.
</metadata>
<defs>
<font id="Interstate-LightCompressed" horiz-adv-x="490" >
  <font-face 
    font-family="Interstate-LightCompressed"
    font-weight="200"
    font-stretch="normal"
    units-per-em="1000"
    panose-1="2 0 3 3 0 0 0 0 0 0"
    ascent="800"
    descent="-200"
    x-height="525"
    cap-height="700"
    bbox="-50 -193 845 914"
    underline-thickness="20"
    underline-position="-133"
    unicode-range="U+000D-FB02"
  />
    <missing-glyph />
    <glyph glyph-name=".null" horiz-adv-x="0" 
 />
    <glyph glyph-name="nonmarkingreturn" unicode="&#xd;" horiz-adv-x="333" 
 />
    <glyph glyph-name="space" unicode=" " horiz-adv-x="180" 
 />
    <glyph glyph-name="exclam" unicode="!" horiz-adv-x="188" 
d="M126 336l-12 -184h-40l-12 184v364h64v-364zM137 33c0 -13 -4 -23 -11 -31c-8 -9 -19 -13 -32 -13s-23 4 -31 13c-8 8 -12 18 -12 31s4 24 12 33c8 8 18 12 31 12s24 -4 32 -12c7 -9 11 -20 11 -33z" />
    <glyph glyph-name="quotedbl" unicode="&#x22;" horiz-adv-x="330" 
d="M277 700l-17 -327h-40l-17 327h74zM127 700l-17 -327h-40l-17 327h74z" />
    <glyph glyph-name="numbersign" unicode="#" horiz-adv-x="425" 
d="M395 172h-65v-172h-62v172h-111v-172h-62v172h-65v58h65v241h-65v58h65v171h62v-171h111v171h62v-171h65v-58h-65v-241h65v-58zM268 230v241h-111v-241h111z" />
    <glyph glyph-name="dollar" unicode="$" horiz-adv-x="324" 
d="M289 143c0 -39 -9 -72 -26 -98s-41 -43 -72 -50v-61h-67v62c-53 14 -85 67 -98 158l65 15c7 -43 17 -73 27 -90c12 -17 25 -25 42 -25c20 0 36 7 47 22c11 14 17 33 17 58c0 69 -32 139 -95 209c-37 41 -63 78 -76 110s-20 70 -20 114c0 34 8 63 23 89c16 24 38 41 66 48
v62h67v-62c26 -6 46 -20 61 -42c15 -21 27 -51 36 -89l-65 -19c-9 36 -19 60 -29 73c-9 13 -23 19 -40 19s-30 -7 -40 -22c-9 -15 -14 -32 -14 -51c0 -30 6 -58 16 -83c12 -25 33 -56 64 -91c74 -82 111 -167 111 -256z" />
    <glyph glyph-name="percent" unicode="%" horiz-adv-x="623" 
d="M241 494c0 -73 -9 -127 -27 -164c-19 -37 -44 -55 -77 -55c-68 0 -102 72 -102 217c0 73 9 127 27 164c19 37 44 55 77 55c68 0 102 -72 102 -217zM505 700l-327 -700h-60l327 700h60zM588 208c0 -73 -9 -127 -28 -164c-18 -37 -43 -55 -76 -55c-68 0 -102 72 -102 217
c0 73 9 127 28 164c18 37 43 55 76 55c68 0 102 -72 102 -217zM183 492c0 109 -15 163 -46 163c-29 0 -44 -54 -44 -161c0 -109 15 -163 46 -163c29 0 44 54 44 161zM530 206c0 109 -15 163 -46 163c-29 0 -44 -54 -44 -161c0 -109 15 -163 46 -163c29 0 44 54 44 161z" />
    <glyph glyph-name="ampersand" unicode="&#x26;" horiz-adv-x="350" 
d="M324 0h-65l-26 69c-14 -31 -29 -53 -44 -63c-15 -12 -35 -17 -58 -17c-33 0 -59 15 -76 47c-17 30 -26 74 -26 129c0 79 27 154 82 225l-26 68c-21 55 -31 98 -31 127c0 35 10 65 30 89c21 25 48 37 81 37s58 -11 76 -33s32 -53 42 -93l-61 -26c-8 33 -16 56 -24 69
c-9 14 -20 21 -34 21c-15 0 -26 -5 -33 -17c-7 -10 -11 -24 -11 -41c0 -32 7 -68 22 -107l88 -235c9 35 19 79 30 134l55 -16c-18 -81 -35 -151 -51 -208zM204 146l-68 178c-27 -46 -41 -96 -41 -150c0 -82 15 -123 45 -123c13 0 24 6 33 18s20 38 31 77z" />
    <glyph glyph-name="quoteright" unicode="&#x2019;" horiz-adv-x="160" 
d="M123 700l-44 -166h-37l10 166h71z" />
    <glyph glyph-name="parenleft" unicode="(" horiz-adv-x="225" 
d="M193 -83l-41 -27c-77 115 -115 253 -115 412s38 297 115 412l41 -27c-60 -102 -90 -229 -90 -382c0 -157 30 -286 90 -388z" />
    <glyph glyph-name="parenright" unicode=")" horiz-adv-x="225" 
d="M188 304c0 -161 -38 -299 -115 -414l-41 27c60 102 90 230 90 384c0 155 -30 284 -90 386l41 27c77 -115 115 -252 115 -410z" />
    <glyph glyph-name="asterisk" unicode="*" horiz-adv-x="320" 
d="M290 524l-28 -46l-88 66l13 -109h-54l13 109l-88 -66l-28 46l101 42l-101 44l28 46l88 -68l-13 110h54l-13 -110l88 68l28 -46l-101 -43z" />
    <glyph glyph-name="plus" unicode="+" horiz-adv-x="319" 
d="M296 314h-106v-127h-61v127h-106v60h106v127h61v-127h106v-60z" />
    <glyph glyph-name="comma" unicode="," horiz-adv-x="148" 
d="M117 72l-44 -166h-37l10 166h71z" />
    <glyph glyph-name="hyphen" unicode="-" horiz-adv-x="233" 
d="M200 334h-167v64h167v-64z" />
    <glyph glyph-name="period" unicode="." horiz-adv-x="148" 
d="M118 33c0 -13 -4 -23 -12 -31c-7 -9 -18 -13 -31 -13s-23 4 -31 13c-8 8 -12 18 -12 31s4 24 12 33c8 8 18 12 31 12s24 -4 31 -12c8 -9 12 -20 12 -33z" />
    <glyph glyph-name="slash" unicode="/" horiz-adv-x="230" 
d="M235 790l-181 -880h-59l181 880h59z" />
    <glyph glyph-name="zero" unicode="0" horiz-adv-x="360" 
d="M320 350c0 -122 -11 -213 -32 -272s-57 -89 -108 -89s-87 30 -108 89s-32 150 -32 272s11 213 32 272s57 89 108 89s87 -30 108 -89s32 -150 32 -272zM255 350c0 199 -25 299 -76 299c-25 0 -44 -24 -56 -71c-12 -48 -18 -124 -18 -228c0 -199 25 -299 76 -299
c25 0 44 24 56 71c12 48 18 124 18 228z" />
    <glyph glyph-name="one" unicode="1" horiz-adv-x="210" 
d="M150 0h-63v588h-77v43c29 3 49 9 62 18c12 9 21 26 27 51h51v-700z" />
    <glyph glyph-name="two" unicode="2" horiz-adv-x="318" 
d="M281 0h-254c0 93 9 166 29 220c18 53 52 110 100 171c39 49 58 99 58 152c0 71 -18 106 -55 106c-18 0 -31 -8 -41 -23c-8 -16 -18 -46 -27 -90l-61 18c10 53 25 92 44 118c20 26 51 39 92 39c38 0 66 -15 86 -45c18 -29 28 -69 28 -120c0 -64 -28 -133 -85 -208
c-39 -50 -65 -95 -79 -134c-15 -39 -22 -87 -22 -143h187v-61z" />
    <glyph glyph-name="three" unicode="3" horiz-adv-x="330" 
d="M286 201c0 -65 -12 -117 -36 -155c-23 -38 -56 -57 -98 -57c-35 0 -63 12 -82 37c-20 24 -36 63 -48 116l63 17c9 -40 19 -68 29 -84c11 -16 25 -24 43 -24c42 0 63 49 63 147c0 53 -7 90 -22 113s-39 34 -72 34h-15v62h23c28 0 48 11 61 32s19 56 19 104
c0 32 -5 58 -16 77s-25 29 -42 29s-31 -7 -40 -22c-8 -15 -19 -42 -31 -81l-61 18c13 49 30 86 48 110c20 25 48 37 87 37s69 -16 89 -47c22 -32 32 -72 32 -119c0 -86 -25 -141 -75 -165c27 -11 47 -28 61 -54c13 -24 20 -66 20 -125z" />
    <glyph glyph-name="four" unicode="4" horiz-adv-x="328" 
d="M307 195h-46v-195h-59v195h-188v45l197 460h50v-449h46v-56zM203 564c-6 -23 -19 -58 -39 -107l-48 -117c-16 -39 -29 -68 -39 -89h25h100v228v44c1 18 1 32 1 41z" />
    <glyph glyph-name="five" unicode="5" horiz-adv-x="330" 
d="M293 238c0 -166 -46 -249 -137 -249c-67 0 -108 51 -122 154l62 17c12 -73 33 -109 64 -109c25 0 43 16 52 47c10 32 15 78 15 137c0 46 -5 84 -16 113s-27 44 -49 44c-30 0 -54 -22 -71 -65l-52 9l14 364h228v-64h-169l-11 -214c17 21 41 32 73 32
c79 0 119 -72 119 -216z" />
    <glyph glyph-name="six" unicode="6" horiz-adv-x="331" 
d="M305 205c0 -62 -12 -113 -36 -155c-24 -40 -58 -61 -102 -61c-43 0 -77 21 -99 63c-24 41 -35 100 -35 177c0 126 16 225 49 297c32 73 79 134 140 185l36 -52c-43 -30 -78 -70 -105 -121s-45 -107 -53 -169c21 33 48 50 80 50c41 0 72 -20 94 -59c20 -40 31 -92 31 -155
zM240 203c0 47 -6 84 -18 112c-11 28 -29 42 -52 42c-48 0 -72 -51 -72 -152c0 -47 6 -84 19 -112s30 -42 51 -42c22 0 40 14 52 43c14 28 20 64 20 109z" />
    <glyph glyph-name="seven" unicode="7" horiz-adv-x="315" 
d="M281 642c-55 -88 -90 -178 -105 -271s-23 -216 -23 -371h-65c0 141 9 262 26 366c17 102 50 194 99 273h-194v61h262v-58z" />
    <glyph glyph-name="eight" unicode="8" horiz-adv-x="332" 
d="M297 209c0 -71 -12 -126 -37 -163c-24 -38 -56 -57 -96 -57c-37 0 -68 19 -92 57c-25 39 -37 93 -37 162c0 79 22 138 66 175c-40 33 -60 82 -60 148c0 51 12 94 35 129c23 34 53 51 90 51c39 0 69 -17 92 -52s34 -77 34 -127c0 -63 -20 -112 -61 -147
c44 -35 66 -94 66 -176zM227 530c0 35 -5 63 -17 86c-10 22 -25 33 -44 33c-18 0 -32 -11 -44 -33c-10 -21 -16 -49 -16 -84c0 -33 6 -61 16 -83c12 -22 26 -33 44 -33s33 11 44 32c11 22 17 49 17 82zM232 208c0 43 -6 78 -18 105s-28 41 -49 41s-37 -14 -48 -40
c-11 -28 -17 -62 -17 -105c0 -47 6 -86 18 -115c12 -28 28 -43 49 -43c20 0 36 14 47 43c12 28 18 66 18 114z" />
    <glyph glyph-name="nine" unicode="9" horiz-adv-x="331" 
d="M298 471c0 -126 -16 -225 -48 -297c-33 -73 -80 -134 -141 -185l-36 52c43 30 78 70 105 121s45 107 53 169c-21 -33 -48 -50 -80 -50c-41 0 -73 20 -93 59c-22 40 -32 92 -32 155c0 62 12 113 36 155c24 40 58 61 102 61c43 0 76 -21 100 -63c22 -41 34 -100 34 -177z
M233 495c0 47 -6 84 -19 112s-30 42 -51 42c-22 0 -39 -14 -53 -43c-12 -28 -19 -64 -19 -109c0 -47 6 -84 17 -112c12 -28 30 -42 53 -42c48 0 72 51 72 152z" />
    <glyph glyph-name="colon" unicode=":" horiz-adv-x="148" 
d="M118 491c0 -13 -4 -23 -12 -31c-7 -9 -18 -13 -31 -13s-23 4 -31 13c-8 8 -12 18 -12 31s4 24 12 33c8 8 18 12 31 12s24 -4 31 -12c8 -9 12 -20 12 -33zM118 33c0 -13 -4 -23 -12 -31c-7 -9 -18 -13 -31 -13s-23 4 -31 13c-8 8 -12 18 -12 31s4 24 12 33
c8 8 18 12 31 12s24 -4 31 -12c8 -9 12 -20 12 -33z" />
    <glyph glyph-name="semicolon" unicode=";" horiz-adv-x="148" 
d="M118 491c0 -13 -4 -23 -12 -31c-7 -9 -18 -13 -31 -13s-23 4 -31 13c-8 8 -12 18 -12 31s4 24 12 33c8 8 18 12 31 12s24 -4 31 -12c8 -9 12 -20 12 -33zM109 72l-44 -166h-37l10 166h71z" />
    <glyph glyph-name="less" unicode="&#x3c;" horiz-adv-x="250" 
d="M220 120l-195 201v46l195 201v-85l-145 -138l145 -139v-86z" />
    <glyph glyph-name="equal" unicode="=" horiz-adv-x="355" 
d="M310 397h-265v63h265v-63zM310 228h-265v63h265v-63z" />
    <glyph glyph-name="greater" unicode="&#x3e;" horiz-adv-x="250" 
d="M225 321l-195 -201v85l145 138l-145 139v86l195 -201v-46z" />
    <glyph glyph-name="question" unicode="?" horiz-adv-x="305" 
d="M274 547c0 -66 -22 -127 -65 -183c-17 -23 -29 -48 -37 -78c-6 -28 -10 -68 -10 -119h-60c0 63 4 111 12 145c8 32 25 65 51 98c29 36 43 81 43 134c0 70 -18 105 -55 105c-18 0 -31 -8 -41 -23c-8 -16 -18 -46 -27 -90l-61 18c10 53 25 92 44 118c20 26 50 39 91 39
c39 0 67 -15 87 -45c18 -30 28 -70 28 -119zM175 33c0 -13 -4 -23 -11 -31c-8 -9 -19 -13 -32 -13s-23 4 -31 13c-8 8 -12 18 -12 31s4 24 12 33c8 8 18 12 31 12s24 -4 32 -12c7 -9 11 -20 11 -33z" />
    <glyph glyph-name="at" unicode="@" horiz-adv-x="483" 
d="M446 360c0 -77 -7 -130 -22 -160c-14 -31 -36 -46 -66 -46c-27 0 -46 11 -59 33c-23 -23 -48 -35 -73 -35c-49 0 -73 43 -73 130s28 130 85 130c13 0 26 -4 37 -12v64c0 18 -2 31 -7 39s-13 12 -26 12c-14 0 -31 -10 -52 -31l-26 32c27 30 55 45 84 45c25 0 43 -7 54 -21
c12 -13 18 -38 18 -74v-204c0 -43 13 -64 38 -64c15 0 25 12 32 36c7 25 10 67 10 127c0 97 -14 173 -42 226s-67 80 -116 80c-53 0 -92 -27 -119 -83c-27 -54 -40 -132 -40 -233c0 -102 13 -181 41 -235c26 -56 67 -83 121 -83c28 0 53 10 76 29l21 -35
c-31 -25 -64 -38 -100 -38c-64 0 -114 32 -150 96c-37 64 -55 152 -55 265s18 201 55 265c36 64 86 96 150 96c63 0 113 -32 150 -96c36 -64 54 -149 54 -255zM275 219v137c-11 8 -23 12 -36 12c-26 0 -39 -28 -39 -85c0 -59 12 -88 35 -88c15 0 28 8 40 24z" />
    <glyph glyph-name="A" unicode="A" horiz-adv-x="362" 
d="M333 0h-69l-28 184h-112l-28 -184h-67l117 700h70zM227 245l-21 142c-13 97 -22 166 -26 208c-4 -42 -13 -111 -26 -208l-21 -142h94z" />
    <glyph glyph-name="B" unicode="B" horiz-adv-x="357" 
d="M318 203c0 -68 -15 -119 -45 -153c-30 -33 -68 -50 -115 -50h-101v700h97c50 0 88 -16 114 -48c25 -31 38 -75 38 -130c0 -73 -25 -125 -75 -154c58 -29 87 -84 87 -165zM241 520c0 79 -30 118 -89 118h-31v-239h30c30 0 53 11 67 33c16 22 23 51 23 88zM253 200
c0 44 -9 78 -27 102c-19 23 -44 35 -77 35h-28v-275h40c61 0 92 46 92 138z" />
    <glyph glyph-name="C" unicode="C" horiz-adv-x="346" 
d="M316 156c-10 -55 -25 -96 -46 -124c-21 -29 -51 -43 -91 -43c-50 0 -85 29 -106 89c-21 58 -31 149 -31 272c0 120 11 210 32 270c22 61 58 91 107 91c38 0 67 -15 87 -43c21 -30 36 -73 46 -130l-63 -17c-10 49 -20 83 -31 101c-10 18 -23 27 -40 27
c-48 0 -72 -100 -72 -299c0 -105 6 -182 18 -228c12 -48 31 -71 58 -71c18 0 32 9 42 27c11 19 20 51 29 96z" />
    <glyph glyph-name="D" unicode="D" horiz-adv-x="366" 
d="M325 355c0 -121 -14 -210 -41 -268c-28 -58 -72 -87 -131 -87h-96v700h105c61 0 103 -29 127 -86s36 -144 36 -259zM260 352c0 191 -33 287 -99 287h-40v-578h37c68 0 102 97 102 291z" />
    <glyph glyph-name="E" unicode="E" horiz-adv-x="319" 
d="M290 0h-233v700h223v-62h-159v-233h111v-62h-111v-281h169v-62z" />
    <glyph glyph-name="F" unicode="F" horiz-adv-x="314" 
d="M286 638h-165v-238h118v-62h-118v-338h-64v700h229v-62z" />
    <glyph glyph-name="G" unicode="G" horiz-adv-x="363" 
d="M320 223c0 -156 -46 -234 -139 -234c-51 0 -87 29 -108 88s-31 150 -31 273c0 121 11 212 32 272c21 59 58 89 110 89c36 0 64 -15 84 -44c21 -29 36 -72 46 -129l-63 -17c-9 49 -19 82 -30 101c-11 18 -24 27 -40 27c-25 0 -44 -24 -55 -72c-12 -48 -18 -124 -18 -227
c0 -105 6 -182 18 -228c12 -48 32 -71 59 -71c48 0 72 55 72 166v83h-75v61h138v-138z" />
    <glyph glyph-name="H" unicode="H" horiz-adv-x="392" 
d="M335 0h-64v343h-150v-343h-64v700h64v-296h150v296h64v-700z" />
    <glyph glyph-name="I" unicode="I" horiz-adv-x="188" 
d="M126 0h-64v700h64v-700z" />
    <glyph glyph-name="J" unicode="J" horiz-adv-x="327" 
d="M271 163c0 -57 -11 -100 -32 -129c-21 -30 -51 -45 -88 -45c-39 0 -68 14 -87 43c-20 29 -34 73 -42 132l62 13c7 -46 15 -79 26 -97c11 -20 25 -29 43 -29c36 0 54 38 54 113v536h64v-537z" />
    <glyph glyph-name="K" unicode="K" horiz-adv-x="345" 
d="M322 0h-68l-103 360l-30 -67v-293h-64v700h64v-186c0 -16 0 -36 -1 -62v-56c13 37 31 81 54 132l76 172h70l-125 -262z" />
    <glyph glyph-name="L" unicode="L" horiz-adv-x="292" 
d="M269 0h-212v700h64v-638h148v-62z" />
    <glyph glyph-name="M" unicode="M" horiz-adv-x="454" 
d="M397 0h-58v378c0 20 0 46 1 79v72c-6 -44 -15 -95 -27 -152l-86 -398l-86 398c-9 46 -18 97 -27 152v-70c1 -32 1 -59 1 -81v-378h-58v700h71l72 -336c16 -86 25 -148 27 -185c2 34 11 96 28 185l72 336h70v-700z" />
    <glyph glyph-name="N" unicode="N" horiz-adv-x="392" 
d="M335 0h-51l-107 326c-32 97 -53 169 -62 215c1 -57 2 -118 2 -182v-359h-60v700h63l95 -292c32 -97 53 -169 62 -215c-1 57 -2 118 -2 182v325h60v-700z" />
    <glyph glyph-name="O" unicode="O" horiz-adv-x="374" 
d="M332 350c0 -121 -11 -212 -34 -272c-23 -59 -60 -89 -111 -89s-88 30 -111 89c-23 60 -34 151 -34 272s11 212 34 272c23 59 60 89 111 89s88 -30 111 -89c23 -60 34 -151 34 -272zM266 350c0 199 -27 299 -80 299c-52 0 -78 -100 -78 -299s27 -299 80 -299
c52 0 78 100 78 299z" />
    <glyph glyph-name="P" unicode="P" horiz-adv-x="342" 
d="M313 515c0 -65 -15 -115 -47 -147c-30 -34 -69 -50 -114 -50h-31v-318h-64v700h100c47 0 84 -16 113 -46c29 -32 43 -78 43 -139zM248 511c0 41 -8 73 -24 95c-17 21 -40 32 -69 32h-34v-258h34c29 0 52 11 69 34c16 23 24 55 24 97z" />
    <glyph glyph-name="Q" unicode="Q" horiz-adv-x="374" 
d="M333 28l-43 -39l-28 33c-20 -22 -45 -33 -75 -33c-51 0 -88 30 -111 89c-23 60 -34 151 -34 272s11 212 34 272c23 59 60 89 111 89s88 -30 111 -89c23 -60 34 -151 34 -272c0 -125 -13 -217 -38 -276zM266 350c0 199 -27 299 -80 299c-52 0 -78 -100 -78 -299
s27 -299 80 -299c15 0 28 5 37 15l-49 58l42 40l33 -39c10 41 15 116 15 225z" />
    <glyph glyph-name="R" unicode="R" horiz-adv-x="352" 
d="M322 0h-68l-77 330c-10 -1 -29 -2 -56 -2v-328h-64v700h100c46 0 83 -15 113 -46c28 -31 43 -75 43 -134c0 -77 -24 -132 -73 -166zM248 515c0 39 -8 70 -24 91c-17 21 -40 32 -69 32h-34v-250h34c29 0 52 11 69 34c16 22 24 53 24 93z" />
    <glyph glyph-name="S" unicode="S" horiz-adv-x="334" 
d="M294 143c0 -46 -12 -83 -35 -111c-23 -29 -55 -43 -95 -43c-74 0 -118 55 -133 165l65 15c7 -44 16 -75 28 -92c10 -17 24 -26 41 -26c20 0 36 7 47 23c11 14 17 35 17 60c0 69 -32 139 -95 209c-37 41 -63 78 -76 110s-20 70 -20 114c0 41 11 76 32 103
c22 27 52 41 89 41c38 0 67 -11 86 -35c19 -22 35 -57 46 -103l-65 -19c-9 36 -19 61 -29 74c-10 14 -23 21 -40 21s-30 -8 -39 -23c-10 -15 -15 -33 -15 -53c0 -30 5 -58 17 -83c10 -25 32 -56 63 -91c74 -82 111 -167 111 -256z" />
    <glyph glyph-name="T" unicode="T" horiz-adv-x="310" 
d="M289 640h-102v-640h-64v640h-102v60h268v-60z" />
    <glyph glyph-name="U" unicode="U" horiz-adv-x="390" 
d="M334 163c0 -53 -13 -96 -38 -127c-26 -31 -60 -47 -102 -47s-76 16 -100 47c-26 31 -38 74 -38 127v537h64v-535c0 -35 7 -63 20 -83c13 -21 32 -31 55 -31s42 10 55 31c13 20 20 48 20 83v535h64v-537z" />
    <glyph glyph-name="V" unicode="V" horiz-adv-x="352" 
d="M323 700l-115 -700h-64l-115 700h64l57 -394c14 -100 23 -171 26 -212c3 41 12 112 26 212l57 394h64z" />
    <glyph glyph-name="W" unicode="W" horiz-adv-x="450" 
d="M429 700l-84 -700h-58l-39 282c-15 119 -23 204 -24 253c-1 -47 -9 -131 -24 -253l-39 -282h-56l-84 700h61l41 -384c4 -34 8 -84 13 -150c7 74 12 125 15 152l49 382h50l49 -382c3 -27 8 -78 15 -152c5 66 9 116 13 150l41 384h61z" />
    <glyph glyph-name="X" unicode="X" horiz-adv-x="326" 
d="M304 0h-68l-44 159c-14 54 -24 96 -30 126c-8 -41 -18 -83 -30 -126l-44 -159h-66l107 363l-99 337h68l36 -132c14 -54 24 -96 30 -126c6 30 16 72 30 126l36 132h66l-99 -336z" />
    <glyph glyph-name="Y" unicode="Y" horiz-adv-x="334" 
d="M317 700l-118 -397v-303h-64v301l-118 399h67l47 -175c19 -72 32 -124 37 -156c7 38 19 90 37 156l47 175h65z" />
    <glyph glyph-name="Z" unicode="Z" horiz-adv-x="305" 
d="M268 0h-236v57l171 582h-156v61h221v-57l-170 -582h170v-61z" />
    <glyph glyph-name="bracketleft" unicode="[" horiz-adv-x="245" 
d="M208 -93h-148v793h148v-57h-88v-679h88v-57z" />
    <glyph glyph-name="backslash" unicode="\" horiz-adv-x="230" 
d="M235 -90h-59l-181 880h59z" />
    <glyph glyph-name="bracketright" unicode="]" horiz-adv-x="245" 
d="M185 -93h-148v57h88v679h-88v57h148v-793z" />
    <glyph glyph-name="asciicircum" unicode="^" horiz-adv-x="320" 
d="M292 382h-66l-67 231l-66 -231h-65l104 318h56z" />
    <glyph glyph-name="underscore" unicode="_" horiz-adv-x="245" 
d="M245 -151h-245v57h245v-57z" />
    <glyph glyph-name="quoteleft" unicode="&#x2018;" horiz-adv-x="160" 
d="M118 700l-10 -166h-71l44 166h37z" />
    <glyph glyph-name="a" unicode="a" horiz-adv-x="322" 
d="M273 0h-62v25c-25 -24 -51 -36 -77 -36c-67 0 -100 58 -100 175c0 116 39 174 116 174c23 0 43 -6 61 -19v86c0 47 -17 70 -51 70c-19 0 -44 -15 -74 -46l-37 47c40 40 78 60 115 60s64 -9 82 -28c18 -18 27 -51 27 -98v-410zM211 80v181c-19 12 -39 18 -59 18
c-21 0 -35 -9 -43 -28s-12 -47 -12 -85c0 -79 16 -118 49 -118c23 0 45 11 65 32z" />
    <glyph glyph-name="b" unicode="b" horiz-adv-x="339" 
d="M302 264c0 -91 -9 -160 -27 -206s-48 -69 -90 -69c-23 0 -47 11 -71 34v-23h-62v691l62 38v-231c23 25 48 38 75 38c42 0 71 -23 88 -69s25 -114 25 -203zM239 262c0 76 -5 131 -14 164c-9 34 -25 51 -48 51c-20 0 -41 -10 -63 -31v-366c23 -21 46 -32 67 -32
c39 0 58 71 58 214z" />
    <glyph glyph-name="c" unicode="c" horiz-adv-x="305" 
d="M277 100c-26 -74 -63 -111 -112 -111c-41 0 -73 23 -95 71c-22 46 -33 113 -33 199c0 90 11 159 33 206c23 47 55 71 96 71c29 0 52 -10 70 -31c16 -21 30 -49 39 -86l-55 -28c-6 21 -11 36 -14 45s-9 18 -16 26c-7 9 -16 13 -26 13c-43 0 -64 -72 -64 -215
c0 -140 22 -210 67 -210c12 0 22 6 30 17s18 32 30 63z" />
    <glyph glyph-name="d" unicode="d" horiz-adv-x="339" 
d="M287 0h-62v27c-23 -25 -48 -38 -75 -38c-42 0 -71 23 -88 69s-25 114 -25 203c0 91 9 160 27 206s48 69 90 69c23 0 47 -11 71 -34v189l62 38v-729zM225 79v366c-23 21 -46 32 -67 32c-39 0 -58 -71 -58 -214c0 -76 5 -131 14 -165c9 -33 25 -50 48 -50c20 0 41 10 63 31
z" />
    <glyph glyph-name="e" unicode="e" horiz-adv-x="325" 
d="M287 241h-189c2 -127 24 -191 66 -191c15 0 28 5 37 14s22 27 38 54l43 -34c-16 -31 -33 -54 -51 -70c-18 -17 -41 -25 -68 -25c-84 0 -126 90 -126 270c0 90 11 159 33 206s54 71 95 71c81 0 122 -94 122 -281v-14zM225 300c-3 117 -24 175 -62 175
c-39 0 -60 -58 -64 -175h126z" />
    <glyph glyph-name="f" unicode="f" horiz-adv-x="208" 
d="M203 660c-14 5 -28 7 -41 7c-26 0 -39 -16 -39 -49v-93h66v-57h-66v-468h-60v468h-44v57h44v88c0 38 8 66 24 85s38 28 67 28c19 0 35 -3 49 -8v-58z" />
    <glyph glyph-name="g" unicode="g" horiz-adv-x="339" 
d="M287 49c0 -72 -11 -125 -33 -161c-23 -34 -65 -62 -127 -81l-20 52c45 15 76 33 93 57c17 22 25 54 25 95v16c-23 -25 -48 -38 -75 -38c-42 0 -71 23 -88 69s-25 114 -25 203c0 91 9 160 27 206s48 69 90 69c23 0 47 -11 71 -34v23h62v-476zM225 79v366
c-23 21 -46 32 -67 32c-39 0 -58 -71 -58 -214c0 -76 5 -131 14 -165c9 -33 25 -50 48 -50c20 0 41 10 63 31z" />
    <glyph glyph-name="h" unicode="h" horiz-adv-x="341" 
d="M292 0h-62v392c0 31 -4 53 -12 66s-21 19 -39 19c-21 0 -43 -10 -65 -31v-446h-62v691l62 38v-230c26 25 54 37 85 37c62 0 93 -47 93 -140v-396z" />
    <glyph glyph-name="i" unicode="i" horiz-adv-x="176" 
d="M131 675c0 -12 -4 -23 -12 -33c-8 -9 -18 -14 -29 -14s-21 5 -30 14c-9 10 -13 21 -13 33c0 13 4 24 13 33c9 10 19 15 30 15s21 -5 29 -14s12 -21 12 -34zM119 0h-62v525h62v-525z" />
    <glyph glyph-name="j" unicode="j" horiz-adv-x="176" 
d="M131 675c0 -12 -4 -23 -12 -33c-8 -9 -18 -14 -29 -14s-21 5 -30 14c-9 10 -13 21 -13 33c0 13 4 24 13 33c9 10 19 15 30 15s21 -5 29 -14s12 -21 12 -34zM119 9c0 -63 -9 -109 -27 -136s-50 -49 -96 -66l-17 54c31 11 52 26 63 45c10 19 15 51 15 97v522h62v-516z" />
    <glyph glyph-name="k" unicode="k" horiz-adv-x="316" 
d="M302 0h-67l-82 263l-39 -81v-182h-62v691l62 38v-371v-79c8 19 21 49 38 89l72 157h71l-103 -195z" />
    <glyph glyph-name="l" unicode="l" horiz-adv-x="176" 
d="M119 0h-62v691l62 38v-729z" />
    <glyph glyph-name="m" unicode="m" horiz-adv-x="499" 
d="M450 0h-62v392c0 31 -4 53 -11 66s-19 19 -35 19c-18 0 -38 -10 -60 -31v-446h-62v392c0 31 -4 53 -11 66s-19 19 -35 19c-18 0 -38 -10 -60 -31v-446h-62v525h62v-26c26 25 53 37 80 37c31 0 54 -14 71 -43c33 29 65 43 97 43c59 0 88 -47 88 -140v-396z" />
    <glyph glyph-name="n" unicode="n" horiz-adv-x="341" 
d="M292 0h-62v392c0 31 -4 53 -12 66s-21 19 -39 19c-21 0 -43 -10 -65 -31v-446h-62v525h62v-26c26 25 54 37 85 37c62 0 93 -47 93 -140v-396z" />
    <glyph glyph-name="o" unicode="o" horiz-adv-x="344" 
d="M307 262c0 -182 -45 -273 -135 -273s-135 91 -135 273c0 183 45 274 135 274s135 -91 135 -274zM244 262c0 142 -24 213 -73 213c-47 0 -71 -71 -71 -213c0 -141 24 -212 73 -212c47 0 71 71 71 212z" />
    <glyph glyph-name="p" unicode="p" horiz-adv-x="339" 
d="M302 264c0 -91 -9 -160 -27 -206s-48 -69 -90 -69c-23 0 -47 11 -71 34v-178l-62 -38v718h62v-27c23 25 48 38 75 38c42 0 71 -23 88 -69s25 -114 25 -203zM239 262c0 76 -5 131 -14 164c-9 34 -25 51 -48 51c-20 0 -41 -10 -63 -31v-366c23 -21 46 -32 67 -32
c39 0 58 71 58 214z" />
    <glyph glyph-name="q" unicode="q" horiz-adv-x="339" 
d="M287 -155l-62 -38v220c-23 -25 -48 -38 -75 -38c-42 0 -71 23 -88 69s-25 114 -25 203c0 91 9 160 27 206s48 69 90 69c23 0 47 -11 71 -34v23h62v-680zM225 79v366c-23 21 -46 32 -67 32c-39 0 -58 -71 -58 -214c0 -76 5 -131 14 -165c9 -33 25 -50 48 -50
c20 0 41 10 63 31z" />
    <glyph glyph-name="r" unicode="r" horiz-adv-x="246" 
d="M237 526l-19 -65c-15 8 -31 12 -48 12c-21 0 -40 -9 -56 -28v-445h-62v525h62v-26c22 25 47 37 74 37c18 0 34 -3 49 -10z" />
    <glyph glyph-name="s" unicode="s" horiz-adv-x="293" 
d="M263 118c0 -37 -11 -67 -33 -92s-50 -37 -85 -37c-57 0 -95 36 -116 108l53 31c9 -27 18 -47 28 -60s22 -19 36 -19c18 0 32 6 42 18c9 12 14 27 14 45c0 25 -4 46 -14 64c-8 17 -29 39 -60 66c-33 29 -57 55 -72 80c-15 24 -22 53 -22 87c0 36 10 66 31 91
c21 24 47 36 80 36c53 0 90 -32 111 -95l-56 -31c-15 44 -35 66 -58 66c-15 0 -26 -6 -34 -16c-9 -12 -13 -26 -13 -45c0 -21 5 -39 15 -55c9 -17 29 -38 58 -63c33 -29 58 -57 72 -84c16 -27 23 -59 23 -95z" />
    <glyph glyph-name="t" unicode="t" horiz-adv-x="227" 
d="M205 63l-7 -61c-19 -9 -39 -13 -60 -13c-51 0 -76 35 -76 104v375h-44v57h44v166l60 38v-204h75v-57h-75v-373c0 -31 10 -46 29 -46c17 0 35 5 54 14z" />
    <glyph glyph-name="u" unicode="u" horiz-adv-x="341" 
d="M289 0h-62v26c-26 -25 -54 -37 -85 -37c-62 0 -93 47 -93 140v396h62v-392c0 -31 4 -53 12 -66s21 -19 39 -19c21 0 43 10 65 31v446h62v-525z" />
    <glyph glyph-name="v" unicode="v" horiz-adv-x="311" 
d="M289 525l-102 -525h-63l-102 525h66l49 -306c10 -63 16 -109 19 -137c3 28 9 74 19 137l49 306h65z" />
    <glyph glyph-name="w" unicode="w" horiz-adv-x="420" 
d="M394 525l-67 -525h-57l-43 279c-7 48 -13 98 -17 150c-4 -51 -10 -101 -17 -150l-43 -279h-57l-67 525h64l21 -238c8 -99 12 -155 13 -168c2 21 9 76 21 165l36 241h58l36 -241c12 -89 19 -144 21 -165c1 13 5 69 13 168l21 238h64z" />
    <glyph glyph-name="x" unicode="x" horiz-adv-x="297" 
d="M277 0h-67l-39 130c-13 46 -21 75 -23 88c-4 -24 -12 -53 -23 -88l-40 -130h-65l96 282l-83 243h66l26 -90c13 -46 21 -75 23 -88c2 13 10 42 23 88l27 90h66l-84 -243z" />
    <glyph glyph-name="y" unicode="y" horiz-adv-x="311" 
d="M289 525l-139 -710h-62l40 168l-106 542h66l49 -306c10 -63 16 -109 19 -137c3 28 9 74 19 137l49 306h65z" />
    <glyph glyph-name="z" unicode="z" horiz-adv-x="285" 
d="M249 0h-223v49l159 420h-145v56h209v-49l-159 -420h159v-56z" />
    <glyph glyph-name="braceleft" unicode="{" horiz-adv-x="255" 
d="M235 -110c-56 3 -94 18 -115 44c-20 25 -30 70 -30 135v111c0 35 -4 59 -14 72c-9 13 -22 20 -41 20h-18v57h18c19 0 33 7 41 20c10 13 14 37 14 72v111c0 65 10 110 30 136c21 25 59 40 115 43v-51c-36 -6 -59 -16 -69 -31c-11 -15 -16 -43 -16 -86v-116
c0 -39 -4 -67 -12 -85c-8 -19 -23 -32 -44 -41c21 -9 36 -22 44 -41s12 -47 12 -86v-116c0 -43 5 -71 16 -86c10 -15 33 -25 69 -31v-51z" />
    <glyph glyph-name="bar" unicode="|" horiz-adv-x="191" 
d="M126 -185h-61v985h61v-985z" />
    <glyph glyph-name="braceright" unicode="}" horiz-adv-x="255" 
d="M238 272h-18c-19 0 -32 -7 -42 -20c-8 -13 -13 -37 -13 -72v-111c0 -65 -10 -110 -31 -135c-20 -26 -58 -41 -114 -44v51c36 6 59 16 70 31c10 15 15 43 15 86v116c0 39 4 67 12 86c8 18 23 31 44 40c-21 9 -36 22 -44 41s-12 47 -12 86v116c0 43 -5 71 -15 86
c-11 15 -34 25 -70 31v51c56 -3 94 -18 114 -43c21 -26 31 -71 31 -136v-111c0 -35 5 -59 13 -72c10 -13 23 -20 42 -20h18v-57z" />
    <glyph glyph-name="asciitilde" unicode="~" horiz-adv-x="313" 
d="M290 429c-15 -83 -43 -124 -82 -124c-13 0 -24 3 -33 9c-9 7 -22 20 -37 39c-14 18 -25 27 -32 27s-12 -5 -18 -14c-4 -10 -10 -30 -17 -61l-49 14c15 83 43 124 82 124c13 0 24 -3 33 -9c9 -7 22 -20 37 -39c14 -18 25 -27 32 -27s12 5 18 14c4 10 10 30 17 61z" />
    <glyph glyph-name="exclamdown" unicode="&#xa1;" horiz-adv-x="188" 
d="M137 667c0 -13 -4 -24 -12 -33c-8 -8 -18 -12 -31 -12s-24 4 -32 12c-7 9 -11 20 -11 33s4 23 11 31c8 9 19 13 32 13s23 -4 31 -13c8 -8 12 -18 12 -31zM126 0h-64v364l12 184h40l12 -184v-364z" />
    <glyph glyph-name="cent" unicode="&#xa2;" horiz-adv-x="305" 
d="M277 193c-20 -59 -47 -94 -82 -106v-98h-61v98c-65 23 -97 112 -97 265c0 158 32 248 97 271v97h61v-95c37 -12 63 -50 80 -113l-55 -28c-6 21 -11 36 -14 45s-9 18 -16 27c-7 8 -16 12 -26 12c-43 0 -64 -72 -64 -215c0 -140 22 -210 67 -210c12 0 22 6 30 17
s18 32 30 63z" />
    <glyph glyph-name="sterling" unicode="&#xa3;" horiz-adv-x="345" 
d="M313 558l-63 -17c-8 39 -18 66 -29 83s-27 25 -46 25c-37 0 -56 -29 -56 -87c0 -36 7 -76 20 -119c9 -32 15 -61 18 -86h84v-61h-81c-1 -83 -17 -161 -50 -235h200v-61h-267v60c37 75 55 154 55 236h-55v61h51c-3 19 -8 42 -17 67c-15 46 -23 90 -23 132
c0 47 11 85 32 113c22 28 53 42 92 42c37 0 66 -12 86 -36c21 -24 37 -63 49 -117z" />
    <glyph glyph-name="fraction" unicode="&#x2044;" horiz-adv-x="337" 
d="M373 700l-343 -700h-66l343 700h66z" />
    <glyph glyph-name="yen" unicode="&#xa5;" horiz-adv-x="334" 
d="M317 700l-120 -402v-101h82v-60h-82v-137h-60v137h-82v60h82v99l-120 404h67l47 -175c19 -72 32 -124 37 -156c7 38 19 90 37 156l47 175h65z" />
    <glyph glyph-name="florin" unicode="&#x192;" horiz-adv-x="250" 
d="M223 647c-14 5 -30 7 -49 7c-27 0 -41 -17 -41 -51v-78h74v-57h-74v-624l-60 -36v660h-44v57h44v75c0 74 31 111 94 111c23 0 42 -3 56 -8v-56z" />
    <glyph glyph-name="section" unicode="&#xa7;" horiz-adv-x="342" 
d="M311 268c0 -63 -24 -119 -71 -166c28 -32 42 -73 42 -124c0 -45 -10 -80 -30 -105c-21 -25 -48 -37 -83 -37s-61 10 -79 31c-19 21 -34 56 -46 107l63 17c9 -37 17 -61 27 -74c8 -13 21 -19 38 -19c31 0 46 25 46 74c0 29 -5 52 -15 69s-28 33 -55 50
c-28 17 -50 33 -64 47c-16 14 -28 33 -38 56s-15 52 -15 85c0 63 24 119 71 166c-28 32 -42 73 -42 124c0 45 10 80 30 105c21 25 48 37 83 37s61 -10 79 -31c19 -21 34 -56 46 -107l-63 -17c-9 37 -17 61 -27 74c-8 13 -21 19 -38 19c-31 0 -46 -25 -46 -74
c0 -29 5 -52 15 -69s28 -33 55 -50c28 -17 50 -33 64 -47c16 -14 28 -33 38 -56s15 -52 15 -85zM247 262c0 33 -6 59 -17 78c-12 19 -31 36 -57 51c-4 2 -10 5 -17 10s-12 8 -14 9c-31 -32 -47 -74 -47 -125c0 -33 6 -59 17 -78c12 -19 31 -36 57 -51c7 -4 18 -11 31 -20
c31 33 47 75 47 126z" />
    <glyph glyph-name="currency" unicode="&#xa4;" horiz-adv-x="335" 
d="M105 257c7 -137 32 -206 77 -206c18 0 32 9 43 27c11 19 20 50 29 95l58 -15c-10 -55 -25 -97 -45 -126s-50 -43 -90 -43c-50 0 -85 29 -106 89c-21 58 -31 149 -31 272c0 120 11 210 32 270c22 61 58 91 107 91c38 0 67 -15 87 -43c20 -30 35 -73 45 -131l-60 -16
c-9 49 -20 82 -31 101c-11 18 -25 27 -42 27c-41 0 -65 -66 -72 -197h134v-55h-137v-47v-38h137v-55h-135z" />
    <glyph glyph-name="quotesingle" unicode="'" horiz-adv-x="180" 
d="M127 700l-17 -327h-40l-17 327h74z" />
    <glyph glyph-name="quotedblleft" unicode="&#x201c;" horiz-adv-x="290" 
d="M248 700l-10 -166h-71l44 166h37zM118 700l-10 -166h-71l44 166h37z" />
    <glyph glyph-name="guillemotleft" unicode="&#xab;" horiz-adv-x="380" 
d="M354 0h-66l-133 262l133 263h66l-133 -262zM212 0h-66l-133 262l133 263h66l-133 -262z" />
    <glyph glyph-name="guilsinglleft" unicode="&#x2039;" horiz-adv-x="238" 
d="M212 0h-66l-133 262l133 263h66l-133 -262z" />
    <glyph glyph-name="guilsinglright" unicode="&#x203a;" horiz-adv-x="238" 
d="M225 263l-133 -263h-66l133 262l-133 263h66z" />
    <glyph glyph-name="fi" unicode="&#xfb01;" horiz-adv-x="377" 
d="M332 675c0 -12 -4 -23 -12 -33c-8 -9 -18 -14 -29 -14s-21 5 -30 14c-9 10 -13 21 -13 33c0 13 4 24 13 33c9 10 19 15 30 15s21 -5 29 -14s12 -21 12 -34zM203 660c-14 5 -28 7 -41 7c-26 0 -39 -16 -39 -49v-93h66v-57h-66v-468h-60v468h-44v57h44v88c0 38 8 66 24 85
s38 28 67 28c19 0 35 -3 49 -8v-58zM320 0h-62v525h62v-525z" />
    <glyph glyph-name="fl" unicode="&#xfb02;" horiz-adv-x="377" 
d="M320 0h-62v691l62 38v-729zM203 660c-14 5 -28 7 -41 7c-26 0 -39 -16 -39 -49v-93h66v-57h-66v-468h-60v468h-44v57h44v88c0 38 8 66 24 85s38 28 67 28c19 0 35 -3 49 -8v-58z" />
    <glyph glyph-name="endash" unicode="&#x2013;" horiz-adv-x="283" 
d="M250 335h-217v61h217v-61z" />
    <glyph glyph-name="dagger" unicode="&#x2020;" horiz-adv-x="343" 
d="M323 404h-123v-504h-57v504h-123v55h123v241h57v-241h123v-55z" />
    <glyph glyph-name="daggerdbl" unicode="&#x2021;" horiz-adv-x="343" 
d="M323 141h-123v-241h-57v241h-123v55h123v208h-123v55h123v241h57v-241h123v-55h-123v-208h123v-55z" />
    <glyph glyph-name="periodcentered" unicode="&#xb7;" horiz-adv-x="148" 
d="M118 367c0 -13 -4 -23 -12 -31c-7 -9 -18 -13 -31 -13s-23 4 -31 13c-8 8 -12 18 -12 31s4 24 12 33c8 8 18 12 31 12s24 -4 31 -12c8 -9 12 -20 12 -33z" />
    <glyph glyph-name="paragraph" unicode="&#xb6;" horiz-adv-x="475" 
d="M418 -185h-60v827h-65v-827h-60v499h-21c-51 0 -94 17 -129 52c-35 34 -52 81 -52 141c0 59 17 106 53 141c34 35 77 52 128 52h206v-885z" />
    <glyph glyph-name="bullet" unicode="&#x2022;" horiz-adv-x="294" 
d="M222 366c0 -21 -7 -38 -22 -53s-32 -22 -53 -22s-38 7 -53 22s-22 32 -22 53s7 38 22 54c15 14 32 22 53 22s38 -8 53 -22c15 -16 22 -33 22 -54z" />
    <glyph glyph-name="quotesinglbase" unicode="&#x201a;" horiz-adv-x="160" 
d="M121 72l-44 -166h-37l10 166h71z" />
    <glyph glyph-name="quotedblbase" unicode="&#x201e;" horiz-adv-x="290" 
d="M251 72l-44 -166h-37l10 166h71zM121 72l-44 -166h-37l10 166h71z" />
    <glyph glyph-name="quotedblright" unicode="&#x201d;" horiz-adv-x="290" 
d="M253 700l-44 -166h-37l10 166h71zM123 700l-44 -166h-37l10 166h71z" />
    <glyph glyph-name="guillemotright" unicode="&#xbb;" horiz-adv-x="380" 
d="M367 263l-133 -263h-66l133 262l-133 263h66zM225 263l-133 -263h-66l133 262l-133 263h66z" />
    <glyph glyph-name="ellipsis" unicode="&#x2026;" horiz-adv-x="444" 
d="M414 33c0 -13 -4 -23 -12 -31c-7 -9 -18 -13 -31 -13s-23 4 -31 13c-8 8 -12 18 -12 31s4 24 12 33c8 8 18 12 31 12s24 -4 31 -12c8 -9 12 -20 12 -33zM266 33c0 -13 -4 -23 -12 -31c-7 -9 -18 -13 -31 -13s-23 4 -31 13c-8 8 -12 18 -12 31s4 24 12 33c8 8 18 12 31 12
s24 -4 31 -12c8 -9 12 -20 12 -33zM118 33c0 -13 -4 -23 -12 -31c-7 -9 -18 -13 -31 -13s-23 4 -31 13c-8 8 -12 18 -12 31s4 24 12 33c8 8 18 12 31 12s24 -4 31 -12c8 -9 12 -20 12 -33z" />
    <glyph glyph-name="perthousand" unicode="&#x2030;" horiz-adv-x="875" 
d="M241 494c0 -73 -9 -127 -27 -164c-19 -37 -44 -55 -77 -55c-68 0 -102 72 -102 217c0 73 9 127 27 164c19 37 44 55 77 55c68 0 102 -72 102 -217zM505 700l-327 -700h-60l327 700h60zM845 208c0 -73 -9 -127 -27 -164c-19 -37 -44 -55 -77 -55c-68 0 -102 72 -102 217
c0 73 9 127 27 164c19 37 44 55 77 55c68 0 102 -72 102 -217zM588 208c0 -73 -9 -127 -28 -164c-18 -37 -43 -55 -76 -55c-68 0 -102 72 -102 217c0 73 9 127 28 164c18 37 43 55 76 55c68 0 102 -72 102 -217zM183 492c0 109 -15 163 -46 163c-29 0 -44 -54 -44 -161
c0 -109 15 -163 46 -163c29 0 44 54 44 161zM787 206c0 109 -15 163 -46 163c-29 0 -44 -54 -44 -161c0 -109 15 -163 46 -163c29 0 44 54 44 161zM530 206c0 109 -15 163 -46 163c-29 0 -44 -54 -44 -161c0 -109 15 -163 46 -163c29 0 44 54 44 161z" />
    <glyph glyph-name="questiondown" unicode="&#xbf;" horiz-adv-x="305" 
d="M216 667c0 -13 -4 -24 -12 -33c-8 -8 -18 -12 -31 -12s-24 4 -31 12c-8 9 -12 20 -12 33s4 23 12 31c7 9 18 13 31 13s23 -4 31 -13c8 -8 12 -18 12 -31zM281 146c-10 -53 -25 -92 -45 -118c-19 -26 -49 -39 -90 -39c-39 0 -68 15 -86 45c-20 30 -29 70 -29 119
c0 66 22 127 65 183c17 23 30 48 36 78c8 28 11 68 11 119h60c0 -63 -4 -111 -12 -145c-8 -32 -25 -65 -51 -98c-29 -36 -43 -81 -43 -134c0 -70 18 -105 55 -105c18 0 32 8 40 23c10 16 19 46 28 90z" />
    <glyph glyph-name="grave" unicode="`" horiz-adv-x="330" 
d="M231 595h-47l-116 160h87z" />
    <glyph glyph-name="acute" unicode="&#xb4;" horiz-adv-x="330" 
d="M262 755l-116 -160h-47l76 160h87z" />
    <glyph glyph-name="circumflex" unicode="&#x2c6;" horiz-adv-x="330" 
d="M280 595h-55l-61 98l-61 -98h-53l88 160h54z" />
    <glyph glyph-name="tilde" unicode="&#x2dc;" horiz-adv-x="330" 
d="M290 709c0 -36 -7 -63 -20 -82s-30 -28 -50 -28c-18 0 -35 7 -52 22c-19 17 -31 27 -36 31s-12 6 -19 6c-15 0 -24 -19 -27 -57h-46c0 36 7 63 20 83c13 18 30 28 50 28c18 0 35 -7 52 -22c26 -25 44 -38 55 -38c14 0 23 19 27 57h46z" />
    <glyph glyph-name="macron" unicode="&#xaf;" horiz-adv-x="330" 
d="M280 618h-230v53h230v-53z" />
    <glyph glyph-name="breve" unicode="&#x2d8;" horiz-adv-x="330" 
d="M283 731c-1 -43 -13 -76 -33 -100c-22 -24 -50 -36 -86 -36c-34 0 -62 12 -83 37c-21 24 -33 57 -34 99h51c3 -59 25 -88 68 -88c41 0 63 29 67 88h50z" />
    <glyph glyph-name="dotaccent" unicode="&#x2d9;" horiz-adv-x="330" 
d="M213 651c0 -13 -5 -24 -15 -33c-9 -10 -20 -15 -33 -15s-24 5 -33 15c-10 9 -15 20 -15 33s5 24 15 33c9 10 20 15 33 15s24 -5 33 -15c10 -9 15 -20 15 -33z" />
    <glyph glyph-name="dieresis" unicode="&#xa8;" horiz-adv-x="330" 
d="M286 651c0 -13 -5 -24 -14 -33c-9 -10 -21 -15 -34 -15s-25 5 -34 15c-9 9 -14 20 -14 33s5 24 14 33c9 10 21 15 34 15s25 -5 34 -15c9 -9 14 -20 14 -33zM140 651c0 -13 -5 -24 -14 -33c-9 -10 -20 -15 -33 -15s-25 5 -35 14c-9 9 -14 21 -14 34s5 25 14 34
c10 9 22 14 35 14s24 -5 33 -15c9 -9 14 -20 14 -33z" />
    <glyph glyph-name="ring" unicode="&#x2da;" horiz-adv-x="330" 
d="M259 693c0 -26 -9 -48 -27 -67c-18 -18 -40 -27 -67 -27s-49 9 -67 27c-18 19 -27 41 -27 67s9 48 27 66s40 27 67 27s49 -9 67 -27s27 -40 27 -66zM215 693c0 15 -5 27 -14 37c-9 9 -21 14 -36 14s-27 -5 -36 -14c-9 -10 -14 -22 -14 -37s5 -28 14 -37
c9 -10 21 -15 36 -15s27 5 36 15c9 9 14 22 14 37z" />
    <glyph glyph-name="cedilla" unicode="&#xb8;" horiz-adv-x="330" 
d="M241 -113c0 -26 -8 -46 -25 -59c-16 -14 -36 -21 -59 -21c-25 0 -51 10 -78 29l16 28c21 -15 41 -22 60 -22c25 0 38 15 38 44c0 22 -9 33 -26 33c-10 0 -19 -4 -27 -11l-31 13l28 79h36l-19 -53c8 6 19 9 32 9c17 0 30 -6 40 -18s15 -29 15 -51z" />
    <glyph glyph-name="hungarumlaut" unicode="&#x2dd;" horiz-adv-x="330" 
d="M314 755l-116 -160h-42l76 160h82zM194 755l-116 -160h-42l76 160h82z" />
    <glyph glyph-name="ogonek" unicode="&#x2db;" horiz-adv-x="330" 
d="M254 -154c-29 -26 -59 -39 -88 -39c-21 0 -38 7 -50 21c-12 13 -18 31 -18 52c0 39 20 79 60 120h35c-28 -41 -42 -77 -42 -106s10 -43 31 -43c17 0 35 8 54 23z" />
    <glyph glyph-name="caron" unicode="&#x2c7;" horiz-adv-x="330" 
d="M280 755l-88 -160h-54l-88 160h55l61 -98l61 98h53z" />
    <glyph glyph-name="emdash" unicode="&#x2014;" horiz-adv-x="363" 
d="M330 335h-297v61h297v-61z" />
    <glyph glyph-name="AE" unicode="&#xc6;" horiz-adv-x="502" 
d="M473 0h-232v184h-113l-50 -184h-64l203 700h246v-62h-159v-233h111v-62h-111v-281h169v-62zM243 605c-15 -65 -27 -112 -36 -142l-62 -218h96v226c0 52 1 97 2 134z" />
    <glyph glyph-name="ordfeminine" unicode="&#xaa;" horiz-adv-x="290" 
d="M239 282h-55v16c-20 -17 -40 -25 -59 -25c-55 0 -83 47 -83 141c0 93 32 140 96 140c18 0 33 -4 46 -13v63c0 35 -13 53 -38 53c-15 0 -34 -13 -59 -38l-33 43c35 33 66 49 95 49c31 0 53 -7 68 -23c15 -14 22 -41 22 -80v-326zM184 349v140c-15 9 -30 13 -44 13
c-16 0 -27 -7 -32 -21c-6 -14 -9 -36 -9 -65c0 -61 12 -91 36 -91c15 0 32 8 49 24z" />
    <glyph glyph-name="Lslash" unicode="&#x141;" horiz-adv-x="302" 
d="M279 0h-212v262l-37 -34v82l37 33v357h62v-307l68 60v-82l-68 -59v-250h150v-62z" />
    <glyph glyph-name="Oslash" unicode="&#xd8;" horiz-adv-x="374" 
d="M342 750l-42 -132c21 -57 32 -146 32 -268c0 -121 -11 -212 -34 -272c-23 -59 -60 -89 -111 -89c-31 0 -57 11 -77 32l-6 -17l-12 -36l-5 -18h-55l42 132c-21 57 -32 146 -32 268c0 121 11 212 34 272c23 59 60 89 111 89c31 0 57 -11 77 -33l23 72h55zM240 602
c-14 33 -32 50 -54 50c-54 0 -81 -101 -81 -302c0 -61 2 -111 7 -149zM269 350c0 61 -2 111 -7 149l-128 -401c14 -33 32 -50 54 -50c54 0 81 101 81 302z" />
    <glyph glyph-name="OE" unicode="&#x152;" horiz-adv-x="529" 
d="M498 0h-223v62c-18 -49 -47 -73 -88 -73c-51 0 -88 30 -111 89c-23 60 -34 151 -34 272s11 212 34 272c23 59 60 89 111 89c41 0 70 -24 88 -73v62h213v-62h-159v-233h111v-62h-111v-281h169v-62zM266 350c0 199 -27 299 -80 299c-52 0 -78 -100 -78 -299
s27 -299 80 -299c52 0 78 100 78 299z" />
    <glyph glyph-name="ordmasculine" unicode="&#xba;" horiz-adv-x="312" 
d="M267 492c0 -145 -37 -218 -111 -218s-111 73 -111 218c0 71 9 126 29 163c18 37 46 56 82 56s64 -19 82 -56c20 -37 29 -92 29 -163zM207 492c0 109 -17 163 -52 163c-18 0 -31 -13 -39 -39c-7 -26 -11 -67 -11 -124c0 -109 17 -163 52 -163c18 0 31 13 39 39
c7 26 11 67 11 124z" />
    <glyph glyph-name="ae" unicode="&#xe6;" horiz-adv-x="498" 
d="M460 246h-189c2 -131 24 -196 66 -196c15 0 28 5 37 14s22 27 38 54l43 -34c-16 -31 -33 -54 -51 -70c-18 -17 -41 -25 -68 -25c-36 0 -65 18 -86 53c-32 -35 -67 -53 -106 -53s-67 14 -84 43s-26 72 -26 129c0 114 39 171 116 171c23 0 43 -6 61 -19v92
c0 47 -17 70 -51 70c-19 0 -44 -15 -74 -46l-37 47c40 40 78 60 115 60c25 0 45 -5 58 -16c14 -11 24 -27 31 -49c22 43 50 65 85 65c40 0 70 -24 91 -71s31 -116 31 -205v-14zM398 305c-1 51 -7 93 -18 123c-10 32 -25 47 -44 47c-18 0 -33 -14 -44 -43s-18 -71 -20 -127
h126zM228 95c-12 45 -18 98 -18 161c-17 11 -37 17 -58 17s-35 -9 -43 -27s-12 -46 -12 -83c0 -40 5 -69 13 -87c10 -19 25 -28 46 -28c25 0 49 16 72 47z" />
    <glyph glyph-name="dotlessi" unicode="&#x131;" horiz-adv-x="176" 
d="M119 0h-62v525h62v-525z" />
    <glyph glyph-name="lslash" unicode="&#x142;" horiz-adv-x="216" 
d="M187 374l-49 -47v-327h-60v275l-49 -47v83l49 47v333l60 38v-319l49 47v-83z" />
    <glyph glyph-name="oslash" unicode="&#xf8;" horiz-adv-x="344" 
d="M307 262c0 -182 -45 -273 -135 -273c-23 0 -44 6 -61 19l-20 -58h-54l36 104c-24 46 -36 115 -36 208c0 183 45 274 135 274c23 0 44 -6 61 -19l20 58h54l-36 -105c24 -46 36 -115 36 -208zM212 456c-11 15 -24 22 -41 22c-49 0 -74 -72 -74 -216c0 -44 3 -83 8 -116z
M247 262c0 45 -3 84 -8 117l-107 -310c11 -15 24 -22 41 -22c49 0 74 72 74 215z" />
    <glyph glyph-name="oe" unicode="&#x153;" horiz-adv-x="530" 
d="M492 241h-189c2 -127 24 -191 66 -191c15 0 28 5 37 14s22 27 38 54l43 -34c-16 -31 -33 -54 -51 -70c-18 -17 -41 -25 -68 -25c-45 0 -77 29 -98 88c-21 -59 -53 -88 -98 -88c-90 0 -135 91 -135 273c0 183 45 274 135 274c47 0 81 -29 102 -88c21 59 53 88 96 88
c81 0 122 -94 122 -281v-14zM430 300c-3 117 -24 175 -62 175c-39 0 -60 -58 -64 -175h126zM244 262c0 142 -24 213 -73 213c-47 0 -71 -71 -71 -213c0 -141 24 -212 73 -212c47 0 71 71 71 212z" />
    <glyph glyph-name="germandbls" unicode="&#xdf;" horiz-adv-x="360" 
d="M323 226c0 -80 -12 -138 -35 -173s-63 -53 -119 -53h-10v59h13c35 0 59 12 70 37c12 25 18 66 18 123c0 53 -7 91 -20 113c-14 24 -36 35 -66 35h-15v61h13c21 0 36 9 45 27s14 49 14 93c0 78 -20 117 -61 117c-21 0 -35 -9 -44 -27c-8 -19 -12 -48 -12 -89v-704l-62 -38
v739c0 120 40 180 120 180c81 0 122 -59 122 -177c0 -43 -4 -76 -14 -99c-8 -22 -23 -38 -42 -47c29 -9 50 -27 64 -54s21 -68 21 -123z" />
    <glyph glyph-name="NUL" horiz-adv-x="0" 
 />
    <glyph glyph-name="Eth" unicode="&#xd0;" horiz-adv-x="376" 
d="M335 355c0 -121 -14 -210 -41 -268c-28 -58 -72 -87 -131 -87h-96v336h-42v60h42v304h105c61 0 103 -29 127 -86s36 -144 36 -259zM270 352c0 191 -33 287 -99 287h-42v-243h66v-60h-66v-275h39c68 0 102 97 102 291z" />
    <glyph glyph-name="eth" unicode="&#xf0;" horiz-adv-x="344" 
d="M307 298c0 -111 -11 -190 -33 -238c-22 -47 -56 -71 -102 -71c-43 0 -77 23 -100 67c-23 46 -35 105 -35 180c0 74 11 134 35 180c23 45 54 68 95 68c38 0 66 -23 85 -69c-9 71 -28 127 -57 167l-44 -49l-41 36l47 52c-18 13 -37 23 -58 29v61c37 -9 70 -25 97 -46l41 46
l41 -36l-45 -50c49 -67 74 -176 74 -327zM244 236c0 125 -24 187 -73 187c-47 0 -71 -62 -71 -187c0 -124 24 -186 73 -186c47 0 71 62 71 186z" />
    <glyph glyph-name="Scaron" unicode="&#x160;" horiz-adv-x="334" 
d="M294 143c0 -46 -12 -83 -35 -111c-23 -29 -55 -43 -95 -43c-74 0 -118 55 -133 165l65 15c7 -44 16 -75 28 -92c10 -17 24 -26 41 -26c20 0 36 7 47 23c11 14 17 35 17 60c0 69 -32 139 -95 209c-37 41 -63 78 -76 110s-20 70 -20 114c0 41 11 76 32 103
c22 27 52 41 89 41c38 0 67 -11 86 -35c19 -22 35 -57 46 -103l-65 -19c-9 36 -19 61 -29 74c-10 14 -23 21 -40 21s-30 -8 -39 -23c-10 -15 -15 -33 -15 -53c0 -30 5 -58 17 -83c10 -25 32 -56 63 -91c74 -82 111 -167 111 -256zM275 914l-88 -160h-54l-88 160h55l61 -98
l61 98h53z" />
    <glyph glyph-name="scaron" unicode="&#x161;" horiz-adv-x="293" 
d="M263 118c0 -37 -11 -67 -33 -92s-50 -37 -85 -37c-57 0 -95 36 -116 108l53 31c9 -27 18 -47 28 -60s22 -19 36 -19c18 0 32 6 42 18c9 12 14 27 14 45c0 25 -4 46 -14 64c-8 17 -29 39 -60 66c-33 29 -57 55 -72 80c-15 24 -22 53 -22 87c0 36 10 66 31 91
c21 24 47 36 80 36c53 0 90 -32 111 -95l-56 -31c-15 44 -35 66 -58 66c-15 0 -26 -6 -34 -16c-9 -12 -13 -26 -13 -45c0 -21 5 -39 15 -55c9 -17 29 -38 58 -63c33 -29 58 -57 72 -84c16 -27 23 -59 23 -95zM258 755l-88 -160h-54l-88 160h55l61 -98l61 98h53z" />
    <glyph glyph-name="Yacute" unicode="&#xdd;" horiz-adv-x="334" 
d="M317 700l-118 -397v-303h-64v301l-118 399h67l47 -175c19 -72 32 -124 37 -156c7 38 19 90 37 156l47 175h65zM310 886l-116 -160h-47l76 160h87z" />
    <glyph glyph-name="yacute" unicode="&#xfd;" horiz-adv-x="311" 
d="M289 525l-139 -710h-62l40 168l-106 542h66l49 -306c10 -63 16 -109 19 -137c3 28 9 74 19 137l49 306h65zM297 745l-116 -160h-47l76 160h87z" />
    <glyph glyph-name="Thorn" unicode="&#xde;" horiz-adv-x="342" 
d="M313 366c0 -65 -15 -114 -47 -148c-30 -32 -69 -49 -114 -49h-31v-169h-64v700h64v-149h36c47 0 84 -15 113 -47c29 -30 43 -77 43 -138zM248 362c0 41 -8 73 -24 94c-17 22 -40 33 -69 33h-34v-258h34c29 0 52 11 69 34c16 23 24 55 24 97z" />
    <glyph glyph-name="thorn" unicode="&#xfe;" horiz-adv-x="339" 
d="M302 264c0 -91 -9 -160 -27 -206s-48 -69 -90 -69c-23 0 -47 11 -71 34v-178l-62 -38v884l62 38v-231c23 25 48 38 75 38c42 0 71 -23 88 -69s25 -114 25 -203zM239 262c0 76 -5 131 -14 164c-9 34 -25 51 -48 51c-20 0 -41 -10 -63 -31v-366c23 -21 46 -32 67 -32
c39 0 58 71 58 214z" />
    <glyph glyph-name="Zcaron" unicode="&#x17d;" horiz-adv-x="305" 
d="M268 0h-236v57l171 582h-156v61h221v-57l-170 -582h170v-61zM276 905l-88 -160h-54l-88 160h55l61 -98l61 98h53z" />
    <glyph glyph-name="zcaron" unicode="&#x17e;" horiz-adv-x="285" 
d="M249 0h-223v49l159 420h-145v56h209v-49l-159 -420h159v-56zM261 755l-88 -160h-54l-88 160h55l61 -98l61 98h53z" />
    <glyph glyph-name="onehalf" unicode="&#xbd;" 
d="M480 345l-133 -97c-3 -2 -5 -3 -7 -2c-3 1 -3 4 -1 8l24 64h-91v-216l64 24c4 2 7 2 8 -1c1 -2 0 -4 -2 -7l-97 -133l-97 133c-2 3 -3 5 -2 7c1 3 4 3 8 1l64 -24v216h-91l24 -64c2 -4 2 -7 -1 -8c-2 -1 -4 0 -7 2l-133 97l133 97c3 2 5 3 7 2c3 -1 3 -4 1 -8l-24 -64h91
v226l-64 -24c-4 -2 -7 -2 -8 1c-1 2 0 4 2 7l97 133l97 -133c2 -3 3 -5 2 -7c-1 -3 -4 -3 -8 -1l-64 24v-226h91l-24 64c-2 4 -2 7 1 8c2 1 4 0 7 -2z" />
    <glyph glyph-name="onequarter" unicode="&#xbc;" 
d="M480 345l-133 -97c-3 -2 -5 -3 -7 -2c-3 1 -3 4 -1 8l24 64h-91v-216l64 24c4 2 7 2 8 -1c1 -2 0 -4 -2 -7l-97 -133l-97 133c-2 3 -3 5 -2 7c1 3 4 3 8 1l64 -24v216h-91l24 -64c2 -4 2 -7 -1 -8c-2 -1 -4 0 -7 2l-133 97l133 97c3 2 5 3 7 2c3 -1 3 -4 1 -8l-24 -64h91
v226l-64 -24c-4 -2 -7 -2 -8 1c-1 2 0 4 2 7l97 133l97 -133c2 -3 3 -5 2 -7c-1 -3 -4 -3 -8 -1l-64 24v-226h91l-24 64c-2 4 -2 7 1 8c2 1 4 0 7 -2z" />
    <glyph glyph-name="onesuperior" unicode="&#xb9;" 
d="M480 345l-133 -97c-3 -2 -5 -3 -7 -2c-3 1 -3 4 -1 8l24 64h-91v-216l64 24c4 2 7 2 8 -1c1 -2 0 -4 -2 -7l-97 -133l-97 133c-2 3 -3 5 -2 7c1 3 4 3 8 1l64 -24v216h-91l24 -64c2 -4 2 -7 -1 -8c-2 -1 -4 0 -7 2l-133 97l133 97c3 2 5 3 7 2c3 -1 3 -4 1 -8l-24 -64h91
v226l-64 -24c-4 -2 -7 -2 -8 1c-1 2 0 4 2 7l97 133l97 -133c2 -3 3 -5 2 -7c-1 -3 -4 -3 -8 -1l-64 24v-226h91l-24 64c-2 4 -2 7 1 8c2 1 4 0 7 -2z" />
    <glyph glyph-name="threequarters" unicode="&#xbe;" 
d="M480 345l-133 -97c-3 -2 -5 -3 -7 -2c-3 1 -3 4 -1 8l24 64h-91v-216l64 24c4 2 7 2 8 -1c1 -2 0 -4 -2 -7l-97 -133l-97 133c-2 3 -3 5 -2 7c1 3 4 3 8 1l64 -24v216h-91l24 -64c2 -4 2 -7 -1 -8c-2 -1 -4 0 -7 2l-133 97l133 97c3 2 5 3 7 2c3 -1 3 -4 1 -8l-24 -64h91
v226l-64 -24c-4 -2 -7 -2 -8 1c-1 2 0 4 2 7l97 133l97 -133c2 -3 3 -5 2 -7c-1 -3 -4 -3 -8 -1l-64 24v-226h91l-24 64c-2 4 -2 7 1 8c2 1 4 0 7 -2z" />
    <glyph glyph-name="threesuperior" unicode="&#xb3;" 
d="M480 345l-133 -97c-3 -2 -5 -3 -7 -2c-3 1 -3 4 -1 8l24 64h-91v-216l64 24c4 2 7 2 8 -1c1 -2 0 -4 -2 -7l-97 -133l-97 133c-2 3 -3 5 -2 7c1 3 4 3 8 1l64 -24v216h-91l24 -64c2 -4 2 -7 -1 -8c-2 -1 -4 0 -7 2l-133 97l133 97c3 2 5 3 7 2c3 -1 3 -4 1 -8l-24 -64h91
v226l-64 -24c-4 -2 -7 -2 -8 1c-1 2 0 4 2 7l97 133l97 -133c2 -3 3 -5 2 -7c-1 -3 -4 -3 -8 -1l-64 24v-226h91l-24 64c-2 4 -2 7 1 8c2 1 4 0 7 -2z" />
    <glyph glyph-name="twosuperior" unicode="&#xb2;" 
d="M480 345l-133 -97c-3 -2 -5 -3 -7 -2c-3 1 -3 4 -1 8l24 64h-91v-216l64 24c4 2 7 2 8 -1c1 -2 0 -4 -2 -7l-97 -133l-97 133c-2 3 -3 5 -2 7c1 3 4 3 8 1l64 -24v216h-91l24 -64c2 -4 2 -7 -1 -8c-2 -1 -4 0 -7 2l-133 97l133 97c3 2 5 3 7 2c3 -1 3 -4 1 -8l-24 -64h91
v226l-64 -24c-4 -2 -7 -2 -8 1c-1 2 0 4 2 7l97 133l97 -133c2 -3 3 -5 2 -7c-1 -3 -4 -3 -8 -1l-64 24v-226h91l-24 64c-2 4 -2 7 1 8c2 1 4 0 7 -2z" />
    <glyph glyph-name="brokenbar" unicode="&#xa6;" 
d="M480 345l-133 -97c-3 -2 -5 -3 -7 -2c-3 1 -3 4 -1 8l24 64h-91v-216l64 24c4 2 7 2 8 -1c1 -2 0 -4 -2 -7l-97 -133l-97 133c-2 3 -3 5 -2 7c1 3 4 3 8 1l64 -24v216h-91l24 -64c2 -4 2 -7 -1 -8c-2 -1 -4 0 -7 2l-133 97l133 97c3 2 5 3 7 2c3 -1 3 -4 1 -8l-24 -64h91
v226l-64 -24c-4 -2 -7 -2 -8 1c-1 2 0 4 2 7l97 133l97 -133c2 -3 3 -5 2 -7c-1 -3 -4 -3 -8 -1l-64 24v-226h91l-24 64c-2 4 -2 7 1 8c2 1 4 0 7 -2z" />
    <glyph glyph-name="minus" unicode="&#x2212;" 
d="M480 345l-133 -97c-3 -2 -5 -3 -7 -2c-3 1 -3 4 -1 8l24 64h-91v-216l64 24c4 2 7 2 8 -1c1 -2 0 -4 -2 -7l-97 -133l-97 133c-2 3 -3 5 -2 7c1 3 4 3 8 1l64 -24v216h-91l24 -64c2 -4 2 -7 -1 -8c-2 -1 -4 0 -7 2l-133 97l133 97c3 2 5 3 7 2c3 -1 3 -4 1 -8l-24 -64h91
v226l-64 -24c-4 -2 -7 -2 -8 1c-1 2 0 4 2 7l97 133l97 -133c2 -3 3 -5 2 -7c-1 -3 -4 -3 -8 -1l-64 24v-226h91l-24 64c-2 4 -2 7 1 8c2 1 4 0 7 -2z" />
    <glyph glyph-name="multiply" unicode="&#xd7;" 
d="M480 345l-133 -97c-3 -2 -5 -3 -7 -2c-3 1 -3 4 -1 8l24 64h-91v-216l64 24c4 2 7 2 8 -1c1 -2 0 -4 -2 -7l-97 -133l-97 133c-2 3 -3 5 -2 7c1 3 4 3 8 1l64 -24v216h-91l24 -64c2 -4 2 -7 -1 -8c-2 -1 -4 0 -7 2l-133 97l133 97c3 2 5 3 7 2c3 -1 3 -4 1 -8l-24 -64h91
v226l-64 -24c-4 -2 -7 -2 -8 1c-1 2 0 4 2 7l97 133l97 -133c2 -3 3 -5 2 -7c-1 -3 -4 -3 -8 -1l-64 24v-226h91l-24 64c-2 4 -2 7 1 8c2 1 4 0 7 -2z" />
    <glyph glyph-name="Adieresis" unicode="&#xc4;" horiz-adv-x="362" 
d="M333 0h-69l-28 184h-112l-28 -184h-67l117 700h70zM227 245l-21 142c-13 97 -22 166 -26 208c-4 -42 -13 -111 -26 -208l-21 -142h94zM303 786c0 -13 -5 -25 -15 -34c-9 -9 -20 -14 -33 -14s-24 5 -33 14c-10 9 -15 21 -15 34s5 25 15 34c9 9 20 14 33 14s24 -5 33 -14
c10 -9 15 -21 15 -34zM157 786c0 -13 -5 -24 -14 -34c-9 -9 -20 -14 -33 -14s-25 5 -34 14c-10 9 -15 21 -15 34s5 25 15 34c9 9 21 14 34 14s24 -5 33 -14c9 -10 14 -21 14 -34z" />
    <glyph glyph-name="Aring" unicode="&#xc5;" horiz-adv-x="362" 
d="M333 0h-69l-28 184h-112l-28 -184h-67l110 658c-35 18 -52 46 -52 85c0 26 9 48 27 66s40 27 67 27s49 -9 67 -27s27 -40 27 -66c0 -39 -17 -67 -52 -85zM231 743c0 15 -5 27 -14 37c-9 9 -21 14 -36 14s-27 -5 -36 -14c-9 -10 -14 -22 -14 -37s5 -28 14 -37
c9 -10 21 -15 36 -15s27 5 36 15c9 9 14 22 14 37zM227 245l-21 142c-13 97 -22 166 -26 208c-4 -42 -13 -111 -26 -208l-21 -142h94z" />
    <glyph glyph-name="Ccedilla" unicode="&#xc7;" horiz-adv-x="346" 
d="M316 156c-9 -52 -24 -92 -43 -120c-19 -29 -47 -44 -83 -47l-15 -42c8 6 19 9 32 9c17 0 30 -6 40 -18s15 -29 15 -51c0 -26 -8 -46 -24 -59c-17 -14 -37 -21 -60 -21c-25 0 -51 10 -78 29l16 28c21 -15 41 -22 60 -22c25 0 38 15 38 44c0 22 -9 33 -26 33
c-10 0 -19 -4 -27 -11l-31 13l25 71c-41 9 -70 42 -87 101s-26 144 -26 257c0 120 11 210 32 270c22 61 58 91 107 91c38 0 67 -15 87 -43c21 -30 36 -73 46 -130l-63 -17c-10 49 -20 83 -31 101c-10 18 -23 27 -40 27c-48 0 -72 -100 -72 -299c0 -105 6 -182 18 -228
c12 -48 31 -71 58 -71c18 0 32 9 42 27c11 19 20 51 29 96z" />
    <glyph glyph-name="Eacute" unicode="&#xc9;" horiz-adv-x="319" 
d="M290 0h-233v700h223v-62h-159v-233h111v-62h-111v-281h169v-62zM301 905l-116 -160h-47l76 160h87z" />
    <glyph glyph-name="Ntilde" unicode="&#xd1;" horiz-adv-x="392" 
d="M335 0h-51l-107 326c-32 97 -53 169 -62 215c1 -57 2 -118 2 -182v-359h-60v700h63l95 -292c32 -97 53 -169 62 -215c-1 57 -2 118 -2 182v325h60v-700zM325 863c0 -36 -7 -63 -20 -82s-30 -28 -50 -28c-18 0 -35 7 -52 22c-19 17 -31 27 -36 31s-12 6 -19 6
c-15 0 -24 -19 -27 -57h-46c0 36 7 63 20 83c13 18 30 28 50 28c18 0 35 -7 52 -22c26 -25 44 -38 55 -38c14 0 23 19 27 57h46z" />
    <glyph glyph-name="Odieresis" unicode="&#xd6;" horiz-adv-x="374" 
d="M332 350c0 -121 -11 -212 -34 -272c-23 -59 -60 -89 -111 -89s-88 30 -111 89c-23 60 -34 151 -34 272s11 212 34 272c23 59 60 89 111 89s88 -30 111 -89c23 -60 34 -151 34 -272zM266 350c0 199 -27 299 -80 299c-52 0 -78 -100 -78 -299s27 -299 80 -299
c52 0 78 100 78 299zM309 796c0 -13 -5 -25 -15 -34c-9 -9 -20 -14 -33 -14s-24 5 -33 14c-10 9 -15 21 -15 34s5 25 15 34c9 9 20 14 33 14s24 -5 33 -14c10 -9 15 -21 15 -34zM163 796c0 -13 -5 -24 -14 -34c-9 -9 -20 -14 -33 -14s-25 5 -34 14c-10 9 -15 21 -15 34
s5 25 15 34c9 9 21 14 34 14s24 -5 33 -14c9 -10 14 -21 14 -34z" />
    <glyph glyph-name="Udieresis" unicode="&#xdc;" horiz-adv-x="390" 
d="M334 163c0 -53 -13 -96 -38 -127c-26 -31 -60 -47 -102 -47s-76 16 -100 47c-26 31 -38 74 -38 127v537h64v-535c0 -35 7 -63 20 -83c13 -21 32 -31 55 -31s42 10 55 31c13 20 20 48 20 83v535h64v-537zM317 801c0 -13 -5 -24 -15 -33c-9 -10 -20 -15 -33 -15
s-24 5 -33 15c-10 9 -15 20 -15 33s5 24 15 33c9 10 20 15 33 15s24 -5 33 -15c10 -9 15 -20 15 -33zM171 801c0 -13 -5 -24 -14 -33c-9 -10 -20 -15 -33 -15s-25 5 -34 14c-10 9 -15 21 -15 34s5 25 15 34c9 9 21 14 34 14s24 -5 33 -15c9 -9 14 -20 14 -33z" />
    <glyph glyph-name="aacute" unicode="&#xe1;" horiz-adv-x="322" 
d="M273 0h-62v25c-25 -24 -51 -36 -77 -36c-67 0 -100 58 -100 175c0 116 39 174 116 174c23 0 43 -6 61 -19v86c0 47 -17 70 -51 70c-19 0 -44 -15 -74 -46l-37 47c40 40 78 60 115 60s64 -9 82 -28c18 -18 27 -51 27 -98v-410zM211 80v181c-19 12 -39 18 -59 18
c-21 0 -35 -9 -43 -28s-12 -47 -12 -85c0 -79 16 -118 49 -118c23 0 45 11 65 32zM285 755l-116 -160h-47l76 160h87z" />
    <glyph glyph-name="agrave" unicode="&#xe0;" horiz-adv-x="322" 
d="M273 0h-62v25c-25 -24 -51 -36 -77 -36c-67 0 -100 58 -100 175c0 116 39 174 116 174c23 0 43 -6 61 -19v86c0 47 -17 70 -51 70c-19 0 -44 -15 -74 -46l-37 47c40 40 78 60 115 60s64 -9 82 -28c18 -18 27 -51 27 -98v-410zM211 80v181c-19 12 -39 18 -59 18
c-21 0 -35 -9 -43 -28s-12 -47 -12 -85c0 -79 16 -118 49 -118c23 0 45 11 65 32zM204 595h-47l-116 160h87z" />
    <glyph glyph-name="acircumflex" unicode="&#xe2;" horiz-adv-x="322" 
d="M273 0h-62v25c-25 -24 -51 -36 -77 -36c-67 0 -100 58 -100 175c0 116 39 174 116 174c23 0 43 -6 61 -19v86c0 47 -17 70 -51 70c-19 0 -44 -15 -74 -46l-37 47c40 40 78 60 115 60s64 -9 82 -28c18 -18 27 -51 27 -98v-410zM211 80v181c-19 12 -39 18 -59 18
c-21 0 -35 -9 -43 -28s-12 -47 -12 -85c0 -79 16 -118 49 -118c23 0 45 11 65 32zM278 590h-55l-61 98l-61 -98h-53l88 160h54z" />
    <glyph glyph-name="adieresis" unicode="&#xe4;" horiz-adv-x="322" 
d="M273 0h-62v25c-25 -24 -51 -36 -77 -36c-67 0 -100 58 -100 175c0 116 39 174 116 174c23 0 43 -6 61 -19v86c0 47 -17 70 -51 70c-19 0 -44 -15 -74 -46l-37 47c40 40 78 60 115 60s64 -9 82 -28c18 -18 27 -51 27 -98v-410zM211 80v181c-19 12 -39 18 -59 18
c-21 0 -35 -9 -43 -28s-12 -47 -12 -85c0 -79 16 -118 49 -118c23 0 45 11 65 32zM283 646c0 -13 -5 -25 -15 -34c-9 -9 -20 -14 -33 -14s-24 5 -33 14c-10 9 -15 21 -15 34s5 25 15 34c9 9 20 14 33 14s24 -5 33 -14c10 -9 15 -21 15 -34zM137 646c0 -13 -5 -24 -14 -34
c-9 -9 -20 -14 -33 -14s-25 5 -34 14c-10 9 -15 21 -15 34s5 25 15 34c9 9 21 14 34 14s24 -5 33 -14c9 -10 14 -21 14 -34z" />
    <glyph glyph-name="atilde" unicode="&#xe3;" horiz-adv-x="322" 
d="M273 0h-62v25c-25 -24 -51 -36 -77 -36c-67 0 -100 58 -100 175c0 116 39 174 116 174c23 0 43 -6 61 -19v86c0 47 -17 70 -51 70c-19 0 -44 -15 -74 -46l-37 47c40 40 78 60 115 60s64 -9 82 -28c18 -18 27 -51 27 -98v-410zM211 80v181c-19 12 -39 18 -59 18
c-21 0 -35 -9 -43 -28s-12 -47 -12 -85c0 -79 16 -118 49 -118c23 0 45 11 65 32zM288 709c0 -36 -7 -63 -20 -82s-30 -28 -50 -28c-18 0 -35 7 -52 22c-19 17 -31 27 -36 31s-12 6 -19 6c-15 0 -24 -19 -27 -57h-46c0 36 7 63 20 83c13 18 30 28 50 28c18 0 35 -7 52 -22
c26 -25 44 -38 55 -38c14 0 23 19 27 57h46z" />
    <glyph glyph-name="aring" unicode="&#xe5;" horiz-adv-x="322" 
d="M273 0h-62v25c-25 -24 -51 -36 -77 -36c-67 0 -100 58 -100 175c0 116 39 174 116 174c23 0 43 -6 61 -19v86c0 47 -17 70 -51 70c-19 0 -44 -15 -74 -46l-37 47c40 40 78 60 115 60s64 -9 82 -28c18 -18 27 -51 27 -98v-410zM211 80v181c-19 12 -39 18 -59 18
c-21 0 -35 -9 -43 -28s-12 -47 -12 -85c0 -79 16 -118 49 -118c23 0 45 11 65 32zM258 693c0 -26 -9 -48 -27 -67c-18 -18 -40 -27 -67 -27s-49 9 -67 27c-18 19 -27 41 -27 67s9 48 27 66s40 27 67 27s49 -9 67 -27s27 -40 27 -66zM214 693c0 15 -5 27 -14 37
c-9 9 -21 14 -36 14s-27 -5 -36 -14c-9 -10 -14 -22 -14 -37s5 -28 14 -37c9 -10 21 -15 36 -15s27 5 36 15c9 9 14 22 14 37z" />
    <glyph glyph-name="ccedilla" unicode="&#xe7;" horiz-adv-x="305" 
d="M277 100c-25 -71 -60 -108 -105 -111l-15 -42c8 6 19 9 32 9c17 0 30 -6 40 -18s15 -29 15 -51c0 -26 -8 -46 -24 -59c-17 -14 -37 -21 -60 -21c-25 0 -51 10 -78 29l16 28c21 -15 41 -22 60 -22c25 0 38 15 38 44c0 22 -9 33 -26 33c-10 0 -19 -4 -27 -11l-31 13
c1 3 3 7 4 12c2 5 5 12 8 23c4 11 7 19 10 26l3 11c-67 20 -100 109 -100 266c0 90 11 159 33 206c23 47 55 71 96 71c29 0 52 -10 70 -31c16 -21 30 -49 39 -86l-55 -28c-6 21 -11 36 -14 45s-9 18 -16 26c-7 9 -16 13 -26 13c-43 0 -64 -72 -64 -215
c0 -140 22 -210 67 -210c12 0 22 6 30 17s18 32 30 63z" />
    <glyph glyph-name="eacute" unicode="&#xe9;" horiz-adv-x="325" 
d="M287 241h-189c2 -127 24 -191 66 -191c15 0 28 5 37 14s22 27 38 54l43 -34c-16 -31 -33 -54 -51 -70c-18 -17 -41 -25 -68 -25c-84 0 -126 90 -126 270c0 90 11 159 33 206s54 71 95 71c81 0 122 -94 122 -281v-14zM225 300c-3 117 -24 175 -62 175
c-39 0 -60 -58 -64 -175h126zM300 755l-116 -160h-47l76 160h87z" />
    <glyph glyph-name="egrave" unicode="&#xe8;" horiz-adv-x="325" 
d="M287 241h-189c2 -127 24 -191 66 -191c15 0 28 5 37 14s22 27 38 54l43 -34c-16 -31 -33 -54 -51 -70c-18 -17 -41 -25 -68 -25c-84 0 -126 90 -126 270c0 90 11 159 33 206s54 71 95 71c81 0 122 -94 122 -281v-14zM225 300c-3 117 -24 175 -62 175
c-39 0 -60 -58 -64 -175h126zM199 595h-47l-116 160h87z" />
    <glyph glyph-name="ecircumflex" unicode="&#xea;" horiz-adv-x="325" 
d="M287 241h-189c2 -127 24 -191 66 -191c15 0 28 5 37 14s22 27 38 54l43 -34c-16 -31 -33 -54 -51 -70c-18 -17 -41 -25 -68 -25c-84 0 -126 90 -126 270c0 90 11 159 33 206s54 71 95 71c81 0 122 -94 122 -281v-14zM225 300c-3 117 -24 175 -62 175
c-39 0 -60 -58 -64 -175h126zM279 585h-55l-61 98l-61 -98h-53l88 160h54z" />
    <glyph glyph-name="edieresis" unicode="&#xeb;" horiz-adv-x="325" 
d="M287 241h-189c2 -127 24 -191 66 -191c15 0 28 5 37 14s22 27 38 54l43 -34c-16 -31 -33 -54 -51 -70c-18 -17 -41 -25 -68 -25c-84 0 -126 90 -126 270c0 90 11 159 33 206s54 71 95 71c81 0 122 -94 122 -281v-14zM225 300c-3 117 -24 175 -62 175
c-39 0 -60 -58 -64 -175h126zM287 646c0 -13 -5 -25 -15 -34c-9 -9 -20 -14 -33 -14s-24 5 -33 14c-10 9 -15 21 -15 34s5 25 15 34c9 9 20 14 33 14s24 -5 33 -14c10 -9 15 -21 15 -34zM141 646c0 -13 -5 -24 -14 -34c-9 -9 -20 -14 -33 -14s-25 5 -34 14
c-10 9 -15 21 -15 34s5 25 15 34c9 9 21 14 34 14s24 -5 33 -14c9 -10 14 -21 14 -34z" />
    <glyph glyph-name="iacute" unicode="&#xed;" horiz-adv-x="176" 
d="M119 0h-62v525h62v-525zM226 755l-116 -160h-47l76 160h87z" />
    <glyph glyph-name="igrave" unicode="&#xec;" horiz-adv-x="176" 
d="M119 0h-62v525h62v-525zM113 595h-47l-116 160h87z" />
    <glyph glyph-name="icircumflex" unicode="&#xee;" horiz-adv-x="176" 
d="M119 0h-62v525h62v-525zM205 580h-55l-61 98l-61 -98h-53l88 160h54z" />
    <glyph glyph-name="idieresis" unicode="&#xef;" horiz-adv-x="176" 
d="M119 0h-62v525h62v-525zM211 641c0 -13 -5 -24 -15 -33c-9 -10 -20 -15 -33 -15s-24 5 -33 15c-10 9 -15 20 -15 33s5 24 15 33c9 10 20 15 33 15s24 -5 33 -15c10 -9 15 -20 15 -33zM65 641c0 -13 -5 -24 -14 -33c-9 -10 -20 -15 -33 -15s-25 5 -34 14
c-10 9 -15 21 -15 34s5 25 15 34c9 9 21 14 34 14s24 -5 33 -15c9 -9 14 -20 14 -33z" />
    <glyph glyph-name="ntilde" unicode="&#xf1;" horiz-adv-x="341" 
d="M292 0h-62v392c0 31 -4 53 -12 66s-21 19 -39 19c-21 0 -43 -10 -65 -31v-446h-62v525h62v-26c26 25 54 37 85 37c62 0 93 -47 93 -140v-396zM297 709c0 -36 -7 -63 -20 -82s-30 -28 -50 -28c-18 0 -35 7 -52 22c-19 17 -31 27 -36 31s-12 6 -19 6c-15 0 -24 -19 -27 -57
h-46c0 36 7 63 20 83c13 18 30 28 50 28c18 0 35 -7 52 -22c26 -25 44 -38 55 -38c14 0 23 19 27 57h46z" />
    <glyph glyph-name="oacute" unicode="&#xf3;" horiz-adv-x="344" 
d="M307 262c0 -182 -45 -273 -135 -273s-135 91 -135 273c0 183 45 274 135 274s135 -91 135 -274zM244 262c0 142 -24 213 -73 213c-47 0 -71 -71 -71 -213c0 -141 24 -212 73 -212c47 0 71 71 71 212zM308 755l-116 -160h-47l76 160h87z" />
    <glyph glyph-name="ograve" unicode="&#xf2;" horiz-adv-x="344" 
d="M307 262c0 -182 -45 -273 -135 -273s-135 91 -135 273c0 183 45 274 135 274s135 -91 135 -274zM244 262c0 142 -24 213 -73 213c-47 0 -71 -71 -71 -213c0 -141 24 -212 73 -212c47 0 71 71 71 212zM202 595h-47l-116 160h87z" />
    <glyph glyph-name="ocircumflex" unicode="&#xf4;" horiz-adv-x="344" 
d="M307 262c0 -182 -45 -273 -135 -273s-135 91 -135 273c0 183 45 274 135 274s135 -91 135 -274zM244 262c0 142 -24 213 -73 213c-47 0 -71 -71 -71 -213c0 -141 24 -212 73 -212c47 0 71 71 71 212zM287 585h-55l-61 98l-61 -98h-53l88 160h54z" />
    <glyph glyph-name="odieresis" unicode="&#xf6;" horiz-adv-x="344" 
d="M307 262c0 -182 -45 -273 -135 -273s-135 91 -135 273c0 183 45 274 135 274s135 -91 135 -274zM244 262c0 142 -24 213 -73 213c-47 0 -71 -71 -71 -213c0 -141 24 -212 73 -212c47 0 71 71 71 212zM293 641c0 -13 -5 -24 -15 -33c-9 -10 -20 -15 -33 -15s-24 5 -33 15
c-10 9 -15 20 -15 33s5 24 15 33c9 10 20 15 33 15s24 -5 33 -15c10 -9 15 -20 15 -33zM147 641c0 -13 -5 -24 -14 -33c-9 -10 -20 -15 -33 -15s-25 5 -34 14c-10 9 -15 21 -15 34s5 25 15 34c9 9 21 14 34 14s24 -5 33 -15c9 -9 14 -20 14 -33z" />
    <glyph glyph-name="otilde" unicode="&#xf5;" horiz-adv-x="344" 
d="M307 262c0 -182 -45 -273 -135 -273s-135 91 -135 273c0 183 45 274 135 274s135 -91 135 -274zM244 262c0 142 -24 213 -73 213c-47 0 -71 -71 -71 -213c0 -141 24 -212 73 -212c47 0 71 71 71 212zM297 709c0 -36 -7 -63 -20 -82s-30 -28 -50 -28c-18 0 -35 7 -52 22
c-19 17 -31 27 -36 31s-12 6 -19 6c-15 0 -24 -19 -27 -57h-46c0 36 7 63 20 83c13 18 30 28 50 28c18 0 35 -7 52 -22c26 -25 44 -38 55 -38c14 0 23 19 27 57h46z" />
    <glyph glyph-name="uacute" unicode="&#xfa;" horiz-adv-x="341" 
d="M289 0h-62v26c-26 -25 -54 -37 -85 -37c-62 0 -93 47 -93 140v396h62v-392c0 -31 4 -53 12 -66s21 -19 39 -19c21 0 43 10 65 31v446h62v-525zM309 755l-116 -160h-47l76 160h87z" />
    <glyph glyph-name="ugrave" unicode="&#xf9;" horiz-adv-x="341" 
d="M289 0h-62v26c-26 -25 -54 -37 -85 -37c-62 0 -93 47 -93 140v396h62v-392c0 -31 4 -53 12 -66s21 -19 39 -19c21 0 43 10 65 31v446h62v-525zM198 595h-47l-116 160h87z" />
    <glyph glyph-name="ucircumflex" unicode="&#xfb;" horiz-adv-x="341" 
d="M289 0h-62v26c-26 -25 -54 -37 -85 -37c-62 0 -93 47 -93 140v396h62v-392c0 -31 4 -53 12 -66s21 -19 39 -19c21 0 43 10 65 31v446h62v-525zM284 595h-55l-61 98l-61 -98h-53l88 160h54z" />
    <glyph glyph-name="udieresis" unicode="&#xfc;" horiz-adv-x="341" 
d="M289 0h-62v26c-26 -25 -54 -37 -85 -37c-62 0 -93 47 -93 140v396h62v-392c0 -31 4 -53 12 -66s21 -19 39 -19c21 0 43 10 65 31v446h62v-525zM291 651c0 -13 -5 -24 -15 -33c-9 -10 -20 -15 -33 -15s-24 5 -33 15c-10 9 -15 20 -15 33s5 24 15 33c9 10 20 15 33 15
s24 -5 33 -15c10 -9 15 -20 15 -33zM145 651c0 -13 -5 -24 -14 -33c-9 -10 -20 -15 -33 -15s-25 5 -34 14c-10 9 -15 21 -15 34s5 25 15 34c9 9 21 14 34 14s24 -5 33 -15c9 -9 14 -20 14 -33z" />
    <glyph glyph-name="degree" unicode="&#xb0;" horiz-adv-x="340" 
d="M310 568c0 -41 -13 -76 -40 -104c-26 -27 -59 -41 -100 -41c-40 0 -73 14 -100 41c-27 28 -40 63 -40 104c0 40 13 74 40 102c27 27 60 41 100 41c41 0 74 -14 100 -41c27 -27 40 -61 40 -102zM255 568c0 26 -8 48 -23 64c-16 18 -37 26 -62 26s-45 -8 -61 -26
c-16 -16 -24 -38 -24 -64c0 -27 8 -50 24 -67s36 -26 61 -26s46 9 62 26c15 17 23 40 23 67z" />
    <glyph glyph-name="registered" unicode="&#xae;" horiz-adv-x="483" 
d="M446 350c0 -110 -18 -198 -54 -263c-35 -65 -86 -98 -151 -98s-116 33 -151 98s-53 153 -53 263s18 198 53 263s86 98 151 98s116 -33 151 -98c36 -65 54 -153 54 -263zM400 350c0 98 -13 175 -40 232c-26 57 -66 85 -119 85s-93 -28 -119 -85s-39 -134 -39 -232
s13 -175 39 -232s66 -85 119 -85s93 28 119 85c27 57 40 134 40 232zM331 163h-48l-43 180c-5 -1 -12 -1 -23 -1v-179h-46v392h61c28 0 50 -9 68 -26c16 -17 25 -43 25 -77c0 -41 -13 -72 -40 -93zM278 451c0 41 -16 61 -47 61h-14v-129h14c15 0 26 6 35 18
c8 12 12 29 12 50z" />
    <glyph glyph-name="copyright" unicode="&#xa9;" horiz-adv-x="483" 
d="M446 350c0 -110 -18 -198 -54 -263c-35 -65 -86 -98 -151 -98s-116 33 -151 98s-53 153 -53 263s18 198 53 263s86 98 151 98s116 -33 151 -98c36 -65 54 -153 54 -263zM400 350c0 98 -13 175 -40 232c-26 57 -66 85 -119 85s-93 -28 -119 -85s-39 -134 -39 -232
s13 -175 39 -232s66 -85 119 -85s93 28 119 85c27 57 40 134 40 232zM320 249c-7 -33 -16 -58 -28 -75c-13 -17 -31 -25 -54 -25c-29 0 -50 17 -63 49c-13 34 -19 84 -19 153c0 135 28 202 83 202c23 0 40 -9 52 -25c12 -18 21 -43 28 -77l-45 -12c-5 27 -10 45 -16 53
c-4 9 -11 13 -20 13c-13 0 -22 -12 -28 -35c-4 -24 -7 -64 -7 -119c0 -56 3 -95 8 -119c5 -22 15 -34 29 -34c9 0 17 4 22 13s10 26 15 51z" />
    <glyph glyph-name="trademark" unicode="&#x2122;" horiz-adv-x="435" 
d="M168 661h-58v-355h-41v355h-57v39h156v-39zM404 306h-38v213v46c-2 -12 -5 -28 -9 -47l-51 -221l-51 221c-4 18 -7 33 -9 44v-43v-213h-38v394h43l43 -188l12 -72c1 6 2 13 3 20c1 8 3 17 5 27l5 25l41 188h44v-394z" />
    <glyph glyph-name="notequal" unicode="&#x2260;" 
d="M480 345l-133 -97c-3 -2 -5 -3 -7 -2c-3 1 -3 4 -1 8l24 64h-91v-216l64 24c4 2 7 2 8 -1c1 -2 0 -4 -2 -7l-97 -133l-97 133c-2 3 -3 5 -2 7c1 3 4 3 8 1l64 -24v216h-91l24 -64c2 -4 2 -7 -1 -8c-2 -1 -4 0 -7 2l-133 97l133 97c3 2 5 3 7 2c3 -1 3 -4 1 -8l-24 -64h91
v226l-64 -24c-4 -2 -7 -2 -8 1c-1 2 0 4 2 7l97 133l97 -133c2 -3 3 -5 2 -7c-1 -3 -4 -3 -8 -1l-64 24v-226h91l-24 64c-2 4 -2 7 1 8c2 1 4 0 7 -2z" />
    <glyph glyph-name="infinity" unicode="&#x221e;" 
d="M480 345l-133 -97c-3 -2 -5 -3 -7 -2c-3 1 -3 4 -1 8l24 64h-91v-216l64 24c4 2 7 2 8 -1c1 -2 0 -4 -2 -7l-97 -133l-97 133c-2 3 -3 5 -2 7c1 3 4 3 8 1l64 -24v216h-91l24 -64c2 -4 2 -7 -1 -8c-2 -1 -4 0 -7 2l-133 97l133 97c3 2 5 3 7 2c3 -1 3 -4 1 -8l-24 -64h91
v226l-64 -24c-4 -2 -7 -2 -8 1c-1 2 0 4 2 7l97 133l97 -133c2 -3 3 -5 2 -7c-1 -3 -4 -3 -8 -1l-64 24v-226h91l-24 64c-2 4 -2 7 1 8c2 1 4 0 7 -2z" />
    <glyph glyph-name="plusminus" unicode="&#xb1;" 
d="M480 345l-133 -97c-3 -2 -5 -3 -7 -2c-3 1 -3 4 -1 8l24 64h-91v-216l64 24c4 2 7 2 8 -1c1 -2 0 -4 -2 -7l-97 -133l-97 133c-2 3 -3 5 -2 7c1 3 4 3 8 1l64 -24v216h-91l24 -64c2 -4 2 -7 -1 -8c-2 -1 -4 0 -7 2l-133 97l133 97c3 2 5 3 7 2c3 -1 3 -4 1 -8l-24 -64h91
v226l-64 -24c-4 -2 -7 -2 -8 1c-1 2 0 4 2 7l97 133l97 -133c2 -3 3 -5 2 -7c-1 -3 -4 -3 -8 -1l-64 24v-226h91l-24 64c-2 4 -2 7 1 8c2 1 4 0 7 -2z" />
    <glyph glyph-name="lessequal" unicode="&#x2264;" 
d="M480 345l-133 -97c-3 -2 -5 -3 -7 -2c-3 1 -3 4 -1 8l24 64h-91v-216l64 24c4 2 7 2 8 -1c1 -2 0 -4 -2 -7l-97 -133l-97 133c-2 3 -3 5 -2 7c1 3 4 3 8 1l64 -24v216h-91l24 -64c2 -4 2 -7 -1 -8c-2 -1 -4 0 -7 2l-133 97l133 97c3 2 5 3 7 2c3 -1 3 -4 1 -8l-24 -64h91
v226l-64 -24c-4 -2 -7 -2 -8 1c-1 2 0 4 2 7l97 133l97 -133c2 -3 3 -5 2 -7c-1 -3 -4 -3 -8 -1l-64 24v-226h91l-24 64c-2 4 -2 7 1 8c2 1 4 0 7 -2z" />
    <glyph glyph-name="greaterequal" unicode="&#x2265;" 
d="M480 345l-133 -97c-3 -2 -5 -3 -7 -2c-3 1 -3 4 -1 8l24 64h-91v-216l64 24c4 2 7 2 8 -1c1 -2 0 -4 -2 -7l-97 -133l-97 133c-2 3 -3 5 -2 7c1 3 4 3 8 1l64 -24v216h-91l24 -64c2 -4 2 -7 -1 -8c-2 -1 -4 0 -7 2l-133 97l133 97c3 2 5 3 7 2c3 -1 3 -4 1 -8l-24 -64h91
v226l-64 -24c-4 -2 -7 -2 -8 1c-1 2 0 4 2 7l97 133l97 -133c2 -3 3 -5 2 -7c-1 -3 -4 -3 -8 -1l-64 24v-226h91l-24 64c-2 4 -2 7 1 8c2 1 4 0 7 -2z" />
    <glyph glyph-name="mu" unicode="&#x3bc;" 
d="M480 345l-133 -97c-3 -2 -5 -3 -7 -2c-3 1 -3 4 -1 8l24 64h-236l24 -64c2 -4 2 -7 -1 -8c-2 -1 -4 0 -7 2l-133 97l133 97c3 2 5 3 7 2c3 -1 3 -4 1 -8l-24 -64h236l-24 64c-2 4 -2 7 1 8c2 1 4 0 7 -2z" />
    <glyph glyph-name="partialdiff" unicode="&#x2202;" horiz-adv-x="284" 
d="M241 125c1 -2 0 -4 -2 -7l-97 -133l-97 133c-2 3 -3 5 -2 7c1 3 4 3 8 1l62 -23v494l-62 -23c-4 -2 -7 -2 -8 1c-1 2 0 4 2 7l97 133l97 -133c2 -3 3 -5 2 -7c-1 -3 -4 -3 -8 -1l-62 23v-494l62 23c4 2 7 2 8 -1z" />
    <glyph glyph-name="summation" unicode="&#x2211;" 
d="M480 345l-133 -97c-3 -2 -5 -3 -7 -2c-3 1 -3 4 -1 8l24 64h-91v-216l64 24c4 2 7 2 8 -1c1 -2 0 -4 -2 -7l-97 -133l-97 133c-2 3 -3 5 -2 7c1 3 4 3 8 1l64 -24v216h-91l24 -64c2 -4 2 -7 -1 -8c-2 -1 -4 0 -7 2l-133 97l133 97c3 2 5 3 7 2c3 -1 3 -4 1 -8l-24 -64h91
v226l-64 -24c-4 -2 -7 -2 -8 1c-1 2 0 4 2 7l97 133l97 -133c2 -3 3 -5 2 -7c-1 -3 -4 -3 -8 -1l-64 24v-226h91l-24 64c-2 4 -2 7 1 8c2 1 4 0 7 -2z" />
    <glyph glyph-name="product" unicode="&#x220f;" 
d="M480 345l-133 -97c-3 -2 -5 -3 -7 -2c-3 1 -3 4 -1 8l24 64h-91v-216l64 24c4 2 7 2 8 -1c1 -2 0 -4 -2 -7l-97 -133l-97 133c-2 3 -3 5 -2 7c1 3 4 3 8 1l64 -24v216h-91l24 -64c2 -4 2 -7 -1 -8c-2 -1 -4 0 -7 2l-133 97l133 97c3 2 5 3 7 2c3 -1 3 -4 1 -8l-24 -64h91
v226l-64 -24c-4 -2 -7 -2 -8 1c-1 2 0 4 2 7l97 133l97 -133c2 -3 3 -5 2 -7c-1 -3 -4 -3 -8 -1l-64 24v-226h91l-24 64c-2 4 -2 7 1 8c2 1 4 0 7 -2z" />
    <glyph glyph-name="pi" unicode="&#x3c0;" horiz-adv-x="483" 
d="M446 350c0 -110 -18 -198 -54 -263c-35 -65 -86 -98 -151 -98s-116 33 -151 98s-53 153 -53 263s18 198 53 263s86 98 151 98s116 -33 151 -98c36 -65 54 -153 54 -263zM400 350c0 98 -13 175 -40 232c-26 57 -66 85 -119 85s-93 -28 -119 -85s-39 -134 -39 -232
s13 -175 39 -232s66 -85 119 -85s93 28 119 85c27 57 40 134 40 232zM330 438c0 -37 -9 -65 -28 -84c-18 -19 -40 -28 -67 -28h-12v-174h-46v392h61c27 0 50 -9 66 -26c18 -18 26 -45 26 -80zM284 438c0 42 -16 63 -47 63h-14v-132h14c31 0 47 23 47 69z" />
    <glyph glyph-name="integral" unicode="&#x222b;" horiz-adv-x="339" 
d="M287 0h-62v27c-23 -25 -48 -38 -75 -38c-42 0 -71 23 -88 69s-25 114 -25 203c0 91 9 160 27 206s48 69 90 69c23 0 47 -11 71 -34v23h62v-525zM225 79v366c-23 21 -46 32 -67 32c-39 0 -58 -71 -58 -214c0 -76 5 -131 14 -165c9 -33 25 -50 48 -50c20 0 41 10 63 31z
" />
    <glyph glyph-name="Omega" unicode="&#x3a9;" horiz-adv-x="284" 
d="M241 575c-1 -3 -4 -3 -8 -1l-62 23v-597h-58v597l-62 -23c-4 -2 -7 -2 -8 1c-1 2 0 4 2 7l97 133l97 -133c2 -3 3 -5 2 -7z" />
    <glyph glyph-name="logicalnot" unicode="&#xac;" horiz-adv-x="355" 
d="M345 345l-133 -97c-3 -2 -5 -3 -7 -2c-3 1 -3 4 -1 8l24 64h-203v54h203l-24 64c-2 4 -2 7 1 8c2 1 4 0 7 -2z" />
    <glyph glyph-name="radical" unicode="&#x221a;" horiz-adv-x="350" 
d="M342 700l-152 -700h-62l-115 340h71l32 -112c21 -77 35 -129 40 -156c2 19 12 73 29 161l92 467h65z" />
    <glyph glyph-name="approxequal" unicode="&#x2248;" horiz-adv-x="284" 
d="M241 125c1 -2 0 -4 -2 -7l-97 -133l-97 133c-2 3 -3 5 -2 7c1 3 4 3 8 1l62 -23v597h58v-597l62 23c4 2 7 2 8 -1z" />
    <glyph glyph-name="Delta" unicode="&#x394;" horiz-adv-x="355" 
d="M330 318h-203l24 -64c2 -4 2 -7 -1 -8c-2 -1 -4 0 -7 2l-133 97l133 97c3 2 5 3 7 2c3 -1 3 -4 1 -8l-24 -64h203v-54z" />
    <glyph glyph-name="nbspace" unicode="&#xa0;" horiz-adv-x="90" 
 />
    <glyph glyph-name="Agrave" unicode="&#xc0;" horiz-adv-x="362" 
d="M333 0h-69l-28 184h-112l-28 -184h-67l117 700h70zM227 245l-21 142c-13 97 -22 166 -26 208c-4 -42 -13 -111 -26 -208l-21 -142h94zM207 745h-47l-116 160h87z" />
    <glyph glyph-name="Atilde" unicode="&#xc3;" horiz-adv-x="362" 
d="M333 0h-69l-28 184h-112l-28 -184h-67l117 700h70zM227 245l-21 142c-13 97 -22 166 -26 208c-4 -42 -13 -111 -26 -208l-21 -142h94zM308 844c0 -36 -7 -63 -20 -82s-30 -28 -50 -28c-18 0 -35 7 -52 22c-19 17 -31 27 -36 31s-12 6 -19 6c-15 0 -24 -19 -27 -57h-46
c0 36 7 64 20 82c13 20 30 29 50 29c18 0 35 -7 52 -22c26 -25 44 -38 55 -38c14 0 23 19 27 57h46z" />
    <glyph glyph-name="Otilde" unicode="&#xd5;" horiz-adv-x="374" 
d="M332 350c0 -121 -11 -212 -34 -272c-23 -59 -60 -89 -111 -89s-88 30 -111 89c-23 60 -34 151 -34 272s11 212 34 272c23 59 60 89 111 89s88 -30 111 -89c23 -60 34 -151 34 -272zM266 350c0 199 -27 299 -80 299c-52 0 -78 -100 -78 -299s27 -299 80 -299
c52 0 78 100 78 299zM313 854c0 -36 -7 -63 -20 -82s-30 -28 -50 -28c-18 0 -35 7 -52 22c-19 17 -31 27 -36 31s-12 6 -19 6c-15 0 -24 -19 -27 -57h-46c0 36 7 64 20 82c13 20 30 29 50 29c18 0 35 -7 52 -22c26 -25 44 -38 55 -38c14 0 23 19 27 57h46z" />
    <glyph glyph-name="divide" unicode="&#xf7;" 
d="M480 345l-133 -97c-3 -2 -5 -3 -7 -2c-3 1 -3 4 -1 8l24 64h-91v-216l64 24c4 2 7 2 8 -1c1 -2 0 -4 -2 -7l-97 -133l-97 133c-2 3 -3 5 -2 7c1 3 4 3 8 1l64 -24v216h-91l24 -64c2 -4 2 -7 -1 -8c-2 -1 -4 0 -7 2l-133 97l133 97c3 2 5 3 7 2c3 -1 3 -4 1 -8l-24 -64h91
v226l-64 -24c-4 -2 -7 -2 -8 1c-1 2 0 4 2 7l97 133l97 -133c2 -3 3 -5 2 -7c-1 -3 -4 -3 -8 -1l-64 24v-226h91l-24 64c-2 4 -2 7 1 8c2 1 4 0 7 -2z" />
    <glyph glyph-name="lozenge" unicode="&#x25ca;" 
d="M480 345l-133 -97c-3 -2 -5 -3 -7 -2c-3 1 -3 4 -1 8l24 64h-91v-216l64 24c4 2 7 2 8 -1c1 -2 0 -4 -2 -7l-97 -133l-97 133c-2 3 -3 5 -2 7c1 3 4 3 8 1l64 -24v216h-91l24 -64c2 -4 2 -7 -1 -8c-2 -1 -4 0 -7 2l-133 97l133 97c3 2 5 3 7 2c3 -1 3 -4 1 -8l-24 -64h91
v226l-64 -24c-4 -2 -7 -2 -8 1c-1 2 0 4 2 7l97 133l97 -133c2 -3 3 -5 2 -7c-1 -3 -4 -3 -8 -1l-64 24v-226h91l-24 64c-2 4 -2 7 1 8c2 1 4 0 7 -2z" />
    <glyph glyph-name="ydieresis" unicode="&#xff;" horiz-adv-x="311" 
d="M289 525l-139 -710h-62l40 168l-106 542h66l49 -306c10 -63 16 -109 19 -137c3 28 9 74 19 137l49 306h65zM279 641c0 -13 -5 -24 -15 -33c-9 -10 -20 -15 -33 -15s-24 5 -33 15c-10 9 -15 20 -15 33s5 24 15 33c9 10 20 15 33 15s24 -5 33 -15c10 -9 15 -20 15 -33z
M133 641c0 -13 -5 -24 -14 -33c-9 -10 -20 -15 -33 -15s-25 5 -34 14c-10 9 -15 21 -15 34s5 25 15 34c9 9 21 14 34 14s24 -5 33 -15c9 -9 14 -20 14 -33z" />
    <glyph glyph-name="Ydieresis" unicode="&#x178;" horiz-adv-x="334" 
d="M317 700l-118 -397v-303h-64v301l-118 399h67l47 -175c19 -72 32 -124 37 -156c7 38 19 90 37 156l47 175h65zM289 796c0 -13 -5 -25 -15 -34c-9 -9 -20 -14 -33 -14s-24 5 -33 14c-10 9 -15 21 -15 34s5 25 15 34c9 9 20 14 33 14s24 -5 33 -14c10 -9 15 -21 15 -34z
M143 796c0 -13 -5 -24 -14 -34c-9 -9 -20 -14 -33 -14s-25 5 -34 14c-10 9 -15 21 -15 34s5 25 15 34c9 9 21 14 34 14s24 -5 33 -14c9 -10 14 -21 14 -34z" />
    <glyph glyph-name="Acircumflex" unicode="&#xc2;" horiz-adv-x="362" 
d="M333 0h-69l-28 184h-112l-28 -184h-67l117 700h70zM227 245l-21 142c-13 97 -22 166 -26 208c-4 -42 -13 -111 -26 -208l-21 -142h94zM297 725h-55l-61 98l-61 -98h-53l88 160h54z" />
    <glyph glyph-name="Ecircumflex" unicode="&#xca;" horiz-adv-x="319" 
d="M290 0h-233v700h223v-62h-159v-233h111v-62h-111v-281h169v-62zM283 745h-55l-61 98l-61 -98h-53l88 160h54z" />
    <glyph glyph-name="Aacute" unicode="&#xc1;" horiz-adv-x="362" 
d="M333 0h-69l-28 184h-112l-28 -184h-67l117 700h70zM227 245l-21 142c-13 97 -22 166 -26 208c-4 -42 -13 -111 -26 -208l-21 -142h94zM320 905l-116 -160h-47l76 160h87z" />
    <glyph glyph-name="Edieresis" unicode="&#xcb;" horiz-adv-x="319" 
d="M290 0h-233v700h223v-62h-159v-233h111v-62h-111v-281h169v-62zM290 801c0 -13 -5 -24 -14 -33c-9 -10 -21 -15 -34 -15s-25 5 -34 15c-9 9 -14 20 -14 33s5 24 14 33c9 10 21 15 34 15s25 -5 34 -15c9 -9 14 -20 14 -33zM144 801c0 -13 -5 -24 -14 -33
c-9 -10 -20 -15 -33 -15s-25 5 -35 14c-9 9 -14 21 -14 34s5 25 14 34c10 9 22 14 35 14s24 -5 33 -15c9 -9 14 -20 14 -33z" />
    <glyph glyph-name="Egrave" unicode="&#xc8;" horiz-adv-x="319" 
d="M290 0h-233v700h223v-62h-159v-233h111v-62h-111v-281h169v-62zM202 745h-47l-116 160h87z" />
    <glyph glyph-name="Iacute" unicode="&#xcd;" horiz-adv-x="188" 
d="M126 0h-64v700h64v-700zM231 905l-116 -160h-47l76 160h87z" />
    <glyph glyph-name="Icircumflex" unicode="&#xce;" horiz-adv-x="188" 
d="M126 0h-64v700h64v-700zM209 740h-55l-61 98l-61 -98h-53l88 160h54z" />
    <glyph glyph-name="Idieresis" unicode="&#xcf;" horiz-adv-x="188" 
d="M126 0h-64v700h64v-700zM215 805c0 -13 -5 -24 -15 -33c-9 -10 -20 -15 -33 -15s-24 5 -33 15c-10 9 -15 20 -15 33s5 24 15 33c9 10 20 15 33 15s24 -5 33 -15c10 -9 15 -20 15 -33zM69 805c0 -13 -5 -24 -14 -33c-9 -10 -20 -15 -33 -15s-25 5 -34 14
c-10 9 -15 21 -15 34s5 25 15 34c9 9 21 14 34 14s24 -5 33 -15c9 -9 14 -20 14 -33z" />
    <glyph glyph-name="Igrave" unicode="&#xcc;" horiz-adv-x="188" 
d="M126 0h-64v700h64v-700zM120 745h-47l-116 160h87z" />
    <glyph glyph-name="Oacute" unicode="&#xd3;" horiz-adv-x="374" 
d="M332 350c0 -121 -11 -212 -34 -272c-23 -59 -60 -89 -111 -89s-88 30 -111 89c-23 60 -34 151 -34 272s11 212 34 272c23 59 60 89 111 89s88 -30 111 -89c23 -60 34 -151 34 -272zM266 350c0 199 -27 299 -80 299c-52 0 -78 -100 -78 -299s27 -299 80 -299
c52 0 78 100 78 299zM321 905l-116 -160h-47l76 160h87z" />
    <glyph glyph-name="Ocircumflex" unicode="&#xd4;" horiz-adv-x="374" 
d="M332 350c0 -121 -11 -212 -34 -272c-23 -59 -60 -89 -111 -89s-88 30 -111 89c-23 60 -34 151 -34 272s11 212 34 272c23 59 60 89 111 89s88 -30 111 -89c23 -60 34 -151 34 -272zM266 350c0 199 -27 299 -80 299c-52 0 -78 -100 -78 -299s27 -299 80 -299
c52 0 78 100 78 299zM303 740h-55l-61 98l-61 -98h-53l88 160h54z" />
    <glyph glyph-name="apple" 
d="M480 345l-133 -97c-3 -2 -5 -3 -7 -2c-3 1 -3 4 -1 8l24 64h-91v-216l64 24c4 2 7 2 8 -1c1 -2 0 -4 -2 -7l-97 -133l-97 133c-2 3 -3 5 -2 7c1 3 4 3 8 1l64 -24v216h-91l24 -64c2 -4 2 -7 -1 -8c-2 -1 -4 0 -7 2l-133 97l133 97c3 2 5 3 7 2c3 -1 3 -4 1 -8l-24 -64h91
v226l-64 -24c-4 -2 -7 -2 -8 1c-1 2 0 4 2 7l97 133l97 -133c2 -3 3 -5 2 -7c-1 -3 -4 -3 -8 -1l-64 24v-226h91l-24 64c-2 4 -2 7 1 8c2 1 4 0 7 -2z" />
    <glyph glyph-name="Ograve" unicode="&#xd2;" horiz-adv-x="374" 
d="M332 350c0 -121 -11 -212 -34 -272c-23 -59 -60 -89 -111 -89s-88 30 -111 89c-23 60 -34 151 -34 272s11 212 34 272c23 59 60 89 111 89s88 -30 111 -89c23 -60 34 -151 34 -272zM266 350c0 199 -27 299 -80 299c-52 0 -78 -100 -78 -299s27 -299 80 -299
c52 0 78 100 78 299zM214 745h-47l-116 160h87z" />
    <glyph glyph-name="Uacute" unicode="&#xda;" horiz-adv-x="390" 
d="M334 163c0 -53 -13 -96 -38 -127c-26 -31 -60 -47 -102 -47s-76 16 -100 47c-26 31 -38 74 -38 127v537h64v-535c0 -35 7 -63 20 -83c13 -21 32 -31 55 -31s42 10 55 31c13 20 20 48 20 83v535h64v-537zM330 890l-116 -160h-47l76 160h87z" />
    <glyph glyph-name="Ucircumflex" unicode="&#xdb;" horiz-adv-x="390" 
d="M334 163c0 -53 -13 -96 -38 -127c-26 -31 -60 -47 -102 -47s-76 16 -100 47c-26 31 -38 74 -38 127v537h64v-535c0 -35 7 -63 20 -83c13 -21 32 -31 55 -31s42 10 55 31c13 20 20 48 20 83v535h64v-537zM311 745h-55l-61 98l-61 -98h-53l88 160h54z" />
    <glyph glyph-name="Ugrave" unicode="&#xd9;" horiz-adv-x="390" 
d="M334 163c0 -53 -13 -96 -38 -127c-26 -31 -60 -47 -102 -47s-76 16 -100 47c-26 31 -38 74 -38 127v537h64v-535c0 -35 7 -63 20 -83c13 -21 32 -31 55 -31s42 10 55 31c13 20 20 48 20 83v535h64v-537zM226 730h-47l-116 160h87z" />
    <glyph glyph-name="Euro" unicode="&#x20ac;" horiz-adv-x="335" 
d="M105 257c7 -137 32 -206 77 -206c18 0 32 9 43 27c11 19 20 50 29 95l58 -15c-10 -55 -25 -97 -45 -126s-50 -43 -90 -43c-50 0 -85 29 -106 89c-21 58 -31 149 -31 272c0 120 11 210 32 270c22 61 58 91 107 91c38 0 67 -15 87 -43c20 -30 35 -73 45 -131l-60 -16
c-9 49 -20 82 -31 101c-11 18 -25 27 -42 27c-41 0 -65 -66 -72 -197h134v-55h-137v-47v-38h137v-55h-135z" />
  </font>
</defs>
</svg>
